<?xml version="1.0" encoding="utf-8"?>
<!-- Generator: Adobe Illustrator 25.2.0, SVG Export Plug-In . SVG Version: 6.00 Build 0)  -->
<svg version="1.1" id="Layer_1" xmlns="http://www.w3.org/2000/svg" xmlns:xlink="http://www.w3.org/1999/xlink" x="0px" y="0px"
	 viewBox="0 0 1114.6 530.2" style="enable-background:new 0 0 1114.6 530.2;" xml:space="preserve">
<style type="text/css">
	.st0{opacity:0.2;fill:#ED9F4A;}
	.st1{fill:#C4453B;}
	.st2{fill:#F26E6B;}
	.st3{fill:#C65447;}
	.st4{fill:#E8B491;}
	.st5{fill:#F9D0AF;}
	.st6{fill:#E5AD88;}
	.st7{fill:#82B378;}
	.st8{fill:#A8D29F;}
	.st9{fill:#F1A34F;}
	.st10{fill:#FFB973;}
	.st11{fill:#D86713;}
	.st12{fill:#D3A17F;}
	.st13{fill:#9ED9F0;}
	.st14{fill:#74ACBE;}
	.st15{fill:#AA413E;}
	.st16{fill:#41828C;}
	.st17{fill:#CE8D6A;}
	.st18{fill:#7C1818;}
	.st19{fill:#6BA5B2;}
	.st20{fill:#7FB9C6;}
	.st21{fill:#C8E5C1;}
	.st22{fill:#609EA8;}
	.st23{fill:#6DA5B2;}
	.st24{fill:#7BB8C6;}
	.st25{fill:#E57970;}
	.st26{fill:#E88F62;}
	.st27{fill:#103663;}
	.st28{fill:#2B478B;}
	.st29{fill:#E9F3FE;}
	.st30{fill:#233862;}
	.st31{fill:#D1E2F2;}
	.st32{fill:#466AA5;}
	.st33{opacity:0.4;}
	.st34{fill:#FFB27D;}
	.st35{fill:#163560;}
	.st36{fill:#9C5F33;}
	.st37{fill:#80BDCC;}
	.st38{fill:#5F9AA8;}
	.st39{fill:#AB7041;}
	.st40{fill:#2E3552;}
</style>
<g>
	<path class="st0" d="M1056.4,526c0,0,104.5-173-29.2-301.8c-133.7-128.8-248.7-57.5-307.1-61c-58.3-3.6-77.1-116.4-249.7-150.5
		C297.8-21.4,51.9,6,196.6,252.1c69.8,118.8-212.4,83.7-173.5,277.1L1056.4,526z"/>
	<g>
		<path class="st1" d="M210.5,526.2h-65.9c-17.3,0-30-16.4-25.7-33.2l9.7-37.4c0.8-3.2,3.7-5.4,7-5.4h115l-14.5,56.2
			C233.1,518,222.6,526.2,210.5,526.2z"/>
		<path class="st2" d="M187.8,526.2h65.9c17.3,0,30-16.4,25.7-33.2l-9.7-37.4c-0.8-3.2-3.7-5.4-7-5.4H157c-4.7,0-8.2,4.5-7,9.1
			l12.2,47.1C165.2,518,175.7,526.2,187.8,526.2z"/>
		<path class="st1" d="M220.2,450.1v-26.4c0-13.2-10.7-23.9-23.9-23.9c-13.2,0-23.9,10.7-23.9,23.9v26l0.1,0.3h-5v-26.4
			c0-15.9,12.9-28.8,28.8-28.8c15.9,0,28.8,12.9,28.8,28.8v26.1l0.1,0.3H220.2z"/>
		<path class="st3" d="M199.9,527.2c0.2,0,0.4,0,0.7-0.1c1.3-0.4,2.1-1.7,1.7-3l-20.1-74.3v-26c0-13.2,10.7-23.9,23.9-23.9
			c13.2,0,23.9,10.7,23.9,23.9v26.7l19,74.4c0.3,1.3,1.7,2.1,3,1.8c1.3-0.3,2.1-1.7,1.8-3l-18.9-73.8v-26.1
			c0-15.9-12.9-28.8-28.8-28.8c-15.9,0-28.8,12.9-28.8,28.8v26.7l20.2,75C197.8,526.5,198.8,527.2,199.9,527.2z"/>
		<path class="st2" d="M138.2,459.1L138.2,459.1c1.7,1.2,4.1,0.7,5.1-1l4.8-7.9h-7.5l-3.2,3.8C136.2,455.5,136.5,457.9,138.2,459.1z
			"/>
	</g>
	
		<rect x="358.8" y="130" transform="matrix(-1 -1.224647e-16 1.224647e-16 -1 1241.8553 660.2559)" class="st4" width="524.3" height="400.3"/>
	<g>
		<polygon class="st5" points="883.1,130 984.8,99 984.8,526.6 883.1,526.6 		"/>
		
			<rect x="984.8" y="99" transform="matrix(-1 -1.224647e-16 1.224647e-16 -1 1978.1378 625.5984)" class="st6" width="8.5" height="427.5"/>
	</g>
	<g>
		<polygon class="st5" points="358.8,130 257,99 257,526.6 358.8,526.6 		"/>
		<rect x="248.5" y="99" class="st6" width="8.5" height="427.5"/>
	</g>
	
		<rect x="612.7" y="130" transform="matrix(-1 -1.224647e-16 1.224647e-16 -1 1233.6135 658.7773)" class="st5" width="8.2" height="398.8"/>
	
		<rect x="616.2" y="259.5" transform="matrix(-1.836970e-16 1 -1 -1.836970e-16 1142.5404 -98.1966)" class="st5" width="8.2" height="525.4"/>
	<polygon class="st5" points="475.9,379.2 475.9,322.7 356,322.7 356,314.5 475.9,314.5 475.9,258 356,258 356,249.7 475.9,249.7 
		475.9,192 356,192 356,183.8 475.9,183.8 475.9,138.2 357.7,138.2 357.7,130 475.9,130 484.1,130 883.1,130 883.1,138.2 
		484.1,138.2 484.1,379.2 613.5,379.2 883.1,379.2 883.1,387.5 613.5,387.5 484.1,387.5 484.1,452.6 883.1,452.6 883.1,460.9 
		484.1,460.9 484.1,528.8 475.9,528.8 475.9,460.9 475.9,452.6 475.9,387.5 356,387.5 356,379.2 	"/>
	<g>
		<g>
			<path class="st7" d="M801.5,73.6c0,0,9.1-10.6,0.6-17.3c0,0-6.2-3.8-11.3-3.5c0,0,7.2,12,4.8,13.2c-2.3,1.2-7-14-7-14
				s-14.1-1.4-18.7,0.8c0,0,12.1,9.9,9.5,10.5c-2.5,0.6-15.6-9.1-15.6-9.1s-13.1,2.2-12.4,10.3c0.7,8,5.2,10.5,7.2,10.3
				c2-0.2,13.6-4.7,13.9-3c0.3,1.6-6.8,7-11.7,7.2c0,0,9.3,10.2,15.4,7.3c6.2-2.9,6.7-7.6,10.5-9.4c3.8-1.8,7.1-1.7,5.5,0
				c-1.6,1.8-8.5,3.5-10.7,7.4c-2.2,3.9-4.2,6.5,2.2,5.5c6.4-1,16.7-5.6,17.2-11C801.5,73.6,801.5,73.6,801.5,73.6z"/>
			<g>
				<path class="st7" d="M757.9,64.7c0,0,35.7-1.4,43.6,8.8c0,0,1.7,5.2,7.1,10l0.8,2.3c0,0-6.2-6.5-8.4-6.9
					C801.1,78.9,804.5,66.3,757.9,64.7z"/>
				<path class="st7" d="M808.6,83.5c0,0,7.7,5.7,8.2,15.8l-1.4,0.1c0,0-2.4-10.5-6.9-14.6C804.1,80.8,808.6,83.5,808.6,83.5z"/>
			</g>
		</g>
		<g>
			<path class="st8" d="M833.2,60.3c0,0-14.4-8.1-7.7-19c0,0,5.4-6.7,11.1-8.4c0,0-3.1,16.3,0,16.7c3.1,0.4,2.1-18.4,2.1-18.4
				s15.2-7.3,21.1-6.7c0,0-9.4,15.9-6.3,15.6c3.1-0.4,13.6-16.5,13.6-16.5s15.6-2.9,18,6.3c2.5,9.2-1.5,13.8-3.8,14.4
				c-2.3,0.6-17.1,0.4-16.7,2.3c0.4,1.9,10.4,5,15.9,3.3c0,0-6.1,15.2-14.2,14.4c-8.1-0.8-10.6-5.8-15.6-6.1c-5-0.4-8.6,1-6.1,2.3
				c2.5,1.3,10.9,0.4,15,3.9c4,3.4,7.3,5.5-0.2,7.1c-7.5,1.5-20.9,0.6-23.6-5.2C833.2,60.3,833.2,60.3,833.2,60.3z"/>
			<g>
				<path class="st7" d="M878.1,32.6c0,0-40.3,13.1-44.9,27.6c0,0,0.2,6.5-3.8,14v2.9c0,0,4.2-9.8,6.5-11.1
					C835.9,66,826.8,53.4,878.1,32.6z"/>
				<path class="st7" d="M829.3,74.3c0,0-6.2,9.4-2.7,20.9l1.6-0.4c0,0-1.6-12.7,1.7-19C833.2,69.4,829.3,74.3,829.3,74.3z"/>
			</g>
		</g>
		<g>
			<path class="st8" d="M810.3,49.2c0,0,19-10.6,10.1-25.1c0,0-7.1-8.9-14.7-11.1c0,0,4,21.5,0,22c-4,0.5-2.8-24.3-2.8-24.3
				s-20-9.6-27.8-8.9c0,0,12.4,21,8.4,20.5c-4-0.5-18-21.8-18-21.8S745-3.2,741.7,8.9c-3.3,12.1,2,18.2,5.1,19c3,0.8,22.5,0.5,22,3
				c-0.5,2.5-13.7,6.6-21,4.3c0,0,8.1,20,18.7,19c10.6-1,13.9-7.6,20.5-8.1c6.6-0.5,11.4,1.3,8.1,3c-3.3,1.8-14.4,0.6-19.7,5.1
				c-5.3,4.5-9.6,7.3,0.3,9.3c9.9,2,27.6,0.8,31.1-6.8C810.3,49.2,810.3,49.2,810.3,49.2z"/>
			<g>
				<path class="st7" d="M751,12.7c0,0,53.2,17.2,59.2,36.4c0,0-0.3,8.6,5.1,18.5v3.8c0,0-5.6-12.9-8.6-14.7
					C806.7,56.8,818.6,40,751,12.7z"/>
				<path class="st7" d="M815.3,67.6c0,0,8.2,12.4,3.5,27.6l-2.1-0.6c0,0,2-16.7-2.2-25.1C810.2,61.2,815.3,67.6,815.3,67.6z"/>
			</g>
		</g>
		<path class="st9" d="M810.9,128.1c-20.5,0-37.2-16.6-37.2-37.2h74.4C848.1,111.4,831.4,128.1,810.9,128.1z"/>
		<path class="st10" d="M801.8,127.8c1.5,0.2,3.1,0.3,4.6,0.3c20.5,0,37.2-16.6,37.2-37.2h-9.2C834.3,109.9,820.1,125.5,801.8,127.8
			z"/>
		<path class="st9" d="M773.2,130h75.4l0,0c0-2.5-2.1-4.6-4.6-4.6h-66.2C775.3,125.4,773.2,127.5,773.2,130L773.2,130z"/>
		
			<rect x="772.9" y="90.9" transform="matrix(-1 -1.224647e-16 1.224647e-16 -1 1622.1782 182.9565)" class="st11" width="76.4" height="1.1"/>
	</g>
	<g>
		<path class="st5" d="M462.8,418.9v34.5c0,2.1-1.7,3.8-3.8,3.8h-52.7c-2,0-3.5-1.6-3.5-3.5v-34.8H462.8z"/>
		<path class="st12" d="M405.9,411.6h54.3c1.4,0,2.6,1.2,2.6,2.6v8.1h-60v-7.6C402.8,413,404.2,411.6,405.9,411.6z"/>
		<path class="st4" d="M421,430.3h23.7c1,0,1.7,0.8,1.7,1.7c0,1-0.8,1.7-1.7,1.7H421c-1,0-1.7-0.8-1.7-1.7
			C419.2,431,420,430.3,421,430.3z"/>
	</g>
	<g>
		<path class="st13" d="M451.4,466.9V513c0,2.8-2.3,5.1-5.1,5.1H376c-2.6,0-4.7-2.1-4.7-4.7v-46.5H451.4z"/>
		<path class="st14" d="M375.4,457.2h72.5c1.9,0,3.4,1.5,3.4,3.4v10.8h-80.1v-10.1C371.2,459.1,373.1,457.2,375.4,457.2z"/>
		<path class="st14" d="M395.5,482.1h31.6c1.3,0,2.3,1,2.3,2.3l0,0c0,1.3-1,2.3-2.3,2.3h-31.6c-1.3,0-2.3-1-2.3-2.3l0,0
			C393.2,483.1,394.2,482.1,395.5,482.1z"/>
	</g>
	<g>
		<path class="st5" d="M737,338.2V375c0,2.2-1.8,4.1-4.1,4.1h-56.2c-2.1,0-3.8-1.7-3.8-3.8v-37.1H737z"/>
		<g>
			<path class="st12" d="M676.2,330.4h58c1.5,0,2.8,1.2,2.8,2.8v8.6h-64.1v-8.1C672.9,331.9,674.4,330.4,676.2,330.4z"/>
			<path class="st4" d="M692.3,350.3h25.3c1,0,1.9,0.8,1.9,1.9c0,1-0.8,1.9-1.9,1.9h-25.3c-1,0-1.9-0.8-1.9-1.9
				C690.5,351.2,691.3,350.3,692.3,350.3z"/>
		</g>
	</g>
	<g>
		<path class="st8" d="M834,407.6v40.6c0,2.5-2,4.5-4.5,4.5h-61.9c-2.3,0-4.2-1.9-4.2-4.2v-40.9H834z"/>
		<path class="st7" d="M767.2,399.1H831c1.7,0,3,1.4,3,3v9.5h-70.5v-8.9C763.5,400.7,765.2,399.1,767.2,399.1z"/>
		<path class="st7" d="M784.9,421h27.8c1.1,0,2,0.9,2,2c0,1.1-0.9,2-2,2h-27.8c-1.1,0-2-0.9-2-2C782.8,421.9,783.8,421,784.9,421z"
			/>
	</g>
	<path class="st15" d="M798.3,464.5h63.8c1.7,0,3,1.4,3,3v5.5v4v36.5c0,2.5-2,4.5-4.5,4.5h-61.9c-2.3,0-4.2-1.9-4.2-4.2V477v-4v-4.9
		C794.7,466.1,796.3,464.5,798.3,464.5z"/>
	<path class="st12" d="M629.1,356h63.8c1.7,0,3,0.6,3,1.3v2.3v1.7V377c0,1.1-2,1.9-4.5,1.9h-61.9c-2.3,0-4.2-0.8-4.2-1.8v-15.8v-1.7
		v-2.1C625.5,356.7,627.1,356,629.1,356z"/>
	<path class="st12" d="M716.9,495.5h63.8c1.7,0,3,0.6,3,1.3v2.3v1.7v15.7c0,1.1-2,1.9-4.5,1.9h-61.9c-2.3,0-4.2-0.8-4.2-1.8v-15.8
		v-1.7V497C713.3,496.2,714.9,495.5,716.9,495.5z"/>
	<path class="st14" d="M637.1,472.6H701c1.7,0,3,1.2,3,2.6v4.7v3.4v31.1c0,2.1-2,3.8-4.5,3.8h-61.9c-2.3,0-4.2-1.6-4.2-3.5v-31.4
		v-3.4v-4.1C633.5,474,635.1,472.6,637.1,472.6z"/>
	<path class="st16" d="M492.2,472.6h93.2c2.4,0,4.4,1.2,4.4,2.6v4.7v3.4v31.1c0,2.1-2.9,3.8-6.6,3.8h-90.4c-3.4,0-6.1-1.6-6.1-3.5
		v-31.4v-3.4v-4.1C486.8,474,489.2,472.6,492.2,472.6z"/>
	<path class="st12" d="M496.6,407h104.1c3.8,0,6.9,1.2,6.9,2.6v4.7v3.4v31.1c0,2.1-4.6,3.8-10.2,3.8h-99.6c-5.2,0-9.5-1.6-9.5-3.5
		v-31.4v-3.4v-4.1C488.3,408.4,492,407,496.6,407z"/>
	<g>
		<path class="st5" d="M733.2,407.6v40.6c0,2.5-2,4.5-4.5,4.5h-61.9c-2.3,0-4.2-1.9-4.2-4.2v-40.9H733.2z"/>
		<path class="st12" d="M666.3,399.1h63.8c1.7,0,3,1.4,3,3v9.5h-70.5v-8.9C662.7,400.7,664.3,399.1,666.3,399.1z"/>
		<path class="st4" d="M684,421h27.8c1.1,0,2,0.9,2,2c0,1.1-0.9,2-2,2H684c-1.1,0-2-0.9-2-2C682,421.9,682.9,421,684,421z"/>
	</g>
	<path class="st17" d="M633.6,155.8h237.8c1.9,0,3.4-1.5,3.4-3.4l0,0c0-1.9-1.5-3.4-3.4-3.4H633.6c-1.9,0-3.4,1.5-3.4,3.4l0,0
		C630.2,154.3,631.8,155.8,633.6,155.8z"/>
	<path class="st12" d="M908,241.5c0,0-3.7-68.6-0.8-85.9c2.9-17.3,0.6-33.1,0.6-33.1l52.2-15.9c0,0-0.6,30.4,0.8,57
		c1.4,26.7,0.3,65.5,0.2,76c1.4,6.2,4,19.8,1.7,20.4c-3,0.8-5.6,0.7-6.1-1.7c-0.4-1.8-0.1-12.9,0-18.6c0,0-19.3-19.6-24.3-17.8
		c-5,1.8-19.7,19.3-19.7,19.3c1.4,6.7,3.5,18.2,1.4,18.8c-3,0.8-5.6,0.7-6.1-1.7C907.6,256.8,907.8,247.4,908,241.5L908,241.5z"/>
	<g>
		<g>
			<path class="st18" d="M722.9,490.5c0,0,6.5-2.1,10-2.6c3.6-0.5,5.7-16.2,6.1-18.1c0.4-2,4.6-5.2,4.6-5.2l-2.6,23.8l-5.9,6h-10.7
				L722.9,490.5z"/>
			<path class="st15" d="M749.3,475.4c-0.6,3.4-0.9,8.4-1.1,12.6c0,0.9-0.1,1.8-0.1,2.6c-0.1,1.6-0.1,2.9-0.1,3.8c0,0.6,0,1,0,1.1
				h-1.9l0-1.1l0-3.6l0-2.3l-0.1-7.7c-0.1,0.2-0.3,0.3-0.4,0.5c-1,1.1-2.2,4.9-3.4,8.3c-0.2,0.5-0.3,0.9-0.5,1.4
				c-0.5,1.4-1,2.7-1.4,3.6c-0.2,0.5-0.4,0.8-0.6,1c0,0-0.1,0.1-0.2,0.1h-19.3c-0.5-0.1-0.8-0.2-0.8-0.3c-1.3-2.4,3.5-4.7,3.5-4.7
				s6.7,1,13.3-0.6c2.7-0.7,7.3-24.6,7.5-25.3c0,0,0,0,0,0s6.5,4,7.3,5.8C751.3,471.2,750.5,473.3,749.3,475.4z"/>
		</g>
		<g>
			<path class="st18" d="M738.6,490.5c0,0,6.5-2.1,10-2.6c3.6-0.5,5.7-16.2,6.1-18.1c0.4-2,4.6-5.2,4.6-5.2l-2.6,23.8l-5.9,6h-10.7
				L738.6,490.5z"/>
			<path class="st15" d="M765.1,475.4c-1.2,6.6-1.3,19.1-1.3,20.1h-1.9l-0.2-14.8c-0.1,0.2-0.3,0.3-0.4,0.5
				c-1.8,2-4.2,12.4-5.9,14.2c0,0-0.1,0.1-0.2,0.1H736c-0.5-0.1-0.8-0.2-0.8-0.3c-0.2-0.3-0.2-0.6-0.2-0.8c0-2,3.7-3.9,3.7-3.9
				s0.1,0,0.2,0h0c0.4,0.1,1.5,0.2,2.9,0.2c1.2,0.1,2.7,0.1,4.3,0c0.7,0,1.3-0.1,2-0.2c1.2-0.1,2.5-0.4,3.8-0.7
				c2.7-0.7,7.3-24.6,7.5-25.3c0,0,0,0,0,0s6.5,4,7.3,5.8C767,471.2,766.2,473.3,765.1,475.4z"/>
		</g>
	</g>
	<path class="st19" d="M424.5,183.8c0,0,2.1-1.9,1.1-3.6c-1.1-1.7-2.8-2-6.1-2c-3.3,0-51.2,0-51.2,0s-2.7,0.9-2.7,2.8
		c0,1.9,1.1,2.3,1.9,2.8C368.3,184.3,424.5,183.8,424.5,183.8z"/>
	<path class="st14" d="M419.1,178.2c0,0,5,0.2,4-3.6c-0.5-1.9-2.8-2-6.1-2c-3.3,0-51.2,0-51.2,0s-2.7,0.9-2.7,2.8
		c0,1.9,1.1,2.3,1.9,2.8C365.9,178.7,419.1,178.2,419.1,178.2z"/>
	<path class="st20" d="M421.5,172.4c0,0,5,0.2,4-3.6c-0.5-1.9-2.8-2-6.1-2c-3.3,0-51.2,0-51.2,0s-2.7,0.9-2.7,2.8
		c0,1.9,1.1,2.3,1.9,2.8C368.3,172.8,421.5,172.4,421.5,172.4z"/>
	<path class="st8" d="M468.4,249.7c0,0,2.2-2.1,1.1-3.8c-1.1-1.7-2.8-2-6.1-2c-3.3,0-88.6,0-88.6,0s-2.7,0.9-2.7,2.8
		c0,1.9,1.1,2.3,1.9,2.8C375,250,468.4,249.7,468.4,249.7z"/>
	<path class="st7" d="M465.6,243.9c0,0,5,0.2,4-3.6c-0.5-1.9-2.8-2-6.1-2c-3.3,0-80.3,0-80.3,0s-2.7,0.9-2.7,2.8
		c0,1.9,1.1,2.3,1.9,2.8C383.3,244.4,465.6,243.9,465.6,243.9z"/>
	<path class="st8" d="M465.6,238.3c0,0,5,0,4-3.8c-0.5-1.9-2.8-2-6.1-2c-3.3,0-76.1,0-76.1,0s-2.7,0.9-2.7,2.8c0,1.9,1.2,2.6,2.1,3
		C388.2,238.3,465.6,238.3,465.6,238.3z"/>
	<path class="st21" d="M462.5,232.5c0,0,5,0.2,4-3.6c-0.5-1.9-2.8-2-6.1-2c-3.3,0-76.1,0-76.1,0s-2.7,0.9-2.7,2.8
		c0,1.9,1.1,2.3,1.9,2.8C384.3,232.9,462.5,232.5,462.5,232.5z"/>
	<path class="st8" d="M453.9,226.7c0,0,5,0.2,4-3.6c-0.5-1.9-2.8-2-6.1-2c-3.3,0-51.2,0-51.2,0s-2.7,0.9-2.7,2.8
		c0,1.9,1.1,2.3,1.9,2.8C400.6,227.1,453.9,226.7,453.9,226.7z"/>
	<g>
		<path class="st14" d="M469.1,314.4c0,0,1.8-1.9,0.9-3.6c-0.9-1.7-2.3-2-5.1-2c-2.8,0-43.4,0-43.4,0s-2.3,0.9-2.3,2.8
			s0.9,2.3,1.6,2.8C421.6,314.8,469.1,314.4,469.1,314.4z"/>
		<path class="st22" d="M466.7,308.8c0,0,4.2,0.2,3.4-3.6c-0.4-1.9-2.3-2-5.1-2c-2.8,0-43.4,0-43.4,0s-2.3,0.9-2.3,2.8
			c0,1.9,0.9,2.3,1.6,2.8C421.6,309.2,466.7,308.8,466.7,308.8z"/>
		<path class="st23" d="M466.7,303c0,0,4.2,0.2,3.4-3.6c-0.4-1.9-2.3-2-5.1-2c-2.8,0-43.4,0-43.4,0s-2.3,0.9-2.3,2.8
			c0,1.9,0.9,2.3,1.6,2.8C421.6,303.4,466.7,303,466.7,303z"/>
		<path class="st14" d="M472.4,285.9c0,0,1.8-1.9,0.9-3.6c-0.9-1.7-2.3-2-5.1-2c-2.8,0-43.4,0-43.4,0s-2.3,0.9-2.3,2.8
			c0,1.9,0.9,2.3,1.6,2.8C424.9,286.4,472.4,285.9,472.4,285.9z"/>
		<path class="st22" d="M470,280.4c0,0,4.2,0.2,3.4-3.6c-0.4-1.9-2.3-2-5.1-2c-2.8,0-43.4,0-43.4,0s-2.3,0.9-2.3,2.8
			c0,1.9,0.9,2.3,1.6,2.8C424.9,280.8,470,280.4,470,280.4z"/>
		<path class="st23" d="M470,274.5c0,0,4.2,0.2,3.4-3.6c-0.4-1.9-2.3-2-5.1-2c-2.8,0-43.4,0-43.4,0s-2.3,0.9-2.3,2.8
			c0,1.9,0.9,2.3,1.6,2.8C424.9,275,470,274.5,470,274.5z"/>
		<path class="st24" d="M464,297.4c0,0,4.2,0.2,3.4-3.6c-0.4-1.9-2.3-2-5.1-2c-2.8,0-43.4,0-43.4,0s-2.3,0.9-2.3,2.8
			c0,1.9,0.9,2.3,1.6,2.8C419,297.8,464,297.4,464,297.4z"/>
		<path class="st24" d="M466.7,268.7c0,0,4.2,0.2,3.4-3.6c-0.4-1.9-2.3-2-5.1-2c-2.8,0-43.4,0-43.4,0s-2.3,0.9-2.3,2.8
			c0,1.9,0.9,2.3,1.6,2.8C421.6,269.2,466.7,268.7,466.7,268.7z"/>
		<path class="st14" d="M466.7,291.5c0,0,4.2,0.2,3.4-3.6c-0.4-1.9-2.3-2-5.1-2c-2.8,0-43.4,0-43.4,0s-2.3,0.9-2.3,2.8
			c0,1.9,0.9,2.3,1.6,2.8C421.6,292,466.7,291.5,466.7,291.5z"/>
	</g>
	<g>
		<path class="st1" d="M412.9,314.4c0,0,1.7-1.5,0.9-2.9c-0.9-1.4-2.3-1.6-5-1.6c-2.7,0-41.9,0-41.9,0s-2.2,0.7-2.2,2.3
			c0,1.5,0.9,1.9,1.6,2.3C366.9,314.8,412.9,314.4,412.9,314.4z"/>
		<path class="st1" d="M410.5,309.8c0,0,4.1,0.2,3.2-2.9c-0.4-1.6-2.3-1.6-5-1.6c-2.7,0-41.9,0-41.9,0s-2.2,0.7-2.2,2.3
			s0.9,1.9,1.6,2.3C366.9,310.2,410.5,309.8,410.5,309.8z"/>
		<path class="st25" d="M410.5,305.1c0,0,4.1,0.2,3.2-2.9c-0.4-1.6-2.3-1.6-5-1.6c-2.7,0-41.9,0-41.9,0s-2.2,0.7-2.2,2.3
			c0,1.5,0.9,1.9,1.6,2.3C366.9,305.5,410.5,305.1,410.5,305.1z"/>
		<path class="st1" d="M407.9,300.5c0,0,4.1,0.2,3.2-2.9c-0.4-1.6-2.3-1.6-5-1.6c-2.7,0-41.9,0-41.9,0s-2.2,0.7-2.2,2.3
			s0.9,1.9,1.6,2.3C364.4,300.8,407.9,300.5,407.9,300.5z"/>
		<path class="st3" d="M410.5,295.8c0,0,4.1,0.2,3.2-2.9c-0.4-1.6-2.3-1.6-5-1.6c-2.7,0-41.9,0-41.9,0s-2.2,0.7-2.2,2.3
			c0,1.5,0.9,1.9,1.6,2.3C366.9,296.2,410.5,295.8,410.5,295.8z"/>
		<path class="st1" d="M410.5,291.1c0,0,4.1,0.2,3.2-2.9c-0.4-1.6-2.3-1.6-5-1.6c-2.7,0-41.9,0-41.9,0s-2.2,0.7-2.2,2.3
			c0,1.5,0.9,1.9,1.6,2.3C366.9,291.4,410.5,291.1,410.5,291.1z"/>
		<path class="st3" d="M407.9,286.5c0,0,4.1,0.2,3.2-2.9c-0.4-1.6-2.3-1.6-5-1.6c-2.7,0-41.9,0-41.9,0s-2.2,0.7-2.2,2.3
			c0,1.5,0.9,1.9,1.6,2.3C364.4,286.9,407.9,286.5,407.9,286.5z"/>
		<path class="st25" d="M410.5,281.8c0,0,4.1,0.2,3.2-2.9c-0.4-1.6-2.3-1.6-5-1.6c-2.7,0-41.9,0-41.9,0s-2.2,0.7-2.2,2.3
			c0,1.5,0.9,1.9,1.6,2.3C366.9,282.1,410.5,281.8,410.5,281.8z"/>
	</g>
	<g>
		<path class="st1" d="M472.6,183.7c0,0,1.5-1.1,0.8-2c-0.8-1-2-1.1-4.3-1.1s-36.4,0-36.4,0s-1.9,0.5-1.9,1.6c0,1.1,0.8,1.3,1.4,1.6
			C432.7,183.9,472.6,183.7,472.6,183.7z"/>
		<path class="st1" d="M470.5,180.6c0,0,3.5,0.1,2.8-2c-0.4-1.1-2-1.1-4.3-1.1s-36.4,0-36.4,0s-1.9,0.5-1.9,1.6
			c0,1.1,0.8,1.3,1.4,1.6C432.7,180.8,470.5,180.6,470.5,180.6z"/>
		<path class="st25" d="M470.5,177.3c0,0,3.5,0.1,2.8-2c-0.4-1.1-2-1.1-4.3-1.1s-36.4,0-36.4,0s-1.9,0.5-1.9,1.6
			c0,1.1,0.8,1.3,1.4,1.6C432.7,177.5,470.5,177.3,470.5,177.3z"/>
		<path class="st1" d="M468.3,174.1c0,0,3.5,0.1,2.8-2c-0.4-1.1-2-1.1-4.3-1.1c-2.3,0-36.4,0-36.4,0s-1.9,0.5-1.9,1.6
			c0,1.1,0.8,1.3,1.4,1.6C430.5,174.3,468.3,174.1,468.3,174.1z"/>
		<path class="st3" d="M470.5,170.9c0,0,3.5,0.1,2.8-2c-0.4-1.1-2-1.1-4.3-1.1s-36.4,0-36.4,0s-1.9,0.5-1.9,1.6
			c0,1.1,0.8,1.3,1.4,1.6C432.7,171.1,470.5,170.9,470.5,170.9z"/>
		<path class="st1" d="M470.5,167.6c0,0,3.5,0.1,2.8-2c-0.4-1.1-2-1.1-4.3-1.1s-36.4,0-36.4,0s-1.9,0.5-1.9,1.6
			c0,1.1,0.8,1.3,1.4,1.6C432.7,167.9,470.5,167.6,470.5,167.6z"/>
		<path class="st3" d="M468.3,164.5c0,0,3.5,0.1,2.8-2c-0.4-1.1-2-1.1-4.3-1.1c-2.3,0-36.4,0-36.4,0s-1.9,0.5-1.9,1.6
			c0,1.1,0.8,1.3,1.4,1.6C430.5,164.7,468.3,164.5,468.3,164.5z"/>
		<path class="st25" d="M470.5,161.2c0,0,3.5,0.1,2.8-2c-0.4-1.1-2-1.1-4.3-1.1s-36.4,0-36.4,0s-1.9,0.5-1.9,1.6
			c0,1.1,0.8,1.3,1.4,1.6C432.7,161.5,470.5,161.2,470.5,161.2z"/>
	</g>
	<path class="st6" d="M973.6,326.6L973.6,326.6c1.5,0,2.7-1.2,2.7-2.7V304c0-1.5-1.2-2.7-2.7-2.7l0,0c-1.5,0-2.7,1.2-2.7,2.7v19.9
		C970.9,325.3,972.1,326.6,973.6,326.6z"/>
	<path class="st6" d="M266.7,301.3c1.5,0,2.7,1.2,2.7,2.7v19.9c0,1.5-1.2,2.7-2.7,2.7c-1.5,0-2.7-1.2-2.7-2.7V304
		C264,302.5,265.3,301.3,266.7,301.3z"/>
	<g>
		<path class="st1" d="M418.1,371.2l2.7-22.6h7c0.3-1.5,0.7-3.5,1.5-5.6c2.1-5.2,5.4-7.9,9.6-7.8c4.2,0.1,7.6,2.7,10.1,7.4
			c1.2,2.4,1.9,4.8,2.2,6h9.7l-11.5,30.6h-24.4C420.9,379.2,417.6,375.5,418.1,371.2z M449.5,348.7c-0.8-3.2-3.6-11.5-10.6-11.7
			c-6.4-0.2-8.6,7.7-9.4,11.7H449.5z"/>
		<path class="st2" d="M461,348.7c0,0-0.3,9.2-12.5,9.6c-12.2,0.4-24.6-9.6-24.6-9.6H461z"/>
		<path class="st2" d="M430.8,348.7c0.3-1.5,0.7-3.5,1.5-5.6c2.1-5.2,5.4-7.9,9.6-7.8c4.2,0.1,7.6,2.7,10.1,7.4
			c1.2,2.4,1.9,4.8,2.2,6h6.8l6.7,21.1c1.5,4.7-2,9.4-6.9,9.4h-22.5c-4.3,0-8-3-9-7.2l-5.3-23.4H430.8z M452.5,348.7
			c-0.8-3.2-3.6-11.5-10.6-11.7c-6.4-0.2-8.6,7.7-9.4,11.7H452.5z"/>
	</g>
	<g>
		<path class="st22" d="M374,371.2l2.7-22.6h7c0.3-1.5,0.7-3.5,1.5-5.6c2.1-5.2,5.4-7.9,9.6-7.8c4.2,0.1,7.6,2.7,10.1,7.4
			c1.2,2.4,1.9,4.8,2.2,6h9.7l-11.5,30.6h-24.4C376.8,379.2,373.5,375.5,374,371.2z M405.4,348.7c-0.8-3.2-3.6-11.5-10.6-11.7
			c-6.4-0.2-8.6,7.7-9.4,11.7H405.4z"/>
		<path class="st13" d="M386.7,348.7c0.3-1.5,0.7-3.5,1.5-5.6c2.1-5.2,5.4-7.9,9.6-7.8c4.2,0.1,7.6,2.7,10.1,7.4
			c1.2,2.4,1.9,4.8,2.2,6h6.8l6.7,21.1c1.5,4.7-2,9.4-6.9,9.4h-22.5c-4.3,0-8-3-9-7.2l-5.3-23.4H386.7z M408.4,348.7
			c-0.8-3.2-3.6-11.5-10.6-11.7c-6.4-0.2-8.6,7.7-9.4,11.7H408.4z"/>
	</g>
	<g>
		<path class="st26" d="M598,285.5c-2.3,10.5-23.2,35.3-23.3,35.3c-0.2,0.1-0.5,0.2-0.8,0.3c0,0,0,0,0,0c-1.7,0.3-5.1,0.2-7,1.7
			c-2.3,1.9-8.1,2.5-9.8,1.1c-1.8-1.4,0.6-3.9,3.1-7.6c2.5-3.7,7.5-2.6,9-2.4c0.9,0.1,1.7-0.7,2.2-1.4c0,0,0,0,0,0
			c0.1-0.1,0.2-0.3,0.2-0.4c2.1-6.2,6.9-15.1,11.8-25.6c1-2.1,0.8-4.6-0.4-6.5c-3.3-5.3-10-16.2-14.3-25c-0.5-2.5-1-4.9-1.4-6.7
			c9.5-1.5,13.4-7.3,14.6-9.7C586.5,247.2,600.3,275.1,598,285.5z"/>
		<path class="st26" d="M487.5,276.6c-10.2,3.2-42.2-2.7-42.2-2.7c-0.2-0.1-0.4-0.3-0.6-0.6c0,0,0,0,0,0c-1.1-1.4-2.7-4.3-5-5.2
			c-2.8-1-6.2-5.8-5.8-8c0.4-2.2,3.7-1.4,8.1-1.1c4.4,0.3,6,5.2,6.5,6.6c0.3,0.9,1.4,1.1,2.3,1.2c0,0,0,0,0,0c0.2,0,0.3,0,0.4,0
			c6.4-1.2,16.5-1.5,28.1-2.4c2.3-0.2,4.4-1.5,5.5-3.6c2.9-5.5,9.1-16.7,14.6-24.8c2-1.7,3.8-3.3,5.2-4.5c6,7.5,12.9,8,15.7,7.9
			C514.9,247.6,497.5,273.4,487.5,276.6z"/>
		<path class="st26" d="M550.3,218.5c-1.3-0.7-2-6.5-2.3-10.6c0-0.2,0-0.4,0-0.5l0-0.5c0-0.2,0-0.5,0-0.7l0-0.2l-0.4,0
			c0,0,0.1-0.1,0.1-0.1c4.7-4.5,0.9-7.2,2.8-20.9c0.8-6.2-5.4-9-17.9-7.9c-6.8,0.6-10,2.3-10.8,6.1c-0.6,3.2,0.7,6.6,0.9,12.1
			c0.1,4.7,0,7.9,2.4,10c1.8,1.6,3.5,2.8,5,3.7c-0.2,4.6-0.1,8.8-1.8,9.3c-0.1,0-5.6,0.8-5.6,0.8l18.1,12.9c0,0,17.1-9,19-10.3
			C556.1,218.8,551.1,218.9,550.3,218.5z"/>
		<path class="st27" d="M558,176.8c-1.7-2.5-4-4.2-6.5-5.3c3.4-2.2,2.4-5.3,2.3-8.7c-0.2-3.9-4-5.6-4-5.6c1.7,0.3,3.1,1.4,3.1,1.4
			c-1.4-2.7-5.2-4.1-11.7-3.8c-6.5,0.3-9.1,5-9.1,5c0-1.9,2.9-5,2.9-5s-7.8,3.5-8.6,10.6c-0.3,2.5,0.9,4.2,2.5,5.4
			c-4,1.2-8.7,3.6-9.7,8.8c-1.9,9.6,4.8,13.6,5.6,15.6c0,0,1.4,0.9,2.3-1.8c0.9-2.7,3.9-0.9,2.5,1.9c-1.4,2.8-0.9,7.1,2.8,10
			c3.7,2.9,11.7,2.4,12.4,3.8c0,0,3.2-3.6,6-5.7C556.5,199.4,564.8,186.6,558,176.8z"/>
		<path class="st26" d="M531.2,505c-0.1,1.4,0.1,2.7,0.7,4c8.2,17.4,0.9,17.4,0.9,17.4s-6.2,0-12.7,0c-5.9,0-3-7.7-1.9-11
			c0.7-2.1,1.6-4.8,2.1-6.4c0.4-1.1,0.5-2.2,0.3-3.4c-0.8-4.6-1.5-8.9-2.1-13c-7.5-48.5-3.5-56.1-3.1-61.4
			c0.4-5.8-13.7-81.6-13.3-86.2c0.4-4.6,7.4-30.9,7.4-30.9c12.5,1.7,37.1,29,37.1,29s-10.8,81-9.7,91.2c0.8,7-2.3,39-4.4,58.2
			C532,498,531.5,502.5,531.2,505z"/>
		<path class="st26" d="M632.8,526.3H597c0,0-3.1-2.4-1.7-8.1c0.6-2.5,0.7-5.2,0.6-7.4c-0.1-2.8-1-5.6-2.4-8
			c-1.7-3-4.4-7.9-7.4-14.2c-6.2-13.2-13.1-32.1-12.7-49.6c0,0-25.2-57.3-27.6-75.9c-2.4-18.6,31.5-33.7,31.5-33.7
			c0.2,1.4,10.4,45.1,15.6,102.4c0.7,7.7,5.6,35.4,9.1,54.9c1.4,7.6,2.5,13.9,3.2,17.4c0.4,2,1.3,3.8,2.6,5.2
			c3.5,3.8,10.6,11.1,13.1,12C624.3,522.5,632.8,522.4,632.8,526.3z"/>
		<path class="st28" d="M586.3,365.2c-2.6,0.8-5.3,1.4-8,2c-16.3,3.5-32.6,3.4-32.6,3.4l-0.5-6.6c0,0,0,0,0-0.1
			c0-0.1-0.1-0.2-0.2-0.3c-0.2-0.1-0.4,0-0.5,0.1c0,0.1-0.1,0.1-0.1,0.2l-0.5,6.6c-3.5,0.4-6.8,0.6-9.8,0.6c-1.1,0-2.1,0-3.1,0
			c-1.9-0.1-3.7-0.2-5.4-0.3c-5.1-0.5-9.4-1.5-12.8-2.5c-6.3-1.9-9.5-4.1-9.5-4.1c-0.1-0.8-0.3-1.6-0.4-2.5
			c-1-7.5-1.3-19.2-0.7-23.5c0.3-2.4,1.1-5.6,2.1-8.8c2.2-7.5,5.4-15.5,5.4-15.5c14.7,4.7,66.2-0.7,66.2-0.7L586.3,365.2z"/>
		<path class="st29" d="M532.8,526.3c0,0-6.2,0-12.7,0c-5.9,0-3-7.7-1.9-11c0.7-2.1,1.6-4.8,2.1-6.4c0.4-1.1,0.5-2.2,0.3-3.4
			c-0.8-4.6-1.5-8.9-2.1-13c2.7,0.5,7.6,1,14.1-0.1c-0.6,5.6-1.1,10.1-1.4,12.6c-0.1,1.4,0.1,2.7,0.7,4
			C540.1,526.4,532.8,526.3,532.8,526.3z"/>
		<path class="st29" d="M632.8,526.3H597c0,0-3.1-2.4-1.7-8.1c0.6-2.5,0.7-5.2,0.6-7.4c-0.1-2.8-1-5.6-2.4-8
			c-1.7-3-4.4-7.9-7.4-14.2c3.3,0.5,8.9,0.7,15.8-1.9c1.4,7.6,2.5,13.9,3.2,17.4c0.4,2,1.3,3.8,2.6,5.2c3.5,3.8,10.6,11.1,13.1,12
			C624.3,522.5,632.8,522.4,632.8,526.3z"/>
		<path class="st30" d="M507.5,315.2c0,0,12,15,34.5,12.8c22.5-2.2,34.4-11.3,34.4-11.3L507.5,315.2z"/>
		<path class="st29" d="M569.6,253c0-0.1,0-0.2,0-0.2c9.5-2.1,13.6-11.7,13.6-11.7c-3.1-6.4-10.3-14.7-13.2-17.8
			c-0.3-0.6-0.7-1.1-1.2-1.3c-5.4-2.9-39.8-8.9-61.9,2.1c0,0-8,7.5-11.8,17.3c0,0,1,2.1,3.3,4.6c2.5,2.8,6.5,5.9,12.3,6.9
			c1.5,5.7,8.4,31.8,7.7,35.6c-0.9,4.3-12.7,19.1-11,26.8c0.8,3.7,21.4,9,44.7,6.8c8-0.8,16.3-2.4,24.2-5.3c1.7-0.6,1.5-4.1,0.9-5.8
			c-1.2-3.3-4.8-9.6-10.7-23.1C565.8,285.9,568,264,569.6,253C569.6,253,569.6,253,569.6,253z"/>
		<path class="st30" d="M544.5,363.7c0,0.1-0.1,0.1-0.1,0.2l-0.5,6.6c-3.5,0.4-6.8,0.6-9.8,0.6c-1.1,0-2.1,0-3.1,0
			C534,366.5,542.3,364.3,544.5,363.7z"/>
		<g>
			<path class="st31" d="M518.5,288.4c-0.9,4.3-12.7,19.1-11,26.8c0.8,3.7,21.4,9,44.7,6.8C519.3,321.5,518.5,288.4,518.5,288.4z"/>
			<path class="st31" d="M507.4,241.5c-2.2-0.5-6.2,2.2-8.8,4.4c2.5,2.8,6.6,5.9,12.4,6.9C510.9,251.1,510.6,242.3,507.4,241.5z"/>
			<path class="st31" d="M569.6,253c0,0-7.1-1.4-9.9,6.8c-2.8,8.2,5.1,26.8,6.9,28.1C565.8,285.9,568,264,569.6,253
				C569.6,253,569.6,253,569.6,253z"/>
		</g>
	</g>
	<path class="st32" d="M713.2,189.6c-3.4-2.2-8.4-5.1-14.2-7.6c-2.7-1.2-5.5-2.3-8.5-3.2c-5.2-1.7-10.9-2.8-16.7-3h0V162
		c0-1.5-0.7-4.4-3.5-4.5c-1.3-0.1-2.2-0.8-2.8-1.4c-0.8-0.9-1.2-2.1-1.1-3.1c0.3-3,2.2-4.8,5.1-4.8c0.8,0,1.5,0.4,2,0.9h2.6
		c-1.3-2.5-3.1-3-4.6-3c-4,0-6.9,2.6-7.2,6.7c-0.1,1.6,0.5,3.4,1.6,4.7c1.1,1.3,2.6,2.1,4.2,2.2c1.4,0.1,1.5,2.3,1.5,2.4v13.9
		c-6.4,0.1-12.8,1.5-18.6,3.4c-2.7,0.9-5.3,1.9-7.7,3c-5,2.2-9.2,4.6-12.3,6.5c-1.6,1-2.3,2.8-1.8,4.6c0.5,1.8,2.1,3,3.9,3h75.9
		c1.6,0,3-1,3.4-2.6C715.1,192.1,714.5,190.5,713.2,189.6z M711.6,192.7c-0.1,0.2-0.3,0.2-0.3,0.2h-75.9c-0.6,0-0.7-0.4-0.8-0.6
		c-0.1-0.2-0.1-0.6,0.4-0.9c3-1.8,7.1-4.2,11.9-6.3c2.4-1.1,4.9-2.1,7.6-2.9c5.6-1.9,11.8-3.2,17.9-3.2c0.2,0,0.4,0,0.6,0
		c5.7,0.1,11.3,1.2,16.5,2.8c3.3,1,6.4,2.3,9.2,3.6c5.2,2.3,9.6,4.9,12.7,6.9C711.5,192.4,711.6,192.5,711.6,192.7z"/>
	<path class="st1" d="M717.2,310.8c0,0-5,5.5-12.7,2.9c-7.7-2.6-15.7,0-17.3,1c-9.1,5.7-19,10.4-23.2,3.2c-2.8-4.8-11.5,1-29.6-2.8
		c0,0,18.4-62.4,18.8-73.3c0.4-10.8-12.3-23.6-6.3-45.2c0,0,0-0.1,0.1-0.4c0.1-0.6,0.2-1.8,0.3-3.2c0.2-2.3,0.2-5.4-0.4-7.8
		c-0.3-1.2-0.7-2.2-1.4-2.9c2.4-1.1,5-2.1,7.7-3c0.3,0.8,0.8,1.8,1.3,3c1.3,2.9,3.2,6.9,5.3,10.7c0.6,1.1,1.2,2.2,1.9,3.2
		c3.4,5.5,7.3,10.2,10.8,10.7c0,0,4.7-0.6,10.6-10.7c0.6-1,1.2-2.1,1.8-3.2c1.5-3,3.1-6.6,4.7-11.1c0.3-1,0.7-2,1.1-3.1
		c3,0.9,5.8,2,8.5,3.2c0.1,0.2,0.2,0.4,0.3,0.5c0,0-0.3,1.1-0.6,2.9c-0.3,1.9-0.6,4.6-0.6,7.5c0,1.1,0.1,2.2,0.2,3.2
		c0,0.1,0,0.3,0.1,0.4c0,0,2.8,5.4,1.9,15.2c-0.9,9.8-4.8,19.8-4.6,30C696.2,255.5,716.8,294.2,717.2,310.8z M648.6,197.8
		c-0.7-0.4-1.2-0.8-1.5-0.9C647.4,197,647.9,197.3,648.6,197.8z"/>
	<path class="st32" d="M835.1,188.7c-7.8-4.8-23-12.7-38.5-12.9V162c0-0.1,0-2.3,1.5-2.4c1.6-0.1,3.1-0.9,4.2-2.2
		c1.1-1.3,1.8-3.1,1.6-4.7c-0.4-4.1-3.2-6.7-7.2-6.7c-1.4,0-3.2,0.6-4.5,3h2.6c0.5-0.5,1.1-0.9,2-0.9c2.9,0,4.8,1.8,5.1,4.8
		c0.1,1-0.3,2.2-1.1,3.1c-0.5,0.6-1.4,1.3-2.8,1.4c-2.8,0.2-3.5,3-3.5,4.5v13.9c-16.2,0.5-31.6,8.8-39.3,13.8c-1.3,0.9-2,2.5-1.5,4
		c0.4,1.5,1.8,2.6,3.4,2.6h75.9c1.8,0,3.4-1.2,3.9-3C837.4,191.5,836.6,189.7,835.1,188.7z M833.7,192.4c-0.1,0.2-0.2,0.6-0.8,0.6
		H757c-0.1,0-0.2,0-0.3-0.2c-0.1-0.2,0.1-0.3,0.1-0.4c7.6-4.9,22.7-13.1,38.5-13.3c0.2,0,0.4,0,0.6,0c15,0,29.8,7.7,37.5,12.4
		C833.8,191.8,833.8,192.2,833.7,192.4z"/>
	<path class="st2" d="M821.5,181.5c0,0-11.8,10.5-28.9,9.9c-17-0.6-25.1-9.2-25.1-9.2s-13.4,6.8-16.2,10.7c-2.8,3.8-4,43-4,43
		s6.6,2.6,13.4,2.3l2.8-8.3l-8.4,139.4c0,0,10.4,0.4,16.6-3.2c6-3.5,15.1,1.1,23.2,2.2c8.1,1.1,12.7-5.1,20.7-2.5
		c12.4,4,22,1.7,22,1.7l-12.8-138.1l3.5,8.1c0,0,11.9,0,15.7-4.1c0,0-4.5-41.7-7.1-44.3C834.4,186.8,821.5,181.5,821.5,181.5z"/>
	<g>
		<path class="st17" d="M788.9,188.8c3.1-1.9,7.3-4.3,12.3-6.5c2.4-1.1,5-2.1,7.7-3c5.8-1.9,12.2-3.3,18.6-3.4V162
			c0-0.1,0-2.3-1.5-2.4c-1.6-0.1-3.1-0.9-4.2-2.2c-1.1-1.3-1.8-3.1-1.6-4.7c0.4-4.1,3.2-6.7,7.2-6.7c1.6,0,3.9,0.8,5.1,4.4
			c0.7,2,0.8,3.9,0.8,4c0,0.6-0.4,1.1-1,1.1c-0.6,0-1.1-0.4-1.1-1c0-0.1-0.3-6.3-3.8-6.3c-2.9,0-4.8,1.8-5.1,4.8
			c-0.1,1,0.3,2.2,1.1,3.1c0.5,0.6,1.4,1.3,2.8,1.4c2.8,0.2,3.5,3,3.5,4.5v13.9h0c5.8,0.2,11.4,1.3,16.7,3c3,0.9,5.8,2,8.5,3.2
			c5.8,2.5,10.7,5.4,14.2,7.6c1.3,0.9,2,2.5,1.5,4c-0.5,1.5-1.8,2.6-3.4,2.6H791c-1.8,0-3.4-1.2-3.9-3
			C786.6,191.5,787.3,189.7,788.9,188.8z M790.2,192.4c0.1,0.2,0.2,0.6,0.8,0.6h75.9c0.1,0,0.2,0,0.3-0.2c0.1-0.2-0.1-0.3-0.1-0.4
			c-3.1-2-7.5-4.6-12.7-6.9c-2.9-1.3-6-2.5-9.2-3.6c-5.2-1.6-10.8-2.8-16.5-2.8c-0.2,0-0.4,0-0.6,0c-6.1,0-12.3,1.3-17.9,3.2
			c-2.7,0.9-5.2,1.9-7.6,2.9c-4.8,2.1-9,4.4-12,6.3C790.1,191.8,790.1,192.2,790.2,192.4z"/>
		<path class="st14" d="M872.9,339.9c0,0-5,5.5-12.7,2.9s-15.7,0-17.3,1c-9.1,5.7-19,6.2-23.2-1c-2.8-4.8-11.5,5.1-29.6,1.4
			c0,0,18.4-91.5,18.8-102.3c0.4-10.8-12.3-23.6-6.3-45.2c0,0,0-0.1,0.1-0.4c0.1-0.6,0.2-1.8,0.3-3.2c0.2-2.3,0.2-5.4-0.4-7.8
			c-0.3-1.2-0.7-2.2-1.4-2.9c2.4-1.1,5-2.1,7.7-3c0.3,0.8,0.8,1.8,1.3,3c1.3,2.9,3.2,6.9,5.3,10.7c0.6,1.1,1.2,2.2,1.9,3.2
			c3.4,5.5,7.3,10.2,10.8,10.7c0,0,4.7-0.6,10.6-10.7c0.6-1,1.2-2.1,1.8-3.2c1.5-3,3.1-6.6,4.7-11.1c0.4-1,0.7-2,1.1-3.1
			c3,0.9,5.8,2,8.5,3.2c0.1,0.2,0.2,0.4,0.3,0.5c0,0-0.3,1.1-0.6,2.9c-0.3,1.9-0.6,4.6-0.6,7.5c0,1.1,0.1,2.2,0.2,3.2
			c0,0.1,0,0.3,0.1,0.4c0,0,2.8,5.4,1.9,15.2c-0.9,9.8-4.8,19.8-4.6,30C851.9,255.5,872.4,323.3,872.9,339.9z M804.3,197.8
			c-0.7-0.4-1.2-0.8-1.5-0.9C803.1,197.1,803.6,197.4,804.3,197.8z"/>
	</g>
	<g>
		<path class="st17" d="M693.2,191.1c3.4-2.2,8.4-5.1,14.2-7.6c2.7-1.2,5.5-2.3,8.5-3.2c5.2-1.7,10.9-2.8,16.7-3h0v-13.9
			c0-1.5,0.7-4.4,3.5-4.5c1.3-0.1,2.2-0.8,2.8-1.4c0.8-0.9,1.2-2.1,1.1-3.1c-0.3-3-2.2-4.8-5.1-4.8c-3.5,0-3.8,6.2-3.8,6.3
			c0,0.6-0.5,1-1.1,1c-0.6,0-1-0.5-1-1.1c0-0.1,0.1-2,0.8-4c1.3-3.6,3.5-4.4,5.1-4.4c4,0,6.9,2.6,7.2,6.7c0.1,1.6-0.5,3.4-1.6,4.7
			c-1.1,1.3-2.6,2.1-4.2,2.2c-1.4,0.1-1.5,2.3-1.5,2.4v13.9c6.4,0.1,12.8,1.5,18.6,3.4c2.7,0.9,5.3,1.9,7.7,3
			c5,2.2,9.2,4.6,12.3,6.5c1.6,1,2.3,2.8,1.8,4.6c-0.5,1.8-2.1,3-3.9,3h-75.9c-1.6,0-3-1-3.4-2.6C691.3,193.6,691.9,192,693.2,191.1
			z M694.8,194.2c0.1,0.2,0.3,0.2,0.3,0.2h75.9c0.6,0,0.7-0.4,0.8-0.6c0.1-0.2,0.1-0.6-0.4-0.9c-3-1.8-7.1-4.2-11.9-6.3
			c-2.4-1.1-4.9-2.1-7.6-2.9c-5.6-1.9-11.8-3.2-17.9-3.2c-0.2,0-0.4,0-0.6,0c-5.7,0.1-11.3,1.2-16.5,2.8c-3.3,1-6.4,2.3-9.2,3.6
			c-5.2,2.3-9.6,4.9-12.7,6.9C694.9,193.9,694.8,194,694.8,194.2z"/>
		<path class="st16" d="M758.4,194.5c0,0-6,24.3-6.3,26.3h-38.9l-5.7-26.3H758.4z"/>
		<path class="st14" d="M758.4,194.5c0,0,2.6,42,0,67.5c0,0-7.1,1.5-13.4,0l-9.6-67.5H758.4z"/>
		<path class="st14" d="M729,194.5l-2.5,67.5c0,0-8.2,1.8-12.8,0l-6.3-67.5H729z"/>
	</g>
	<path class="st13" d="M811.2,206.1c0,1.7-1.4,3-3,3c-1.7,0-3-1.4-3-3c0-1.7,1.4-3,3-3C809.9,203.1,811.2,204.5,811.2,206.1z"/>
	<circle class="st13" cx="844.6" cy="206" r="1.5"/>
	<circle class="st13" cx="827.4" cy="220.7" r="2.4"/>
	<circle class="st13" cx="845.2" cy="222.4" r="2.2"/>
	<circle class="st13" cx="815.7" cy="231.2" r="2.1"/>
	<path class="st13" d="M852.8,185.6c0,1.1-0.9,1.9-1.9,1.9c-1.1,0-1.9-0.9-1.9-1.9c0-1.1,0.9-1.9,1.9-1.9
		C851.9,183.7,852.8,184.5,852.8,185.6z"/>
	<path class="st13" d="M808.6,189.8c0,0.3-0.3,0.6-0.6,0.6c-0.3,0-0.6-0.3-0.6-0.6c0-0.3,0.3-0.6,0.6-0.6
		C808.3,189.2,808.6,189.5,808.6,189.8z"/>
	<circle class="st13" cx="836.7" cy="242.5" r="2.1"/>
	<circle class="st13" cx="815.1" cy="257.5" r="1.6"/>
	<circle class="st13" cx="841.6" cy="261.7" r="1.8"/>
	<circle class="st13" cx="828.4" cy="254" r="1.3"/>
	<circle class="st13" cx="823.3" cy="237.1" r="1.1"/>
	<path class="st13" d="M860.5,330.4c0,1.2-1,2.2-2.2,2.2c-1.2,0-2.2-1-2.2-2.2c0-1.2,1-2.2,2.2-2.2
		C859.5,328.3,860.5,329.2,860.5,330.4z"/>
	<path class="st13" d="M837.6,324c0,0.8-0.7,1.5-1.5,1.5c-0.8,0-1.5-0.7-1.5-1.5c0-0.8,0.7-1.5,1.5-1.5
		C836.9,322.6,837.6,323.2,837.6,324z"/>
	<path class="st13" d="M857.2,305.8c0,1.2-1,2.2-2.2,2.2c-1.2,0-2.2-1-2.2-2.2c0-1.2,1-2.2,2.2-2.2
		C856.2,303.5,857.2,304.5,857.2,305.8z"/>
	<circle class="st13" cx="836.3" cy="295" r="1.7"/>
	<path class="st13" d="M821,280c0,0.9-0.7,1.6-1.6,1.6c-0.9,0-1.6-0.7-1.6-1.6c0-0.9,0.7-1.6,1.6-1.6C820.2,278.4,821,279.1,821,280
		z"/>
	<path class="st13" d="M850.2,278.5c0,1.7-1.4,3.1-3.1,3.1c-1.7,0-3.1-1.4-3.1-3.1c0-1.7,1.4-3.1,3.1-3.1
		C848.8,275.4,850.2,276.8,850.2,278.5z"/>
	<path class="st13" d="M833.4,272.2c0,1-0.8,1.8-1.8,1.8c-1,0-1.8-0.8-1.8-1.8c0-1,0.8-1.8,1.8-1.8
		C832.6,270.4,833.4,271.2,833.4,272.2z"/>
	<path class="st13" d="M805.2,334.4c0,1-0.8,1.8-1.8,1.8c-1,0-1.8-0.8-1.8-1.8c0-1,0.8-1.8,1.8-1.8
		C804.4,332.6,805.2,333.4,805.2,334.4z"/>
	<circle class="st13" cx="815.1" cy="313.4" r="1.6"/>
	<circle class="st13" cx="811.2" cy="295" r="1.7"/>
	<path class="st13" d="M833.9,308.3c0,0.7-0.6,1.2-1.2,1.2c-0.7,0-1.2-0.6-1.2-1.2c0-0.7,0.6-1.2,1.2-1.2
		C833.4,307.1,833.9,307.6,833.9,308.3z"/>
	<circle class="st13" cx="830.4" cy="343.1" r="1.2"/>
	<path class="st13" d="M822.9,327.6c0,1.4-1.2,2.6-2.6,2.6c-1.4,0-2.6-1.2-2.6-2.6c0-1.4,1.2-2.6,2.6-2.6
		C821.7,325,822.9,326.1,822.9,327.6z"/>
	<g>
		<path class="st11" d="M986.9,461.4h-19.1c-7,0-12.7-5.7-12.7-12.7v-68.4c0-7,5.7-12.7,12.7-12.7h19.1c7,0,12.7,5.7,12.7,12.7v68.4
			C999.6,455.6,993.9,461.4,986.9,461.4z M967.8,370.9c-5.2,0-9.3,4.2-9.3,9.3v68.4c0,5.2,4.2,9.3,9.3,9.3h19.1
			c5.2,0,9.3-4.2,9.3-9.3v-68.4c0-5.2-4.2-9.3-9.3-9.3H967.8z"/>
		<g>
			<path class="st11" d="M990.8,514.4h-2.9c-3.3,0-6,2.7-6,6c0,3.3,2.7,6,6,6h2.9c3.3,0,6-2.7,6-6
				C996.7,517,994.1,514.4,990.8,514.4z"/>
			<path class="st9" d="M996.7,520.3c0,3.3-2.7,6-6,6c-3.3,0-6-2.7-6-6c0-3.3,2.7-6,6-6C994.1,514.4,996.7,517,996.7,520.3z"/>
		</g>
		<g>
			<path class="st11" d="M949.7,514.4h-2.9c-3.3,0-6,2.7-6,6c0,3.3,2.7,6,6,6h2.9c3.3,0,6-2.7,6-6C955.7,517,953,514.4,949.7,514.4z
				"/>
			<path class="st9" d="M955.7,520.3c0,3.3-2.7,6-6,6s-6-2.7-6-6c0-3.3,2.7-6,6-6S955.7,517,955.7,520.3z"/>
		</g>
		<path class="st11" d="M980.1,516.6L980.1,516.6c-21.2,0-38.4-17.2-38.4-38.4v-33.6c0-21.2,17.2-38.4,38.4-38.4h0
			c21.2,0,38.4,17.2,38.4,38.4v33.6C1018.5,499.4,1001.3,516.6,980.1,516.6z"/>
		<path class="st9" d="M964,516.6L964,516.6c-21.2,0-38.4-17.2-38.4-38.4v-33.6c0-21.2,17.2-38.4,38.4-38.4h0
			c21.2,0,38.4,17.2,38.4,38.4v33.6C1002.4,499.4,985.2,516.6,964,516.6z"/>
		<g class="st33">
			<path class="st11" d="M968.1,500.4h-36.5c-1.9,0-3.7,0.3-5.4,0.7c2.1,8.8,10.1,15.4,19.6,15.4h36.5c1.9,0,3.7-0.3,5.4-0.7
				C985.5,507,977.6,500.4,968.1,500.4z"/>
		</g>
		<path class="st11" d="M991.6,407.3h1.8v-1.1h-37C948,409,942,416.9,942,426.3v70.1c0,9.3,6.1,17.3,14.4,20.1h37v-1.1h-1.8
			c-10.5,0-19-8.5-19-19v-70.1C972.6,415.8,981.1,407.3,991.6,407.3z M982,515.4h-18.8c-10.5,0-19-8.5-19-19v-70.1
			c0-10.5,8.5-19,19-19H982c-7,3.5-11.7,10.7-11.7,19v70.1C970.3,504.7,975.1,511.9,982,515.4z"/>
	</g>
	<g>
		<path class="st34" d="M316.4,521.5c0,0-13-14.8-16.6-21.6l-10.1-18.6l-13.2,3.3l16.8,23.7l17.5,14.8L316.4,521.5z"/>
		<path class="st35" d="M232.9,157.7c-3-1.7-6.7-1.9-9.2-1.8c0.7-0.7,1.9-0.9,1.9-0.9c-1.6-0.2-5.1,1.3-5.1,1.3
			c-22-8.5-25.5,23.9-25,31.5c0.5,7.5-7.4,10-18.8,15.9c-21.9,11.3-23.8,26.5-23.8,26.5c0.2,0.1,0.3,0.2,0.5,0.3
			c1.1-1.8,3.3-5.3,5.2-5.8c-0.1,0.2-2.2,4.7-3,7.4c6.4,4.9,18.5,15.8,26.9,23.5c0-1.5,0-3.6,0.6-4.8l1,6.3c4.5,4.1,7.6,7,7.6,7
			c-0.6-6.1,27.5-38.2,42.2-47.8c3.6-5.2,4.8-14.5,4.9-15.3c-0.6,7.4-1.9,11.5-3,13.8C248.2,203.4,241,162.3,232.9,157.7z"/>
		<path class="st36" d="M233,216.8c0.1,0-7.1,3.7-12.4,2.3c-5.1-1.4-8.4-7.9-8.3-7.9c2.1-0.4,2.8-3.4,2.7-16l1,0.2l16.3,3.2
			c0,0-0.4,5.1-0.4,9.9C231.8,212.5,232.1,216.4,233,216.8z"/>
		<path class="st8" d="M214.6,163c0,0,8-8.5,18.1-0.4C232.7,162.6,226.8,161.6,214.6,163z"/>
		<path class="st35" d="M214.3,193.5c0,0-4.8-7.5-5.9-14c-0.8-4.6,1.5-21.7,18.7-19.2c0,0,5,0.5,9.7,3.7c3.7,2.5,9.1,7.9,3.1,22.8
			l-1.6,5L214.3,193.5z"/>
		<path class="st37" d="M297.1,493.5l-8.6,0.3l-9.3,0.3c0,0-21.6-24-33.7-62.5c-0.3-0.9-0.6-1.8-0.9-2.7
			c-6.6-19.3-20.3-43.5-27.6-65.5c-1.2-3.5-2.2-6.8-3.1-9.9c-0.3-1-0.6-2-0.9-2.9c-5.3-18.5-6.9-30.7-8.3-43.7l52.2,0.4
			C256.9,307.2,265.4,395.9,297.1,493.5z"/>
		<path class="st9" d="M253.3,312.7c0,0-22.4,11.4-48.9,3c-0.3-0.1,1.8-102.7,9.3-105.6c1.7,2.2,6.9,4.3,11.5,4.2
			c5.3-0.1,7-2.4,6.7-4.9c5.6,3.1,10.1,6.1,10.1,6.1C246.8,224,253.3,312.7,253.3,312.7z"/>
		<path class="st38" d="M204.7,280c-2.3,3.2-6.7,22.9-17.6,25.3c5.6-14,9.9-20.1,10.5-24.4c1.2-8,1.3-16.3,0.6-24.2
			c3.6-6.4,6.4-10.8,6.4-10.8c0.3-1,5.8-18.1,7.6-2.8C214,258.3,207.2,276.4,204.7,280z"/>
		<path class="st39" d="M235.3,203.1c0,0-21.5,0.4-21.6-13.1c0-13.4-2.8-22.4,11-23.2c13.8-0.8,16.4,4.3,17.5,8.8
			C243.3,180.1,240.9,202.6,235.3,203.1z"/>
		<path class="st35" d="M234.5,166.5c0,0-5.9,15.7-15,18.1c-9.1,2.3-13-0.1-13-0.1s6.9-5.5,8.4-15.1
			C214.9,169.3,230,159,234.5,166.5z"/>
		<path class="st35" d="M233,167.8c0,0,4.4,3.5,5.5,6.9c1.1,3.4,1.6,10.5,3.6,10.2c0,0,4.4-10.7-0.6-16.8
			C236.2,161.7,233,167.8,233,167.8z"/>
		<path class="st34" d="M219.1,519.3c-0.7-4-2.1-11-2.1-11l0.3-24.7h-15l5.6,23.7c0.1,1.1,0.4,5.4-1.2,9.9c0,0-1.4,6.6,5,6.7
			C218.3,524,219.8,523.4,219.1,519.3z"/>
		<path class="st30" d="M219.7,527.1h-13.5c-0.7-3.5,0.5-9.9,0.5-9.9c7.3,7.1,11.9-0.2,11.9-0.2C219.8,519.8,219.7,526,219.7,527.1z
			"/>
		<path class="st30" d="M322.7,527.1H306c-1.4-1.3-2.8-4-4.5-7.4c-1-2-3.2-3.1-5.4-3.7v11.1h-3.4l-3.2-11.8c-2.1-4-0.5-7.6,1-10.7
			c1.7,0,6.7,1.2,15.5,11.4c2.9,3.3,6.1,4.5,9.3,4.4c0,0,0.1,0.1,0.1,0.1C320.4,522.7,322.1,525.5,322.7,527.1z"/>
		<path class="st21" d="M322,225.4c0,0-14.1,7.9-19.2,10.2c-2.9,1.3-9.5,4.4-14.2,6.6c-3,1.4-6.5,0.6-8.6-1.9
			c-7.7-9-27.6-28.4-48.1-30.8c0,0,12.5,30.8,12.8,37c0.4,6.2,1.5,101.9,1.5,101.9s-0.7,4.4,7.7,2.6c8.4-1.8,10.6-3.7,10.6-3.7
			s-8.1-59-5.9-79.6c0.4-4,0-8.6-0.9-13.3c12.5,7.6,27.3,11,27.3,11s11-4.8,26.2-15.9c4.7-3.5,13.1-16.7,13.1-16.7L322,225.4z"/>
		<path class="st38" d="M288.5,493.7l-9.3,0.3c0,0-21.6-24-33.7-62.5c-0.3-0.9-0.6-1.8-0.9-2.7c-6.6-19.3-20.3-43.5-27.6-65.5
			c-1.2-3.5-2.2-6.8-3.1-9.9c-0.3-1-0.6-2-0.9-2.9l7.7-5.8c0,0,23.1,37.4,30.2,72.6C257.1,447.8,282,484.6,288.5,493.7z"/>
		<path class="st37" d="M221.5,420.5c0.1,17.1-0.7,56.5-3,72.8h-8.3c-4.6,0-6.9-0.1-6.9-0.1c-5.6-28.3-9.6-51.8-12.5-72
			c-2.4-16.6-4.5-30.8-6.1-43c-1.6-12.3-2.8-22.6-3.2-31.3c-0.1-1.4-0.1-2.7-0.1-4c0-1.3,0-2.6,0-3.8l45.1-4.4
			C226.1,364.7,221.4,410.6,221.5,420.5z"/>
		<path class="st38" d="M210.3,493.3c-4.6,0-6.9-0.1-6.9-0.1c-5.6-28.3-9.6-51.8-12.5-72c-2.4-16.6-4.5-30.8-6.1-43
			c-1.6-12.3-2.8-22.6-3.2-31.3l16.6,9.7c0,0-10.6,3.7-6.5,32C195.7,416.8,204.6,489.3,210.3,493.3z"/>
		<path class="st21" d="M212.4,346.6c0,0-3.2,11.5-14.2,10c-11-1.5-26.6-8.1-26.6-8.1s4.7-14.9,10.5-34.4c0.1-0.2,0.1-0.4,0.2-0.6
			c6.9-23,15.3-52.4,19.5-71.5c0.1-0.4,0.2-0.8,0.3-1.2c1.2-5.4,2-9.9,2.2-13.1l9.3-17.7c0,0,13.4,30.5,14.2,38.2
			C228.5,256.1,212.4,346.6,212.4,346.6z"/>
		<path class="st39" d="M201.4,247.2l12.2-37.1c0,0-15.4,4.5-23,8.4c0,0-4.8,6.2-7.7,20.3c0,0-3.1,34.1,3.8,46.5
			c0,0,22,4.4,57.2-7.7v-8.1c0,0-38.5,2-46.4,2.9L201.4,247.2z"/>
		<path class="st8" d="M210.8,264.5c-0.5,12.3-3.3,36-28.5,49.1c6.9-23,15.3-52.4,19.5-71.5C206.4,249.2,211.1,258,210.8,264.5z"/>
		<path class="st21" d="M213.6,210.2c0,0-22.5,1.6-27.9,13.5c-5.4,12-7.1,51.8-0.2,63.5c0,0,9.4,2.7,26.1-0.4c0.2,0,0.4-0.1,0.6-0.1
			c0,0,5.3-13,0.5-15.6c0,0-14.1,0.7-12.6-3.9C201.6,262.6,213.6,210.2,213.6,210.2z"/>
		<path class="st3" d="M332.9,226c0,0-7.2,128.6-10.2,152.4c0,0-9.7,4.7-18.2,2.1l-10.8-94.4l-10.7,95.2c0,0-13.8,4.1-24.3-1.9
			l-5.6-118.8l10.2-1.7c20.4-3.5,39.8-11.6,56.6-23.7L332.9,226z"/>
		<path class="st39" d="M322,225.4c0,0,3-10.9,15.1-9.4c1.4,0.4,5.4,2,2.8,6.4c-1.9,3.2-2.7,1.5-5.7,5.8c-3,4.3-6.2,5.2-9.9,4.7
			L322,225.4z"/>
		<path class="st39" d="M240,271.8c0,0,3.1-3.7,3.7-7.5c0.7-3.8,2.7-6.6,8-7.3c5.3-0.7,7.6-0.8,7.6,0.7c0,1.5-4.3,11.9-11.9,18.1
			C239.7,282,240,271.8,240,271.8z"/>
	</g>
	<g>
		<path class="st24" d="M870,526.5h55.6c14.6,0,25.3-13.8,21.6-28L939,467c-0.7-2.7-3.1-4.6-5.9-4.6h-97l12.3,47.4
			C850.9,519.6,859.8,526.5,870,526.5z"/>
		<path class="st13" d="M889.1,526.5h-55.6c-14.6,0-25.3-13.8-21.6-28l8.2-31.6c0.7-2.7,3.1-4.6,5.9-4.6h89.1c4,0,6.9,3.8,5.9,7.7
			l-10.3,39.7C908.2,519.6,899.3,526.5,889.1,526.5z"/>
		<path class="st22" d="M861.8,462.4v-22.2c0-11.1,9-20.2,20.2-20.2c11.1,0,20.2,9,20.2,20.2v22l-0.1,0.3h4.2v-22.2
			c0-13.4-10.9-24.3-24.3-24.3c-13.4,0-24.3,10.9-24.3,24.3v22l-0.1,0.3H861.8z"/>
		<path class="st14" d="M878.9,527.4c-0.2,0-0.4,0-0.6-0.1c-1.1-0.3-1.7-1.5-1.4-2.6l16.9-62.7v-22c0-11.1-9-20.2-20.2-20.2
			c-11.1,0-20.2,9-20.2,20.2v22.5l-16,62.7c-0.3,1.1-1.4,1.8-2.5,1.5c-1.1-0.3-1.8-1.4-1.5-2.5l15.9-62.2v-22
			c0-13.4,10.9-24.3,24.3-24.3c13.4,0,24.3,10.9,24.3,24.3v22.5l-17.1,63.2C880.7,526.8,879.8,527.4,878.9,527.4z"/>
		<path class="st13" d="M930.9,469.9L930.9,469.9c-1.4,1-3.4,0.6-4.3-0.9l-4.1-6.7h6.3l2.7,3.2C932.6,466.9,932.3,468.9,930.9,469.9
			z"/>
	</g>
	<path class="st1" d="M459.8,356.2h-28.3c-0.4,0-0.8-0.3-0.8-0.8l0,0c0-0.4,0.3-0.8,0.8-0.8h28.3c0.4,0,0.8,0.3,0.8,0.8l0,0
		C460.6,355.9,460.3,356.2,459.8,356.2z"/>
	<path class="st40" d="M2,530.3h1110.6c1.1,0,2-0.9,2-2l0,0c0-1.1-0.9-2-2-2H2c-1.1,0-2,0.9-2,2l0,0C0,529.4,0.9,530.3,2,530.3z"/>
</g>
</svg>
