<?xml version="1.0" encoding="utf-8"?>
<!-- Generator: Adobe Illustrator 25.2.0, SVG Export Plug-In . SVG Version: 6.00 Build 0)  -->
<svg version="1.1" id="Layer_1" xmlns="http://www.w3.org/2000/svg" xmlns:xlink="http://www.w3.org/1999/xlink" x="0px" y="0px"
	 viewBox="0 0 229.1 517.8" style="enable-background:new 0 0 229.1 517.8;" xml:space="preserve">
<style type="text/css">
	.st0{opacity:0.1;fill:#32324C;enable-background:new    ;}
	.st1{fill:#FFAF82;}
	.st2{fill:#144290;}
	.st3{fill:#3669B2;}
	.st4{fill:#D76150;}
	.st5{fill:#E57E53;}
	.st6{fill:#F7A05B;}
	.st7{fill:#32324C;}
	.st8{fill:#FFA378;}
	.st9{fill:#FFFFFF;}
	.st10{fill:#F88968;}
	.st11{fill:#920E08;}
	.st12{fill:#F85C66;}
	.st13{fill:#F7941D;}
</style>
<g>
	<ellipse class="st0" cx="110.1" cy="504.3" rx="85.9" ry="13"/>
	<g>
		<path class="st0" d="M228.6,351.8c-7.3,107-142.2,150.4-208.9,66.3C6,401,2.8,359.6,6.3,337.8c14.2-88,59.3-97,25.6-152.6
			S-4.8,28.4,88.3,29.3c92.9,0.8,33.1,149.4,97.1,191C214.5,239.2,232.4,296.1,228.6,351.8z"/>
		<path class="st0" d="M193.4,196.1c-5.6,2-11.8,0.1-15.6-4.5c-6.1-7.3-15.8-22.1-12.8-39.4c4.1-24.6,35.3-4.9,37.7,22.7
			C203.8,188.8,198.8,194.3,193.4,196.1z"/>
		<path class="st0" d="M160.2,131.5c-3-1-4.9-3.8-5.1-6.9c-0.1-4.9,0.6-14.1,7.3-20.3c9.6-8.9,16.2,9.3,8.3,21.4
			C166.8,131.8,163,132.3,160.2,131.5z"/>
		<path class="st0" d="M7,251.7c-3.1-0.4-5.5-2.8-6.2-5.8c-1-4.8-2-14.1,3.5-21.3c7.7-10.4,17.6,6.2,12.1,19.6
			C13.6,250.9,10,252.2,7,251.7z"/>
	</g>
	<path class="st1" d="M76.3,256.2c0,0-2.3,95-1,116L74,482.9c-0.7,1.8-1.4,3.4-1.7,4.2c-1.3,2.8-3.1,7-2.8,10c0,0.4,0.1,1,0.6,1.4
		c0.8,0.8,2.1,0.7,2.7,0.7c2.3-0.1,4.6,0.3,6.9,0.3c4.6,0.1,8.3,1.3,10.1,0c0.3-0.1,0.6-0.4,0.8-1c0.3-0.7,0-1.4,0-2.5
		c0-0.8,0.1-1.3,0.1-2c0.4-3-0.3-6.1-0.4-6.5c-0.4-1.8-0.8-2.3-1-3.8c0-1,0.1-1.8,0.3-2.5c2-18.7,2.3-38.6,4.6-59.3
		c2.1-18,3.7-34.5,1.1-49.7c6.9-30,9.7-71,10.1-106.4C105.4,265.9,91.9,256.2,76.3,256.2z"/>
	<path class="st1" d="M139.2,168.4c-0.8,17.2-1.7,34.4-2.5,51.5c-1.4,1.8-10.4,13.2-26.3,14.5c-18.6,1.4-30.3-12.2-31.4-13.5
		c0.4-17,0.7-33.9,1.1-51l-1.8-24.2c-7.5-5.3-5.3-20.3-5.3-20.3l-3.7-22.4l22.2-10.3l6.3-2.8l18.6-0.7l7.3,2.5l23.4,9.3l-2.7,23.8
		c0,0,3.2,12.4-3.7,19L139.2,168.4z"/>
	<path class="st1" d="M125.4,92.1c-0.7,4.4-3.2,19.6-15.2,19.6c-12.4,0-16.2-15.2-16.9-19.3l6.3-2.7l18.6-0.3L125.4,92.1z"/>
	<path class="st1" d="M135.1,147.1c0,0-20.4,14.4-49.8,0.8C85.3,148,112.7,155.4,135.1,147.1"/>
	<g>
		<g>
			<g>
				<path class="st1" d="M41.2,258.6c0,0,1.5,5.3,3.4,9.3s0.6,6.9,1.7,10.4s-3.1,3.2-3.9-0.4c-0.8-3.7-0.4-5.5-1.3-5.5
					c-0.7-0.1-3,8.9-3.2,11.4c-0.3,2.5,0.3,9-0.7,10c-1,1-3.2-2.7-2.5-9.3c0.7-6.8,0.1-6.6,0.1-6.6s-0.7,2.7-1.3,5.3
					c-0.7,2.8-0.7,6.2-0.6,8.2s-1.8,2.8-2.4,1.8s-1.5-7.7-0.7-10.3c0.8-2.7,1.7-7,1.7-7s-2.5,6.1-3,7.6c-0.4,1.5,0.3,7.5-1.1,8.6
					c-0.6,0.4-2.4-0.1-2.1-8.6c0,0,0.6-4.1,1.5-6.6c0,0-1.4,2-2.1,4.5c-0.6,2.3-1,4.6-1.1,6.9c-0.1,2.3-2.1,2-2.1-2.1
					s0.7-8.4,1.8-10.6c1.1-2.1,2.8-14.6,6.2-19.3L41.2,258.6z"/>
			</g>
		</g>
		<g>
			<path class="st1" d="M75.3,131.8c0,0-7.6,30.1-14.2,53.9c0,0-4.1,20.3-19.6,73.6c0,0-8,3.2-12.8-3c0,0,10.1-57.6,14.6-76.4
				c0,0,13-67.3,27.3-78.1C70.7,101.9,81.6,115.3,75.3,131.8z"/>
		</g>
	</g>
	<g>
		<g>
			<g>
				<path class="st1" d="M176.4,257.6c0,0-1.5,5.3-3.4,9.3c-1.8,3.9-0.6,6.9-1.7,10.4c-1.1,3.5,3.1,3.2,3.9-0.4
					c0.8-3.7,0.4-5.5,1.3-5.5c0.7-0.1,3,8.9,3.2,11.4c0.3,2.5-0.3,9,0.7,10c1,1,3.2-2.7,2.5-9.3c-0.7-6.8-0.1-6.6-0.1-6.6
					s0.7,2.7,1.3,5.3c0.7,2.8,0.7,6.2,0.6,8.2c-0.1,2,1.8,2.8,2.4,1.8c0.6-1,1.5-7.7,0.7-10.3c-0.8-2.7-1.7-7-1.7-7s2.5,6.1,3,7.6
					c0.4,1.5-0.3,7.5,1.1,8.6c0.6,0.4,2.4-0.1,2.1-8.6c0,0-0.6-4.1-1.5-6.6c0,0,1.4,2,2.1,4.5c0.6,2.3,1,4.6,1.1,6.9
					c0.1,2.3,2.1,2,2.1-2.1c0-4.1-0.7-8.4-1.8-10.6s-2.8-14.6-6.2-19.3L176.4,257.6z"/>
			</g>
		</g>
		<g>
			<path class="st1" d="M142.2,130.8c0,0,7.6,30.1,14.2,53.9c0,0,4.1,20.3,19.6,73.6c0,0,8,3.2,12.8-3c0,0-10.1-57.6-14.6-76.4
				c0,0-13-67.3-27.3-78.1C146.8,100.9,135.8,114.3,142.2,130.8z"/>
		</g>
	</g>
	<path class="st1" d="M115.7,256.1c0,0,4.9,94.9,7.7,115.9l7,110.4c-0.6,2-1.1,3.4-1.4,4.4c-1,3-2.5,7.3-2,10.1
		c0.1,0.4,0.3,1,0.7,1.4c0.8,0.7,2.1,0.6,2.7,0.6c2.3-0.3,4.6-0.1,6.9-0.3c4.6-0.3,8.4,0.6,10.1-0.7c0.1-0.1,0.6-0.6,0.8-1
		c0.3-0.8-0.1-1.4-0.3-2.5c-0.1-0.8,0-1.3,0-2c0.1-3-0.8-6.1-0.8-6.5c-0.6-1.8-1-2.1-1.3-3.7c-0.1-1,0-1.8,0-2.5
		c0.6-18.7-0.7-38.6,0.1-59.4c0.7-18.2,1-34.6-2.7-49.7c4.6-30.4,4.4-71.5,2.1-107C145.4,263.6,131.3,254.7,115.7,256.1z"/>
	<g>
		<g>
			<path class="st2" d="M140.1,218.6c0,0-22.2,1.5-32.7,1.5c-10.7,0-31.7-1.5-31.7-1.5s-7.9,34.5-7.5,73.4c0.4,37.9,0,161.1,0,161.1
				l28.4-0.8l12.8-174.2L122,452.4l28.4,0.8c0,0-0.6-123.2,0-161.1C151,253.6,140.1,218.6,140.1,218.6z"/>
		</g>
		<g>
			<path class="st3" d="M108,227.5c-17.5,0-33.1-2.7-33.2-2.7s-0.3-0.3-0.3-0.4c0-0.1,0.3-0.3,0.4-0.3s15.8,2.7,33.1,2.7
				s33.1-2.4,33.2-2.4c0.1,0,0.4,0.1,0.4,0.3c0,0.1-0.1,0.4-0.3,0.4C141.2,225.1,125.4,227.5,108,227.5z"/>
		</g>
		<g>
			<g>
				<g>
					<path class="st3" d="M104.2,222c-0.3,0-0.4-0.1-0.4-0.4v-1.1c0-0.3,0.1-0.4,0.4-0.4c0.3,0,0.4,0.1,0.4,0.4v1.1
						C104.6,221.9,104.4,222,104.2,222z"/>
				</g>
				<g>
					<path class="st3" d="M106.1,256.8H106c-0.7-0.3-1.4-1-1.7-1.7c-0.1-0.1,0-0.4,0.1-0.6c0.1-0.1,0.4,0,0.6,0.1
						c0.3,0.6,0.8,1.1,1.4,1.4c0.1,0.1,0.3,0.3,0.1,0.6C106.4,256.8,106.3,256.8,106.1,256.8z M104.2,253.1c-0.3,0-0.4-0.1-0.4-0.4
						v-2.3c0-0.3,0.1-0.4,0.4-0.4c0.3,0,0.4,0.1,0.4,0.4v2.3C104.6,253,104.4,253.1,104.2,253.1z M104.2,248.8
						c-0.3,0-0.4-0.1-0.4-0.4v-2.3c0-0.3,0.1-0.4,0.4-0.4c0.3,0,0.4,0.1,0.4,0.4v2.3C104.6,248.5,104.4,248.8,104.2,248.8z
						 M104.2,244.3c-0.3,0-0.4-0.1-0.4-0.4v-2.3c0-0.3,0.1-0.4,0.4-0.4c0.3,0,0.4,0.1,0.4,0.4v2.3
						C104.6,244.1,104.4,244.3,104.2,244.3z M104.2,239.9c-0.3,0-0.4-0.1-0.4-0.4v-2.3c0-0.3,0.1-0.4,0.4-0.4c0.3,0,0.4,0.1,0.4,0.4
						v2.3C104.6,239.6,104.4,239.9,104.2,239.9z M104.2,235.4c-0.3,0-0.4-0.1-0.4-0.4v-2.3c0-0.3,0.1-0.4,0.4-0.4
						c0.3,0,0.4,0.1,0.4,0.4v2.3C104.6,235.3,104.4,235.4,104.2,235.4z M104.2,231c-0.3,0-0.4-0.1-0.4-0.4v-2.3
						c0-0.3,0.1-0.4,0.4-0.4c0.3,0,0.4,0.1,0.4,0.4v2.3C104.6,230.8,104.4,231,104.2,231z M104.2,226.5c-0.3,0-0.4-0.1-0.4-0.4v-2.3
						c0-0.3,0.1-0.4,0.4-0.4c0.3,0,0.4,0.1,0.4,0.4v2.3C104.6,226.4,104.4,226.5,104.2,226.5z"/>
				</g>
				<g>
					<path class="st3" d="M109.5,257.1h-1.1c-0.3,0-0.4-0.1-0.4-0.4c0-0.3,0.1-0.4,0.4-0.4h1.1c0.3,0,0.4,0.1,0.4,0.4
						C109.8,256.9,109.7,257.1,109.5,257.1z"/>
				</g>
			</g>
		</g>
		<g>
			<path class="st3" d="M70.8,250.9c-0.1,0-0.3-0.1-0.4-0.3c0-0.1,0-0.4,0.3-0.4c0,0,0.6-0.1,1.4-0.7c0.1-0.1,0.4,0,0.6,0.1
				c0.1,0.1,0,0.4-0.1,0.6C71.6,250.6,70.9,250.7,70.8,250.9C70.9,250.9,70.9,250.9,70.8,250.9z M74.2,248.9c-0.1,0-0.3,0-0.3-0.1
				c-0.1-0.1-0.1-0.4,0-0.6c0.6-0.4,1.1-1,1.7-1.5c0.1-0.1,0.4-0.1,0.6,0c0.1,0.1,0.1,0.4,0,0.6c-0.6,0.6-1.1,1.1-1.8,1.5
				C74.3,248.8,74.3,248.9,74.2,248.9z M77.6,245.7c-0.1,0-0.1,0-0.3-0.1c-0.1-0.1-0.1-0.4,0-0.6c0.4-0.6,1-1.1,1.4-1.8
				c0.1-0.1,0.4-0.3,0.6-0.1c0.1,0.1,0.3,0.4,0.1,0.6c-0.4,0.7-1,1.3-1.4,1.8C77.7,245.5,77.6,245.7,77.6,245.7z M80.1,241.9h-0.1
				c-0.1-0.1-0.3-0.3-0.1-0.6c0.4-0.7,0.7-1.3,1-2c0.1-0.1,0.3-0.3,0.6-0.1c0.1,0.1,0.3,0.3,0.1,0.6c-0.3,0.7-0.7,1.4-1,2.1
				C80.4,241.7,80.2,241.9,80.1,241.9z M82.1,237.7C81.9,237.7,81.9,237.7,82.1,237.7c-0.3-0.1-0.4-0.3-0.4-0.6
				c0.3-0.7,0.4-1.4,0.7-2.1c0-0.1,0.3-0.3,0.4-0.3c0.1,0,0.3,0.3,0.3,0.4c-0.3,0.7-0.4,1.5-0.7,2.3
				C82.3,237.5,82.2,237.7,82.1,237.7z M83.3,233.1L83.3,233.1c-0.3,0-0.4-0.3-0.4-0.4c0.1-0.7,0.3-1.5,0.4-2.3
				c0-0.1,0.3-0.3,0.4-0.3c0.1,0,0.3,0.3,0.3,0.4c-0.1,0.7-0.3,1.5-0.4,2.3C83.6,233.1,83.5,233.1,83.3,233.1z M84.2,228.6
				L84.2,228.6c-0.3,0-0.4-0.3-0.4-0.4c0.1-1.4,0.1-2.3,0.1-2.3c0-0.3,0.1-0.4,0.4-0.4s0.4,0.1,0.4,0.4c0,0,0,0.8-0.3,2.4
				C84.5,228.5,84.3,228.6,84.2,228.6z"/>
		</g>
		<g>
			<path class="st3" d="M71.2,246.5c-0.1,0-0.3-0.1-0.3-0.3c-0.1-0.1,0-0.4,0.1-0.6c0,0,4.5-2.3,7.3-8.2c2.3-4.6,2.3-12,2.3-12.1
				c0-0.3,0.1-0.4,0.4-0.4s0.4,0.1,0.4,0.4s0,7.6-2.3,12.4c-3,6.2-7.5,8.4-7.7,8.6C71.4,246.5,71.2,246.5,71.2,246.5z"/>
		</g>
		<g>
			<path class="st3" d="M109.5,281.2c-0.3,0-0.4-0.1-0.4-0.4v-60.3c0-0.3,0.1-0.4,0.4-0.4s0.4,0.1,0.4,0.4v60.4
				C109.8,281,109.7,281.2,109.5,281.2z"/>
		</g>
		<g>
			<path class="st4" d="M105.3,223.6c0-0.8,0.7-1.5,1.5-1.5s1.5,0.7,1.5,1.5s-0.7,1.5-1.5,1.5C106,225.1,105.3,224.4,105.3,223.6z"
				/>
		</g>
		<g>
			<polygon class="st3" points="93.6,219.8 93,226.7 95.4,226.7 95.9,219.9 			"/>
		</g>
		<g>
			<polygon class="st3" points="118.2,219.9 118.5,226.8 121.1,226.5 120.6,219.8 			"/>
		</g>
		<g>
			<path class="st3" d="M71.2,451.6c-0.3,0-0.4-0.1-0.4-0.4V449c0-0.3,0.1-0.4,0.4-0.4s0.4,0.1,0.4,0.4v2.3
				C71.6,451.5,71.5,451.6,71.2,451.6z M71.2,447c-0.3,0-0.4-0.1-0.4-0.4v-2.3c0-0.3,0.1-0.4,0.4-0.4s0.4,0.1,0.4,0.4v2.3
				C71.6,446.9,71.5,447,71.2,447z M71.2,442.4c-0.3,0-0.4-0.1-0.4-0.4v-2.3c0-0.3,0.1-0.4,0.4-0.4s0.4,0.1,0.4,0.4v2.3
				C71.6,442.2,71.5,442.4,71.2,442.4z M71.2,437.7c-0.3,0-0.4-0.1-0.4-0.4V435c0-0.3,0.1-0.4,0.4-0.4s0.4,0.1,0.4,0.4v2.3
				C71.6,437.6,71.5,437.7,71.2,437.7z M71.2,433.2c-0.3,0-0.4-0.1-0.4-0.4v-2.3c0-0.3,0.1-0.4,0.4-0.4s0.4,0.1,0.4,0.4v2.3
				C71.6,432.9,71.5,433.2,71.2,433.2z M71.2,428.6c-0.3,0-0.4-0.1-0.4-0.4v-2.3c0-0.3,0.1-0.4,0.4-0.4s0.4,0.1,0.4,0.4v2.3
				C71.6,428.3,71.5,428.6,71.2,428.6z M71.2,423.9c-0.3,0-0.4-0.1-0.4-0.4v-2.3c0-0.3,0.1-0.4,0.4-0.4s0.4,0.1,0.4,0.4v2.3
				C71.6,423.8,71.5,423.9,71.2,423.9z M71.2,419.3c-0.3,0-0.4-0.1-0.4-0.4v-2.3c0-0.3,0.1-0.4,0.4-0.4s0.4,0.1,0.4,0.4v2.3
				C71.6,419.1,71.5,419.3,71.2,419.3z M71.2,414.6c-0.3,0-0.4-0.1-0.4-0.4v-2.3c0-0.3,0.1-0.4,0.4-0.4s0.4,0.1,0.4,0.4v2.3
				C71.6,414.5,71.5,414.6,71.2,414.6z M71.2,410c-0.3,0-0.4-0.1-0.4-0.4v-2.3c0-0.3,0.1-0.4,0.4-0.4l0,0c0.3,0,0.4,0.1,0.4,0.4v2.3
				C71.6,409.8,71.5,410,71.2,410z M71.2,405.5L71.2,405.5c-0.3,0-0.4-0.1-0.4-0.4v-2.3c0-0.3,0.1-0.4,0.4-0.4l0,0
				c0.3,0,0.4,0.1,0.4,0.4v2.3C71.6,405.2,71.5,405.5,71.2,405.5z M71.2,400.8L71.2,400.8c-0.3,0-0.4-0.1-0.4-0.4v-2.3
				c0-0.3,0.1-0.4,0.4-0.4l0,0c0.3,0,0.4,0.1,0.4,0.4v2.3C71.6,400.7,71.5,400.8,71.2,400.8z M71.2,396.2L71.2,396.2
				c-0.3,0-0.4-0.1-0.4-0.4v-2.3c0-0.3,0.1-0.4,0.4-0.4s0.4,0.1,0.4,0.4v2.3C71.6,396,71.5,396.2,71.2,396.2z M71.2,391.5
				L71.2,391.5c-0.3,0-0.4-0.1-0.4-0.4v-2.3c0-0.3,0.1-0.4,0.4-0.4l0,0c0.3,0,0.4,0.1,0.4,0.4v2.3C71.6,391.4,71.5,391.5,71.2,391.5
				z M71.4,386.9L71.4,386.9c-0.3,0-0.4-0.1-0.4-0.4v-2.3c0-0.3,0.1-0.4,0.4-0.4l0,0c0.3,0,0.4,0.1,0.4,0.4v2.3
				C71.6,386.7,71.5,386.9,71.4,386.9z M71.4,382.4L71.4,382.4c-0.3,0-0.4-0.1-0.4-0.4v-2.3c0-0.3,0.1-0.4,0.4-0.4l0,0
				c0.3,0,0.4,0.1,0.4,0.4v2.3C71.6,382.1,71.5,382.4,71.4,382.4z M71.4,377.7L71.4,377.7c-0.3,0-0.4-0.1-0.4-0.4v-2.3
				c0-0.3,0.1-0.4,0.4-0.4l0,0c0.3,0,0.4,0.1,0.4,0.4v2.3C71.6,377.6,71.5,377.7,71.4,377.7z M71.4,373.1L71.4,373.1
				c-0.3,0-0.4-0.1-0.4-0.4v-2.3c0-0.3,0.1-0.4,0.4-0.4l0,0c0.3,0,0.4,0.1,0.4,0.4v2.3C71.8,372.9,71.5,373.1,71.4,373.1z
				 M71.4,368.4L71.4,368.4c-0.3,0-0.4-0.1-0.4-0.4v-2.3c0-0.3,0.1-0.4,0.4-0.4l0,0c0.3,0,0.4,0.1,0.4,0.4v2.3
				C71.8,368.3,71.5,368.4,71.4,368.4z M71.4,363.8L71.4,363.8c-0.3,0-0.4-0.1-0.4-0.4v-2.3c0-0.3,0.1-0.4,0.4-0.4l0,0
				c0.3,0,0.4,0.1,0.4,0.4v2.3C71.8,363.7,71.6,363.8,71.4,363.8z M71.4,359.3L71.4,359.3c-0.3,0-0.4-0.1-0.4-0.4v-2.3h0.4h0.4v2.3
				C71.8,359,71.6,359.3,71.4,359.3z M71.4,354.6L71.4,354.6c-0.3,0-0.4-0.1-0.4-0.4V352c0-0.3,0.1-0.4,0.4-0.4l0,0
				c0.3,0,0.4,0.1,0.4,0.4v2.3C71.8,354.4,71.6,354.6,71.4,354.6z M71.4,350L71.4,350c-0.3,0-0.4-0.1-0.4-0.4v-2.3
				c0-0.3,0.1-0.4,0.4-0.4l0,0c0.3,0,0.4,0.1,0.4,0.4v2.3C71.8,349.9,71.6,350,71.4,350z M71.4,345.4L71.4,345.4
				c-0.3,0-0.4-0.1-0.4-0.4v-2.3c0-0.3,0.1-0.4,0.4-0.4l0,0c0.3,0,0.4,0.1,0.4,0.4v2.3C71.8,345.2,71.6,345.4,71.4,345.4z
				 M71.4,340.7c-0.3,0-0.4-0.1-0.4-0.4V338c0-0.3,0.1-0.4,0.4-0.4s0.4,0.1,0.4,0.4v2.3C71.8,340.6,71.6,340.7,71.4,340.7z
				 M71.4,336.2c-0.3,0-0.4-0.1-0.4-0.4v-2.3c0-0.3,0.1-0.4,0.4-0.4l0,0c0.3,0,0.4,0.1,0.4,0.4v2.3
				C71.8,335.9,71.6,336.2,71.4,336.2L71.4,336.2z M71.4,331.6c-0.3,0-0.4-0.1-0.4-0.4v-2.3c0-0.3,0.1-0.4,0.4-0.4l0,0
				c0.3,0,0.4,0.1,0.4,0.4v2.3C71.8,331.4,71.6,331.6,71.4,331.6L71.4,331.6z M71.4,326.9c-0.3,0-0.4-0.1-0.4-0.4v-2.3
				c0-0.3,0.1-0.4,0.4-0.4l0,0c0.3,0,0.4,0.1,0.4,0.4v2.3C71.8,326.8,71.6,326.9,71.4,326.9L71.4,326.9z M71.4,322.3
				c-0.3,0-0.4-0.1-0.4-0.4v-2.3c0-0.3,0.1-0.4,0.4-0.4l0,0c0.3,0,0.4,0.1,0.4,0.4v2.3C71.8,322.1,71.6,322.3,71.4,322.3L71.4,322.3
				z M71.4,317.6c-0.3,0-0.4-0.1-0.4-0.4v-2.3c0-0.3,0.1-0.4,0.4-0.4l0,0c0.1,0,0.4,0.1,0.4,0.4v2.3
				C71.8,317.5,71.5,317.6,71.4,317.6L71.4,317.6z M71.4,313.1c-0.1,0-0.4-0.1-0.4-0.4c0-0.8,0-1.5,0-2.3c0-0.3,0.1-0.4,0.4-0.4l0,0
				c0.1,0,0.4,0.1,0.4,0.4c0,0.7,0,1.5,0,2.3C71.6,312.8,71.5,313.1,71.4,313.1L71.4,313.1z M71.2,308.5c-0.1,0-0.4-0.1-0.4-0.4
				c0-0.7,0-1.5,0-2.3c0-0.3,0.1-0.4,0.4-0.4l0,0c0.3,0,0.4,0.1,0.4,0.4c0,0.8,0,1.5,0,2.3C71.6,308.3,71.5,308.5,71.2,308.5
				L71.2,308.5z M71.2,303.8c-0.3,0-0.4-0.1-0.4-0.4c0-0.7,0-1.5,0-2.3c0-0.3,0.1-0.4,0.4-0.4l0,0c0.3,0,0.4,0.1,0.4,0.4
				c0,0.8,0,1.5,0,2.3C71.6,303.7,71.4,303.8,71.2,303.8z M71.2,299.2L71.2,299.2c-0.3,0-0.4-0.1-0.4-0.4c0-0.7,0-1.5,0-2.3
				c0-0.1,0.1-0.4,0.4-0.4l0,0c0.3,0,0.4,0.1,0.4,0.4c0,0.8,0,1.5,0,2.3C71.6,299,71.4,299.2,71.2,299.2z M71.2,294.7L71.2,294.7
				c-0.3,0-0.4-0.1-0.4-0.4c0-0.7,0-1.5,0-2.3c0-0.1,0.1-0.4,0.4-0.4l0,0c0.3,0,0.4,0.1,0.4,0.4c0,0.8,0,1.5,0,2.3
				C71.6,294.4,71.5,294.7,71.2,294.7z M71.4,290L71.4,290c-0.3,0-0.4-0.1-0.4-0.4c0-0.7,0-1.5,0-2.3c0-0.1,0.1-0.4,0.4-0.4l0,0
				c0.3,0,0.4,0.1,0.4,0.4c0,0.7,0,1.5,0,2.3C71.8,289.9,71.6,290,71.4,290z M71.5,285.4L71.5,285.4c-0.3,0-0.4-0.1-0.4-0.4v-2.3
				c0-0.3,0.1-0.4,0.4-0.4s0.4,0.1,0.4,0.4v2.3C71.9,285.2,71.6,285.4,71.5,285.4z M71.6,280.7L71.6,280.7c-0.3,0-0.4-0.1-0.4-0.4
				l0.1-2.3c0-0.3,0.1-0.4,0.4-0.4s0.4,0.1,0.4,0.4l-0.1,2.3C72.1,280.6,71.8,280.7,71.6,280.7z M71.8,276.1L71.8,276.1
				c-0.3,0-0.4-0.1-0.4-0.4l0.1-2.3c0-0.3,0.1-0.4,0.4-0.4s0.4,0.1,0.4,0.4l-0.1,2.3C72.2,275.9,72.1,276.1,71.8,276.1z M71.9,271.4
				L71.9,271.4c-0.3,0-0.4-0.1-0.4-0.4l0.1-2.3c0-0.3,0.1-0.4,0.4-0.4s0.4,0.1,0.4,0.4l-0.1,2.3C72.3,271.3,72.2,271.4,71.9,271.4z
				 M72.2,266.9L72.2,266.9c-0.3,0-0.4-0.1-0.4-0.4l0.1-2.3c0-0.3,0.1-0.4,0.4-0.4s0.4,0.1,0.4,0.4l-0.1,2.3
				C72.5,266.8,72.3,266.9,72.2,266.9z M72.3,262.3L72.3,262.3c-0.3,0-0.4-0.1-0.4-0.4l0.1-2.3c0-0.3,0.1-0.4,0.4-0.4
				s0.4,0.1,0.4,0.4l-0.1,2.3C72.8,262.1,72.5,262.3,72.3,262.3z M72.5,257.6L72.5,257.6c-0.3,0-0.4-0.1-0.4-0.4l0.1-2.3
				c0-0.3,0.1-0.4,0.4-0.4s0.4,0.1,0.4,0.4l-0.1,2.3C72.9,257.5,72.8,257.6,72.5,257.6z M72.8,253L72.8,253c-0.3,0-0.4-0.1-0.4-0.4
				l0.1-2.3c0-0.3,0.1-0.4,0.4-0.4s0.4,0.1,0.4,0.4l-0.1,2.4C73.2,252.9,72.9,253,72.8,253z M73,248.4
				C72.9,248.4,72.9,248.4,73,248.4c-0.3,0-0.4-0.1-0.4-0.4c0.1-1.5,0.1-2.3,0.1-2.3c0-0.3,0.1-0.4,0.4-0.4s0.4,0.1,0.4,0.4
				c0,0,0,0.8-0.1,2.3C73.3,248.2,73.2,248.4,73,248.4z"/>
		</g>
		<g>
			<path class="st3" d="M146.5,250.9C146.5,250.9,146.4,250.9,146.5,250.9c-0.1,0-0.7-0.3-1.7-0.7c-0.1-0.1-0.3-0.3-0.1-0.6
				c0.1-0.1,0.3-0.3,0.6-0.1c0.8,0.4,1.4,0.7,1.4,0.7c0.1,0,0.3,0.3,0.3,0.4C146.8,250.7,146.7,250.9,146.5,250.9z M143.2,248.9
				c-0.1,0-0.1,0-0.3-0.1c-0.6-0.4-1.3-1-1.8-1.5c-0.1-0.1-0.1-0.4,0-0.6c0.1-0.1,0.4-0.1,0.6,0c0.6,0.6,1.1,1,1.7,1.5
				c0.1,0.1,0.1,0.4,0,0.6C143.4,248.8,143.3,248.9,143.2,248.9z M139.9,245.7c-0.1,0-0.3,0-0.3-0.1c-0.4-0.6-1-1.3-1.4-1.8
				c-0.1-0.1-0.1-0.4,0.1-0.6c0.1-0.1,0.4-0.1,0.6,0.1c0.4,0.6,0.8,1.3,1.4,1.8c0.1,0.1,0.1,0.4,0,0.6
				C140.1,245.7,139.9,245.7,139.9,245.7z M137.2,241.9c-0.1,0-0.3-0.1-0.3-0.1c-0.4-0.7-0.7-1.4-1-2.1c-0.1-0.1,0-0.4,0.1-0.6
				c0.1-0.1,0.4,0,0.6,0.1c0.3,0.7,0.7,1.4,1,2c0.1,0.1,0,0.4-0.1,0.6C137.4,241.9,137.4,241.9,137.2,241.9z M135.4,237.7
				c-0.1,0-0.3-0.1-0.4-0.3c-0.3-0.7-0.6-1.4-0.7-2.3c0-0.1,0-0.4,0.3-0.4c0.1,0,0.4,0,0.4,0.3c0.3,0.7,0.4,1.4,0.7,2.1
				C135.8,237.4,135.7,237.5,135.4,237.7L135.4,237.7z M134,233.1c-0.1,0-0.3-0.1-0.4-0.3c-0.1-0.7-0.3-1.5-0.4-2.3
				c0-0.1,0.1-0.4,0.3-0.4c0.1,0,0.4,0.1,0.4,0.3c0.1,0.7,0.3,1.5,0.4,2.3C134.4,233,134.4,233.1,134,233.1
				C134.1,233.1,134.1,233.1,134,233.1z M133.3,228.6c-0.1,0-0.4-0.1-0.4-0.3c-0.1-1.4-0.3-2.3-0.3-2.4c0-0.3,0.1-0.4,0.4-0.4
				c0.3,0,0.4,0.1,0.4,0.4c0,0,0,0.8,0.1,2.3C133.7,228.5,133.6,228.6,133.3,228.6L133.3,228.6z"/>
		</g>
		<g>
			<path class="st3" d="M146.1,246.5H146c-0.1-0.1-4.8-2.4-7.7-8.6c-2.3-4.8-2.3-12.1-2.3-12.4s0.1-0.4,0.4-0.4
				c0.3,0,0.4,0.1,0.4,0.4c0,0.1,0,7.5,2.3,12.1c2.8,5.9,7.3,8.2,7.3,8.2c0.1,0.1,0.3,0.3,0.1,0.6
				C146.4,246.5,146.3,246.5,146.1,246.5z"/>
		</g>
		<g>
			<path class="st3" d="M146.1,451.6c-0.3,0-0.4-0.1-0.4-0.4V449c0-0.3,0.1-0.4,0.4-0.4c0.3,0,0.4,0.1,0.4,0.4v2.3
				C146.5,451.5,146.4,451.6,146.1,451.6z M146.1,447c-0.3,0-0.4-0.1-0.4-0.4v-2.3c0-0.3,0.1-0.4,0.4-0.4c0.3,0,0.4,0.1,0.4,0.4v2.3
				C146.5,446.9,146.4,447,146.1,447z M146.1,442.4c-0.3,0-0.4-0.1-0.4-0.4v-2.3c0-0.3,0.1-0.4,0.4-0.4c0.3,0,0.4,0.1,0.4,0.4v2.3
				C146.5,442.2,146.4,442.4,146.1,442.4z M146.1,437.7c-0.3,0-0.4-0.1-0.4-0.4V435c0-0.3,0.1-0.4,0.4-0.4c0.3,0,0.4,0.1,0.4,0.4
				v2.3C146.5,437.6,146.4,437.7,146.1,437.7z M146.1,433.2c-0.3,0-0.4-0.1-0.4-0.4v-2.3c0-0.3,0.1-0.4,0.4-0.4
				c0.3,0,0.4,0.1,0.4,0.4v2.3C146.5,432.9,146.4,433.2,146.1,433.2z M146.1,428.6c-0.3,0-0.4-0.1-0.4-0.4v-2.3
				c0-0.3,0.1-0.4,0.4-0.4c0.3,0,0.4,0.1,0.4,0.4v2.3C146.5,428.3,146.4,428.6,146.1,428.6z M146.1,423.9c-0.3,0-0.4-0.1-0.4-0.4
				v-2.3c0-0.3,0.1-0.4,0.4-0.4c0.3,0,0.4,0.1,0.4,0.4v2.3C146.5,423.8,146.4,423.9,146.1,423.9z M146.1,419.3
				c-0.3,0-0.4-0.1-0.4-0.4v-2.3c0-0.3,0.1-0.4,0.4-0.4c0.3,0,0.4,0.1,0.4,0.4v2.3C146.5,419.1,146.4,419.3,146.1,419.3z
				 M146.1,414.6c-0.3,0-0.4-0.1-0.4-0.4v-2.3c0-0.3,0.1-0.4,0.4-0.4c0.3,0,0.4,0.1,0.4,0.4v2.3
				C146.5,414.5,146.4,414.6,146.1,414.6z M146.1,410c-0.3,0-0.4-0.1-0.4-0.4v-2.3c0-0.3,0.1-0.4,0.4-0.4l0,0c0.3,0,0.4,0.1,0.4,0.4
				v2.3C146.5,409.8,146.4,410,146.1,410z M146.1,405.5c-0.3,0-0.4-0.1-0.4-0.4v-2.3c0-0.3,0.1-0.4,0.4-0.4l0,0
				c0.3,0,0.4,0.1,0.4,0.4v2.3C146.5,405.2,146.4,405.5,146.1,405.5L146.1,405.5z M146.1,400.8c-0.3,0-0.4-0.1-0.4-0.4v-2.3
				c0-0.3,0.1-0.4,0.4-0.4l0,0c0.3,0,0.4,0.1,0.4,0.4v2.3C146.5,400.7,146.4,400.8,146.1,400.8L146.1,400.8z M146.1,396.2
				c-0.3,0-0.4-0.1-0.4-0.4v-2.3c0-0.3,0.1-0.4,0.4-0.4l0,0c0.3,0,0.4,0.1,0.4,0.4v2.3C146.5,396,146.4,396.2,146.1,396.2
				L146.1,396.2z M146.1,391.5c-0.3,0-0.4-0.1-0.4-0.4v-2.3c0-0.3,0.1-0.4,0.4-0.4l0,0c0.3,0,0.4,0.1,0.4,0.4v2.3
				C146.5,391.4,146.4,391.5,146.1,391.5L146.1,391.5z M146.1,386.9c-0.3,0-0.4-0.1-0.4-0.4v-2.3c0-0.3,0.1-0.4,0.4-0.4l0,0
				c0.3,0,0.4,0.1,0.4,0.4v2.3C146.5,386.7,146.3,386.9,146.1,386.9L146.1,386.9z M146.1,382.4c-0.3,0-0.4-0.1-0.4-0.4v-2.3
				c0-0.3,0.1-0.4,0.4-0.4l0,0c0.3,0,0.4,0.1,0.4,0.4v2.3C146.5,382.1,146.3,382.4,146.1,382.4L146.1,382.4z M146.1,377.7
				c-0.3,0-0.4-0.1-0.4-0.4v-2.3c0-0.3,0.1-0.4,0.4-0.4c0.3,0,0.4,0.1,0.4,0.4v2.3C146.4,377.6,146.3,377.7,146.1,377.7L146.1,377.7
				z M146.1,373.1c-0.3,0-0.4-0.1-0.4-0.4v-2.3c0-0.3,0.1-0.4,0.4-0.4l0,0c0.3,0,0.4,0.1,0.4,0.4v2.3
				C146.4,372.9,146.3,373.1,146.1,373.1L146.1,373.1z M146.1,368.4c-0.3,0-0.4-0.1-0.4-0.4v-2.3c0-0.3,0.1-0.4,0.4-0.4l0,0
				c0.3,0,0.4,0.1,0.4,0.4v2.3C146.4,368.3,146.3,368.4,146.1,368.4L146.1,368.4z M146,363.8c-0.3,0-0.4-0.1-0.4-0.4v-2.3
				c0-0.3,0.1-0.4,0.4-0.4l0,0c0.3,0,0.4,0.1,0.4,0.4v2.3C146.4,363.7,146.3,363.8,146,363.8L146,363.8z M146,359.3
				c-0.3,0-0.4-0.1-0.4-0.4v-2.3c0-0.3,0.1-0.4,0.4-0.4l0,0c0.3,0,0.4,0.1,0.4,0.4v2.3C146.4,359,146.3,359.3,146,359.3L146,359.3z
				 M146,354.6c-0.3,0-0.4-0.1-0.4-0.4V352c0-0.3,0.1-0.4,0.4-0.4l0,0c0.3,0,0.4,0.1,0.4,0.4v2.3C146.4,354.4,146.3,354.6,146,354.6
				L146,354.6z M145.7,349.6v-2.3c0-0.3,0.1-0.4,0.4-0.4l0,0c0.3,0,0.4,0.1,0.4,0.4v2.3H145.7z M146,345.4c-0.3,0-0.4-0.1-0.4-0.4
				v-2.3c0-0.3,0.1-0.4,0.4-0.4s0.4,0.1,0.4,0.4v2.3C146.4,345.2,146.3,345.4,146,345.4L146,345.4z M146,340.7
				c-0.3,0-0.4-0.1-0.4-0.4V338c0-0.3,0.1-0.4,0.4-0.4l0,0c0.3,0,0.4,0.1,0.4,0.4v2.3C146.4,340.6,146.3,340.7,146,340.7z
				 M146,336.2L146,336.2c-0.3,0-0.4-0.1-0.4-0.4v-2.3c0-0.3,0.1-0.4,0.4-0.4l0,0c0.3,0,0.4,0.1,0.4,0.4v2.3
				C146.4,335.9,146.3,336.2,146,336.2z M146,331.6L146,331.6c-0.3,0-0.4-0.1-0.4-0.4v-2.3c0-0.3,0.1-0.4,0.4-0.4l0,0
				c0.3,0,0.4,0.1,0.4,0.4v2.3C146.4,331.4,146.3,331.6,146,331.6z M146,326.9L146,326.9c-0.3,0-0.4-0.1-0.4-0.4v-2.3
				c0-0.3,0.1-0.4,0.4-0.4l0,0c0.3,0,0.4,0.1,0.4,0.4v2.3C146.4,326.8,146.3,326.9,146,326.9z M146,322.3L146,322.3
				c-0.3,0-0.4-0.1-0.4-0.4v-2.3c0-0.3,0.1-0.4,0.4-0.4l0,0c0.3,0,0.4,0.1,0.4,0.4v2.3C146.4,322.1,146.3,322.3,146,322.3z
				 M146.1,317.6L146.1,317.6c-0.3,0-0.4-0.1-0.4-0.4v-2.3c0-0.3,0.1-0.4,0.4-0.4l0,0c0.3,0,0.4,0.1,0.4,0.4v2.3
				C146.4,317.5,146.3,317.6,146.1,317.6z M146.1,313.1L146.1,313.1c-0.3,0-0.4-0.1-0.4-0.4c0-0.8,0-1.5,0-2.3
				c0-0.1,0.1-0.4,0.4-0.4l0,0c0.3,0,0.4,0.1,0.4,0.4c0,0.7,0,1.5,0,2.3C146.5,312.8,146.3,313.1,146.1,313.1z M146.1,308.5
				L146.1,308.5c-0.3,0-0.4-0.1-0.4-0.4c0-0.7,0-1.5,0-2.3c0-0.3,0.1-0.4,0.4-0.4l0,0c0.3,0,0.4,0.1,0.4,0.4c0,0.8,0,1.5,0,2.3
				C146.5,308.3,146.4,308.5,146.1,308.5z M146.3,303.8c-0.3,0-0.4-0.1-0.4-0.4c0-0.7,0-1.5,0-2.3c0-0.3,0.1-0.4,0.4-0.4l0,0
				c0.3,0,0.4,0.1,0.4,0.4c0,0.8,0,1.5,0,2.3C146.5,303.7,146.4,303.8,146.3,303.8z M146.3,299.2c-0.1,0-0.4-0.1-0.4-0.4
				c0-0.7,0-1.5,0-2.3c0-0.3,0.1-0.4,0.4-0.4l0,0c0.1,0,0.4,0.1,0.4,0.4c0,0.8,0,1.5,0,2.3C146.5,299,146.4,299.2,146.3,299.2
				L146.3,299.2z M146.1,294.7c-0.1,0-0.4-0.1-0.4-0.4c0-0.7,0-1.5,0-2.3c0-0.3,0.1-0.4,0.4-0.4l0,0c0.1,0,0.4,0.1,0.4,0.4
				c0,0.8,0,1.5,0,2.3C146.5,294.4,146.4,294.5,146.1,294.7L146.1,294.7z M146,290c-0.1,0-0.4-0.1-0.4-0.4c0-0.7,0-1.5,0-2.3
				c0-0.3,0.1-0.4,0.4-0.4l0,0c0.1,0,0.4,0.1,0.4,0.4c0,0.7,0,1.5,0,2.3C146.4,289.7,146.3,290,146,290L146,290z M145.8,285.4
				c-0.1,0-0.4-0.1-0.4-0.4v-2.3c0-0.3,0.1-0.4,0.4-0.4c0.1,0,0.4,0.1,0.4,0.4v2.3C146.3,285.2,146.1,285.4,145.8,285.4
				C146,285.4,146,285.4,145.8,285.4z M145.7,280.7c-0.1,0-0.4-0.1-0.4-0.4l-0.1-2.3c0-0.3,0.1-0.4,0.4-0.4c0.3,0,0.4,0.1,0.4,0.4
				l0.1,2.3C146.1,280.6,146,280.7,145.7,280.7C145.8,280.7,145.8,280.7,145.7,280.7z M145.6,276.1c-0.1,0-0.4-0.1-0.4-0.4l-0.1-2.3
				c0-0.3,0.1-0.4,0.4-0.4c0.1,0,0.4,0.1,0.4,0.4l0.1,2.3C146,275.9,145.8,276.1,145.6,276.1L145.6,276.1z M145.4,271.4
				c-0.1,0-0.4-0.1-0.4-0.4l-0.1-2.3c0-0.3,0.1-0.4,0.4-0.4c0.3,0,0.4,0.1,0.4,0.4l0.1,2.3C145.8,271.3,145.7,271.4,145.4,271.4
				L145.4,271.4z M145.3,266.9c-0.1,0-0.4-0.1-0.4-0.4l-0.1-2.3c0-0.3,0.1-0.4,0.4-0.4c0.1,0,0.4,0.1,0.4,0.4l0.1,2.3
				C145.7,266.7,145.4,266.9,145.3,266.9L145.3,266.9z M145,262.3c-0.1,0-0.4-0.1-0.4-0.4l-0.1-2.3c0-0.3,0.1-0.4,0.4-0.4
				c0.1,0,0.4,0.1,0.4,0.4l0.1,2.3C145.4,262.1,145.3,262.3,145,262.3C145.1,262.3,145.1,262.3,145,262.3z M144.8,257.6
				c-0.1,0-0.4-0.1-0.4-0.4l-0.1-2.3c0-0.3,0.1-0.4,0.4-0.4c0.3,0,0.4,0.1,0.4,0.4l0.1,2.3C145.3,257.5,145.1,257.6,144.8,257.6
				L144.8,257.6z M144.7,253c-0.1,0-0.4-0.1-0.4-0.4l-0.1-2.3c0-0.3,0.1-0.4,0.4-0.4c0.3,0,0.4,0.1,0.4,0.4l0.1,2.3
				C145,252.9,144.8,253,144.7,253L144.7,253z M144.4,248.4c-0.1,0-0.4-0.1-0.4-0.4c-0.1-1.5-0.1-2.3-0.1-2.3c0-0.3,0.1-0.4,0.4-0.4
				c0.3,0,0.4,0.1,0.4,0.4c0,0,0,0.8,0.1,2.3C144.8,248.2,144.7,248.4,144.4,248.4L144.4,248.4z"/>
		</g>
		<g>
			<polygon class="st3" points="96.6,452.4 68.1,453.1 68.1,448.6 97,448.1 			"/>
		</g>
		<g>
			<polygon class="st3" points="122,452.4 150.5,453.1 150.6,448.6 121.6,447.8 			"/>
		</g>
	</g>
	<g>
		<g>
			<path class="st5" d="M71.9,209.8c0,0-3.2,17.9,39,17.9s36.5-18.6,36.5-18.6L71.9,209.8z"/>
		</g>
		<g>
			<path class="st4" d="M95.6,87c0,0,12.5-4.5,27.9,0c0,0-5.5,17.9-14.4,17.9C100.1,104.9,95.6,87,95.6,87z"/>
		</g>
		<g>
			<path class="st6" d="M96.3,87c0,0-3.2,0-2.5,8.3c0,0-17.9,2.5-29.4,10.3l7,38.4c0,0,2.5,30.7,1.3,46c-1.3,15.3-7,17.3,2,24.4
				c9,7,35.2,5.8,35.2,5.8V109.4v-9C109.7,100.4,96.8,94,96.3,87z"/>
		</g>
		<g>
			<path class="st5" d="M65.4,104.9c0,0-8.2,3.1-8.2,6.3c0,3.2,14.1,32.7,14.1,32.7L65.4,104.9z"/>
		</g>
		<g>
			<path class="st6" d="M123,87c0,0,3.2,0,2.5,8.3c0,0,17.9,2.5,29.4,10.3l-7,38.4c0,0-2.5,30.7-1.3,46c1.3,15.3,7,17.3-2,24.4
				c-9,7-35.2,5.8-35.2,5.8V109.4v-9C109.7,100.4,122.5,94,123,87z"/>
		</g>
		<g>
			<path class="st5" d="M153.6,104.6c0,0,8.6,3.5,8.6,6.8S148.1,144,148.1,144L153.6,104.6z"/>
		</g>
		<g>
			<path class="st5" d="M123,87c-0.7,7-13.4,13.1-13.4,13.1S96.8,94,96.3,87c0,0-3.2,0-2.5,8.3c0,0,5.8,12.1,16,12.1
				s16-12.1,16-12.1C126.3,87,123,87,123,87z"/>
		</g>
		<g>
			<rect x="66.4" y="112.2" class="st5" width="86" height="2"/>
		</g>
		<g>
			<rect x="66.4" y="131.5" class="st5" width="86" height="2"/>
		</g>
		<g>
			<rect x="71.9" y="149.9" class="st5" width="75.2" height="2"/>
		</g>
		<g>
			<rect x="72.9" y="168.5" class="st5" width="73.2" height="2"/>
		</g>
		<g>
			<rect x="72.9" y="187.1" class="st5" width="73.5" height="2"/>
		</g>
		<g>
			<rect x="69.7" y="205.7" class="st5" width="80" height="2"/>
		</g>
		<g>
			<path class="st6" d="M113,101.9c0-0.6,0.4-1,1-1s1,0.4,1,1c0,0.6-0.4,1-1,1C113.5,102.8,113,102.4,113,101.9z"/>
		</g>
		<g>
			<path class="st4" d="M111.9,214.6c0-1.1,0.8-2,2-2c1.1,0,2,0.8,2,2c0,1.1-0.8,2-2,2C112.7,216.5,111.9,215.7,111.9,214.6z"/>
		</g>
		<g>
			<path class="st4" d="M130.8,173.7c0,0,6.3,10.8,16,13.4l0.3,5.9c0,0-12.4-1.4-20.1-16.2L130.8,173.7z"/>
		</g>
		<g>
			<path class="st4" d="M88.5,173.7c0,0-6.2,10.7-15.8,13.2l-0.4,6.5c0,0,12.5-1.8,20.1-16.5L88.5,173.7z"/>
		</g>
		<g>
			<rect x="108.9" y="99.5" class="st4" width="1.3" height="120.5"/>
		</g>
	</g>
	<g>
		<path class="st7" d="M140.9,27.9c3.9,15.6,5.6,27.2,5.6,37.6c0,8.7-5.5,16.2-13.4,18c-7,1.7-16.5,3.5-26.3,4.1
			c-9.7,0.6-18.9-1.1-25.9-3.1c-7.7-2.1-13-9.9-12.7-18.4c0.3-9.4,1.7-23.1,5.9-38.2c0,0,6.3-27.9,34.4-27.9
			C134.7,0,140.9,27.9,140.9,27.9z"/>
		<g>
			<g>
				<g>
					<g>
						<path class="st8" d="M85.9,45.5c0,0-5.2-5.1-9.3-1.8c-4.9,3.9,0.3,18,8.9,16.6L85.9,45.5z"/>
					</g>
				</g>
			</g>
			<path class="st9" d="M83.2,59.7c0,1.4-1.1,2.5-2.5,2.5s-2.5-1.1-2.5-2.5s1.1-2.5,2.5-2.5C82.1,57.2,83.2,58.3,83.2,59.7z"/>
			<g>
				<path class="st10" d="M84.5,55.6c-0.7-2.1-2.7-6.5-7.6-8.4c0,0,5.2,4.9,5.6,8.9c0,0.6,0.4,0.8,1,0.8h0.1
					C84.3,56.9,84.7,56.2,84.5,55.6z"/>
			</g>
		</g>
		<g>
			<g>
				<g>
					<g>
						<path class="st8" d="M129.8,45.5c0,0,5.2-5.1,9.3-1.8c4.9,3.9-0.3,18-8.9,16.6L129.8,45.5z"/>
					</g>
				</g>
			</g>
			<path class="st9" d="M138.4,59.7c0,1.4-1.1,2.5-2.5,2.5s-2.5-1.1-2.5-2.5s1.1-2.5,2.5-2.5C137.2,57.2,138.4,58.3,138.4,59.7z"/>
			<g>
				<path class="st10" d="M131.2,55.6c0.7-2.1,2.7-6.5,7.6-8.4c0,0-5.2,4.9-5.6,8.9c0,0.6-0.4,0.8-1,0.8H132
					C131.5,56.9,131.1,56.2,131.2,55.6z"/>
			</g>
		</g>
		<g>
			<g>
				<path class="st1" d="M119.2,75.7l-0.4,6.8l-0.4,8.6c0,0-1.7,3.2-9.3,3.2c-7.6,0-9.3-2.3-9.3-2.3l-0.3-3.8l-1-12.7h20.7V75.7z"/>
			</g>
			<g>
				<path class="st10" d="M119.2,75.7l-0.4,6.8c-3.2,2.4-10.7,7-19.4,5.8l-1-12.7h20.8V75.7z"/>
			</g>
		</g>
		<path class="st1" d="M135.8,40.1c0,0.8-0.1,1.7-0.3,2.5c-1.8,17.6-7.2,39.7-26.6,39.7c-18.9,0-26.3-20.8-28.7-38
			c-0.1-1.3-0.3-2.5-0.4-3.7C78,24.4,90.6,10.1,107,9.9h1.4c12.1,0.1,22.2,8,25.9,18.9c0.4,1.3,0.8,2.7,1,3.9
			C135.8,35.1,136,37.6,135.8,40.1z"/>
		<g>
			<g>
				<g>
					<path class="st7" d="M97.1,47.4c-1.7,0.3-3.4-1-3.5-2.7c-0.1-0.6,0-1.3,0.3-1.7c-2.5-0.3-2.5-1.8-2.5-1.8
						c0.4,0.7,3.4,0.3,4.6,0.1l0,0c0.1,0,0.3,0,0.4,0l0,0h0.1c1.7-0.1,3.1,1.1,3.4,2.7C100.1,45.6,98.8,47.2,97.1,47.4z"/>
				</g>
			</g>
		</g>
		<g>
			<path class="st10" d="M108.8,74.8c-2.4-0.3-4.1-1.3-4.2-1.3c-0.4-0.3-0.4-0.7-0.3-1s0.7-0.4,1-0.3c0.1,0.1,4.9,2.7,9.3-0.1
				c0.3-0.3,0.8-0.1,1,0.3c0.3,0.3,0.1,0.8-0.3,1C113,74.8,110.8,75,108.8,74.8z"/>
		</g>
		<g>
			<path class="st10" d="M111.1,57.2h-3.8c-0.4,0-0.7-0.3-0.7-0.7s0.3-0.7,0.7-0.7h3.8c0.1,0,0.1,0,0.1,0v-0.1l-3.1-10.7
				c-0.1-0.4,0.1-0.8,0.6-1c0.4-0.1,0.8,0.1,1,0.6l3.1,10.7c0.1,0.6,0,1.1-0.3,1.5C112,56.9,111.6,57.2,111.1,57.2z"/>
		</g>
		<path class="st7" d="M101.2,33.4L101.2,33.4c0.1,0.8-0.6,1.7-1.4,1.7c-3,0.1-9,0.6-11.8,3.8c0,0,1-5.3,11.7-6.6
			C100.4,32,101.1,32.5,101.2,33.4z"/>
		<path class="st7" d="M116.3,33.1L116.3,33.1c-0.1,0.8,0.6,1.5,1.4,1.5c3,0,9,0.4,12,3.4c0,0-1.1-5.3-11.8-6.3
			C117.1,31.7,116.3,32.2,116.3,33.1z"/>
		<g>
			<g>
				<g>
					<path class="st7" d="M119.8,47c1.7,0.3,3.4-1,3.5-2.7c0.1-0.6,0-1.3-0.3-1.7c2.5-0.3,2.5-1.8,2.5-1.8c-0.4,0.7-3.4,0.3-4.6,0.1
						l0,0c-0.1,0-0.3,0-0.4,0l0,0h-0.1c-1.7-0.1-3.1,1.1-3.4,2.7C116.8,45.2,118,46.9,119.8,47z"/>
				</g>
			</g>
		</g>
		<g>
			<path class="st11" d="M119.8,61c0,0.6,0,1.3-0.1,1.8c-0.3,2-1.1,3.7-2.4,5.1c-1.8,2-4.5,3.4-7.3,3.4c-3,0-5.6-1.1-7.5-3.1
				c-1.3-1.4-2.3-3.1-2.5-5.1c-0.1-0.6-0.1-1.1-0.1-1.8c0,0,0,0,0-0.1L119.8,61L119.8,61z"/>
			<path class="st9" d="M119.8,61c0,0.6,0,1.3-0.1,1.8l-19.9,0.3c-0.1-0.6-0.1-1.1-0.1-1.8c0,0,0,0,0-0.1L119.8,61L119.8,61z"/>
			<path class="st12" d="M117.3,67.9c-1.8,2-4.5,3.4-7.3,3.4c-3,0-5.6-1.1-7.5-3.1c1.7-1.8,4.4-3,7.5-3
				C112.7,65.2,115.4,66.2,117.3,67.9z"/>
		</g>
		<path class="st7" d="M132.5,32.5c-7.2-0.6-25.9-6.3-42.9-12.5c0,0,1.5,17.5-8.6,26.2c0,0-0.1-0.8-0.7-1.8
			c-0.1-1.3-0.3-2.5-0.4-3.7C78,24.4,90.6,10.1,107,9.9h1.4c12.1,0.1,22.2,8,25.9,18.9c0.4,1.3,0.8,2.7,1,3.9
			C135.4,32.7,134.4,32.7,132.5,32.5z"/>
		<path class="st7" d="M135.8,40.1c0,0.8-0.1,1.7-0.3,2.5c-2.3-1.3-3-6.8-3.1-10.1c-0.1-1.7,0-2.8,0-2.8s0.1-0.6,2-0.8
			c0.4,1.3,0.8,2.7,1,3.9C135.8,35.1,136,37.6,135.8,40.1z"/>
	</g>
	<g>
		<path class="st6" d="M128.1,475.6l19.3,0.4v8.3l6.2,16.2c0,0,3.2,5.3-1.8,7.2c-5.1,1.8-11.8,9.6-29.6-1.1c0,0-0.4-4.8,1.5-6.9
			l2.5-3.9l2.1-10.3L128.1,475.6z"/>
		<rect x="131.1" y="482.1" class="st4" width="13.8" height="1.5"/>
		<rect x="131.1" y="488.5" class="st4" width="13.8" height="1.5"/>
		<rect x="131.1" y="485.3" class="st4" width="13.8" height="1.5"/>
		<path class="st13" d="M123.7,499.5c2,1.5,5.2,3.8,9.6,4.9c10.1,2.5,18.6-2.4,20.4-3.5c0.6,1.1,1,2.8,0.6,4.5
			c-1.1,4.4-8,5.8-10.6,6.2c-9.2,1.7-17.3-2.4-21.1-4.8c-0.3-0.3-0.4-0.7-0.6-1C121.1,503,123.3,500.1,123.7,499.5z"/>
	</g>
	<g>
		<path class="st6" d="M71.5,475.6l19.3,1.5l-0.6,8.3l5.1,16.6c0,0,3,5.5-2.3,7c-5.2,1.4-12.4,8.9-29.4-3c0,0-0.1-4.8,2-6.9l2.8-3.8
			l2.7-10.1L71.5,475.6z"/>
		
			<rect x="80.1" y="476.6" transform="matrix(6.246053e-02 -0.998 0.998 6.246053e-02 -406.7021 534.0766)" class="st4" width="1.5" height="13.8"/>
		
			<rect x="79.7" y="483.1" transform="matrix(6.246053e-02 -0.998 0.998 6.246053e-02 -413.5585 539.7278)" class="st4" width="1.5" height="13.8"/>
		
			<rect x="80" y="479.9" transform="matrix(6.246053e-02 -0.998 0.998 6.246053e-02 -410.0688 536.9764)" class="st4" width="1.5" height="13.8"/>
		<path class="st13" d="M65.7,499.2c1.8,1.7,4.9,4.1,9.3,5.5c10,3.2,18.7-1.3,20.7-2.3c0.4,1.1,0.8,2.8,0.3,4.5
			c-1.4,4.4-8.4,5.2-11,5.5c-9.3,1.1-17-3.5-20.7-6.1c-0.3-0.3-0.4-0.7-0.4-1C62.9,502.6,65.3,499.8,65.7,499.2z"/>
	</g>
</g>
</svg>
