<?xml version="1.0" encoding="utf-8"?>
<!-- Generator: Adobe Illustrator 25.2.0, SVG Export Plug-In . SVG Version: 6.00 Build 0)  -->
<svg version="1.1" id="Layer_1" xmlns="http://www.w3.org/2000/svg" xmlns:xlink="http://www.w3.org/1999/xlink" x="0px" y="0px"
	 viewBox="0 0 162.8 370" style="enable-background:new 0 0 162.8 370;" xml:space="preserve">
<style type="text/css">
	.st0{opacity:0.1;fill:#32324C;}
	.st1{fill:#FFAF82;}
	.st2{fill:#4E466A;}
	.st3{fill:#3B2744;}
	.st4{fill:#5C507C;}
	.st5{fill:#C0C0C0;}
	.st6{fill:#3D2C45;}
	.st7{fill:#5D507D;}
	.st8{fill:#C9D5E2;}
	.st9{fill:#32324C;}
	.st10{fill:#FFA378;}
	.st11{fill:#FFFFFF;}
	.st12{fill:#F88968;}
	.st13{fill:#920E08;}
	.st14{fill:#F85C66;}
</style>
<ellipse class="st0" cx="78.2" cy="360.7" rx="61" ry="9.2"/>
<g>
	<path class="st0" d="M162.4,252.4c-5.2,76-101,106.8-148.4,47.1c-9.7-12.2-12-41.6-9.5-57.1c10.1-62.5,42.1-68.9,18.2-108.4
		C-1.2,94.5-3.4,22.7,62.7,23.3c66,0.6,23.5,106.1,69,135.7C152.4,172.4,165.1,212.8,162.4,252.4z"/>
	<path class="st0" d="M137.4,141.8c-4,1.4-8.4,0.1-11.1-3.2c-4.3-5.2-11.2-15.7-9.1-28c2.9-17.5,25.1-3.5,26.8,16.1
		C144.8,136.6,141.2,140.5,137.4,141.8z"/>
	<path class="st0" d="M113.8,95.9c-2.1-0.7-3.5-2.7-3.6-4.9c-0.1-3.5,0.4-10,5.2-14.4c6.8-6.3,11.5,6.6,5.9,15.2
		C118.5,96.1,115.8,96.5,113.8,95.9z"/>
	<path class="st0" d="M5,181.3c-2.2-0.3-3.9-2-4.4-4.1c-0.7-3.4-1.4-10,2.5-15.1c5.5-7.4,12.5,4.4,8.6,13.9
		C9.7,180.7,7.1,181.6,5,181.3z"/>
</g>
<path class="st1" d="M54.2,184.5c0,0-1.6,67.5-0.7,82.4l-0.9,78.6c-0.5,1.3-1,2.4-1.2,3c-0.9,2-2.2,5-2,7.1c0,0.3,0.1,0.7,0.4,1
	c0.6,0.6,1.5,0.5,1.9,0.5c1.6-0.1,3.3,0.2,4.9,0.2c3.3,0.1,5.9,0.9,7.2,0c0.2-0.1,0.4-0.3,0.6-0.7c0.2-0.5,0-1,0-1.8
	c0-0.6,0.1-0.9,0.1-1.4c0.3-2.1-0.2-4.3-0.3-4.6c-0.3-1.3-0.6-1.6-0.7-2.7c0-0.7,0.1-1.3,0.2-1.8c1.4-13.3,1.6-27.4,3.3-42.1
	c1.5-12.8,2.6-24.5,0.8-35.3c4.9-21.3,6.9-50.4,7.2-75.6C74.9,191.4,65.3,184.5,54.2,184.5z"/>
<path class="st1" d="M98.7,122.4c-0.6,12.1-1.2,24.3-1.8,36.4c-1,1.3-7.4,9.4-18.6,10.2c-13.2,1-21.5-8.7-22.2-9.6
	c0.3-12,0.5-24,0.8-36l-1.3-17.2c-5.3-3.8-3.8-14.4-3.8-14.4l-2.6-15.8L65,68.9l4.5-2l13.2-0.5l5.1,1.8l16.5,6.5l-1.9,16.9
	c0,0,2.3,8.8-2.6,13.5L98.7,122.4z"/>
<path class="st1" d="M89.1,67.9c-0.5,3.1-2.3,13.9-10.8,13.9c-8.8,0-11.5-10.8-12-13.7l4.5-1.9L84,66L89.1,67.9z"/>
<path class="st1" d="M96,107c0,0-14.5,10.2-35.4,0.6C60.6,107.6,80.1,112.9,96,107"/>
<g>
	<g>
		<g>
			<path class="st1" d="M49.9,193.4c0,0,1.9,2.2,3.7,3.6c1.7,1.5,1.7,3,3,4.5c1.3,1.4-1,2-2.2,0.5c-1.2-1.5-1.3-2.4-1.8-2.3
				c-0.4,0.1,0.2,4.5,0.5,5.8c0.3,1.2,1.9,4.1,1.6,4.7c-0.3,0.6-2.3-0.6-3.2-3.8c-1-3.2-1.2-3-1.2-3s0.2,1.3,0.4,2.7
				c0.2,1.4,0.9,3,1.3,3.8c0.5,0.9-0.4,1.6-0.9,1.2c-0.5-0.4-2.3-3.3-2.5-4.6c-0.1-1.3-0.5-3.5-0.5-3.5s-0.2,3.2-0.1,4
				c0.1,0.8,1.7,3.4,1.1,4.1c-0.2,0.3-1.3,0.3-2.8-3.6c0,0-0.5-2-0.5-3.3c0,0-0.4,1.1-0.2,2.4c0.1,1.1,0.4,2.3,0.8,3.3
				c0.4,1.1-0.8,1.3-1.6-0.6c-0.8-1.8-1.3-4-1.2-5.1c0.2-1.2-1.5-7.2-0.6-9.8L49.9,193.4z"/>
		</g>
	</g>
	<g>
		<path class="st1" d="M42.7,129.8c0,0,2,15,3.2,27c0,0,1.9,10,4.3,36.9c0,0-3.7,2.8-7.4,0.9c0,0-6.1-28-7.5-37.3
			c0,0-6.5-32.9-1.1-40.3C34.2,117,42.8,121.2,42.7,129.8z"/>
	</g>
</g>
<g>
	<g>
		<g>
			<path class="st1" d="M105,193.4c0,0-2,1.9-3.8,3.2c-1.8,1.3-1.7,2.7-3,3.9c-1.3,1.2,1,1.8,2.2,0.4c1.2-1.3,1.4-2.1,1.8-2
				c0.4,0.1-0.2,4-0.6,5.1c-0.4,1.1-2,3.6-1.7,4.1c0.3,0.6,2.3-0.5,3.3-3.3c1-2.8,1.3-2.7,1.3-2.7s-0.2,1.1-0.4,2.4
				c-0.2,1.2-0.9,2.6-1.4,3.3c-0.5,0.7,0.4,1.4,0.9,1.1c0.5-0.3,2.4-2.9,2.5-4c0.1-1.2,0.5-3.1,0.5-3.1s0.1,2.8,0.1,3.5
				c-0.1,0.7-1.7,2.9-1.2,3.6c0.2,0.3,1.3,0.3,2.9-3.1c0,0,0.5-1.7,0.6-2.9c0,0,0.3,1,0.2,2.1c-0.1,1-0.5,2-0.8,2.9
				c-0.4,0.9,0.8,1.1,1.6-0.5c0.8-1.6,1.4-3.5,1.2-4.5c-0.2-1,1.6-6.3,0.7-8.7L105,193.4z"/>
		</g>
	</g>
	<g>
		<path class="st1" d="M113,137.4c0,0-2.2,13.2-3.6,23.8c0,0-2,8.8-4.7,32.5c0,0,3.7,2.5,7.5,0.8c0,0,6.5-24.6,8-32.8
			c0,0,7-28.9,1.5-35.5C121.7,126.1,113,129.8,113,137.4z"/>
	</g>
</g>
<path class="st1" d="M82.2,184.4c0,0,3.5,67.4,5.5,82.3l5,78.4c-0.4,1.4-0.8,2.4-1,3.1c-0.7,2.1-1.8,5.2-1.4,7.2
	c0.1,0.3,0.2,0.7,0.5,1c0.6,0.5,1.5,0.4,1.9,0.4c1.6-0.2,3.3-0.1,4.9-0.2c3.3-0.2,6,0.4,7.2-0.5c0.1-0.1,0.4-0.4,0.6-0.7
	c0.2-0.6-0.1-1-0.2-1.8c-0.1-0.6,0-0.9,0-1.4c0.1-2.1-0.6-4.3-0.6-4.6c-0.4-1.3-0.7-1.5-0.9-2.6c-0.1-0.7,0-1.3,0-1.8
	c0.4-13.3-0.5-27.4,0.1-42.2c0.5-12.9,0.7-24.6-1.9-35.3c3.3-21.6,3.1-50.8,1.5-76C103.3,189.7,93.3,183.4,82.2,184.4z"/>
<path class="st2" d="M91,340.3l13.7,0.3v5.9l4.4,11.5c0,0,2.3,3.8-1.3,5.1c-3.6,1.3-8.4,6.8-21-0.8c0,0-0.3-3.4,1.1-4.9l1.8-2.8
	l1.5-7.3L91,340.3z"/>
<rect x="93.1" y="344.9" class="st3" width="9.8" height="1.1"/>
<rect x="93.1" y="349.5" class="st3" width="9.8" height="1.1"/>
<rect x="93.1" y="347.2" class="st3" width="9.8" height="1.1"/>
<path class="st4" d="M87.9,357.3c1.4,1.1,3.7,2.7,6.8,3.5c7.2,1.8,13.2-1.7,14.5-2.5c0.4,0.8,0.7,2,0.4,3.2
	c-0.8,3.1-5.7,4.1-7.5,4.4c-6.5,1.2-12.3-1.7-15-3.4c-0.2-0.2-0.3-0.5-0.4-0.7C86,359.8,87.6,357.7,87.9,357.3z"/>
<path class="st2" d="M50.8,340.3l13.7,1.1l-0.4,5.9l3.6,11.8c0,0,2.1,3.9-1.6,5c-3.7,1-8.8,6.3-20.9-2.1c0,0-0.1-3.4,1.4-4.9l2-2.7
	l1.9-7.2L50.8,340.3z"/>
<rect x="52.6" y="345.4" transform="matrix(0.998 6.245757e-02 -6.245757e-02 0.998 21.7154 -2.9163)" class="st3" width="9.8" height="1.1"/>
<rect x="52.3" y="350" transform="matrix(0.998 6.245757e-02 -6.245757e-02 0.998 22.0036 -2.8892)" class="st3" width="9.8" height="1.1"/>
<rect x="52.5" y="347.7" transform="matrix(0.998 6.245757e-02 -6.245757e-02 0.998 21.8595 -2.9028)" class="st3" width="9.8" height="1.1"/>
<path class="st4" d="M46.7,357.1c1.3,1.2,3.5,2.9,6.6,3.9c7.1,2.3,13.3-0.9,14.7-1.6c0.3,0.8,0.6,2,0.2,3.2c-1,3.1-6,3.7-7.8,3.9
	c-6.6,0.8-12.1-2.5-14.7-4.3c-0.2-0.2-0.3-0.5-0.3-0.7C44.7,359.5,46.4,357.5,46.7,357.1z"/>
<g>
	<g>
		<path class="st4" d="M48.8,330.4c0,0-0.6,6.1,0,7.7c0.6,1.6,16.3,2.6,18.2,1c1.9-1.6,0.6-7.7,0.6-7.7L48.8,330.4z"/>
	</g>
	<g>
		<path class="st4" d="M108.6,330.4c0,0,0.6,6.1,0,7.7c-0.6,1.6-16.3,2.6-18.2,1c-1.9-1.6-0.6-7.7-0.6-7.7L108.6,330.4z"/>
	</g>
	<g>
		<path class="st3" d="M109,220.2c-0.1-30.2-5.6-51.6-5.6-51.6s-16.6,1-24.7,1.1c-8.1,0-24.7-1.1-24.7-1.1s-5.5,17.8-5.6,51.6
			c0,26.6-7.2,102.1-0.6,112.4c1.8,2.7,19.1,5.8,21.7,0.3c4.2-8.9,7-90.4,9.2-102.6c2.1,12.9,6.5,97.5,9.2,102.6
			c2.8,5.4,20,2.5,21.7-0.3C116.9,321.1,109,246.9,109,220.2z"/>
	</g>
	<g>
		<path class="st4" d="M101,163.8c-1.5-0.3-8.4,1.8-22.3,1.9c-13.9-0.1-20.7-2.2-22.3-1.9c-1.9,0.3-3,4.2-2.5,4.8
			c0,0,11.3,2.5,24.6,2.6l0,0c0,0,0.1,0,0.1,0c0,0,0.1,0,0.1,0l0,0c13.3,0,24.6-2.6,24.6-2.6C103.9,168,102.9,164.1,101,163.8z"/>
	</g>
	<g>
		<g>
			<path class="st5" d="M74.7,168.3c0-0.5,0.4-1,1-1s1,0.4,1,1c0,0.5-0.4,1-1,1S74.7,168.8,74.7,168.3z"/>
		</g>
		<g>
			<path class="st4" d="M75.6,186.7c-0.3,0-0.5-0.2-0.5-0.5v-17.9c0-0.3,0.2-0.5,0.5-0.5c0.3,0,0.5,0.2,0.5,0.5v17.9
				C76.1,186.5,75.9,186.7,75.6,186.7z"/>
		</g>
		<g>
			<path class="st5" d="M79.8,168.3c0-0.5,0.4-1,1-1c0.5,0,1,0.4,1,1c0,0.5-0.4,1-1,1C80.2,169.3,79.8,168.8,79.8,168.3z"/>
		</g>
		<g>
			<path class="st4" d="M80.7,179.7c-0.3,0-0.5-0.2-0.5-0.5v-10.9c0-0.3,0.2-0.5,0.5-0.5c0.3,0,0.5,0.2,0.5,0.5v10.9
				C81.2,179.4,81,179.7,80.7,179.7z"/>
		</g>
		<g>
			<path class="st5" d="M75.6,190.4c-0.4,0-0.7-0.3-0.7-0.7v-5.4c0-0.4,0.3-0.7,0.7-0.7c0.4,0,0.7,0.3,0.7,0.7v5.4
				C76.3,190.1,76,190.4,75.6,190.4z"/>
		</g>
		<g>
			<path class="st5" d="M80.7,184.4c-0.4,0-0.7-0.3-0.7-0.7v-5.4c0-0.4,0.3-0.7,0.7-0.7c0.4,0,0.7,0.3,0.7,0.7v5.4
				C81.5,184,81.1,184.4,80.7,184.4z"/>
		</g>
	</g>
</g>
<g>
	<g>
		<path class="st6" d="M52.6,155.2c0,0,0,7.3,1.3,9.4c1.3,2.1,12,4.7,24,4.7c12,0,20.5-2.1,22.7-4.3c2.1-2.1,2.1-9.4,2.1-9.4
			L52.6,155.2z"/>
	</g>
	<g>
		<path class="st6" d="M59.4,61.6c0,0,7.8-1.7,18-1.7c10.2,0,18.9,1.7,18.9,1.7S95.8,75.7,77.8,77C59.8,78.2,59.4,61.6,59.4,61.6z"
			/>
	</g>
	<g>
		<path class="st6" d="M33.7,155.3c0,0,0.9,5.2,1.4,7.6c0.5,2.4,12.5,0,12.3-2.4c-0.4-4.4-1.7-10.8-1.7-10.8L33.7,155.3z"/>
	</g>
	<g>
		<path class="st2" d="M67.1,70.5c0,0-12.4,0-20.1,6.8c-7.7,6.8-13.7,28.2-15.4,43.2c-1.7,15,0,34.1,2.1,38.5c0.9,1.7,12,0,12.8-1.3
			c2.7-4.1,0.3-11.9,0.9-25.7c0.4-10.3,3.8-20.5,3.8-20.5s1.3,12,0.4,22.2c-0.9,10.3-3.4,21,2.6,25.7c6,4.7,23.5,3.8,23.5,3.8V80v-6
			L67.1,70.5z"/>
	</g>
	<g>
		<path class="st6" d="M121.6,155.3c0,0-0.9,5.2-1.4,7.6c-0.5,2.4-12.5,0-12.3-2.4c0.4-4.4,1.7-10.8,1.7-10.8L121.6,155.3z"/>
	</g>
	<g>
		<path class="st2" d="M123.7,120.6c-1.7-15-7.7-36.4-15.4-43.2c-7.7-6.8-20.1-6.8-20.1-6.8L77.5,74v6v83.4c0,0,17.5,0.9,23.5-3.8
			c6-4.7,3.4-15.4,2.6-25.7s0.4-22.2,0.4-22.2s3.4,10.3,3.8,20.5c0.6,13.8-1.8,21.6,0.9,25.7c0.9,1.3,12,3,12.8,1.3
			C123.8,154.7,125.4,135.6,123.7,120.6z"/>
	</g>
	<g>
		<g>
			<path class="st7" d="M77.4,59.8C77.4,59.8,77.4,59.8,77.4,59.8L77.4,59.8z"/>
		</g>
		<g>
			<path class="st7" d="M77.4,59.8C77.4,59.8,77.4,59.8,77.4,59.8C77.4,59.8,77.4,59.8,77.4,59.8z"/>
		</g>
		<g>
			<path class="st7" d="M77.4,59.8C77.4,59.8,77.4,59.8,77.4,59.8L77.4,59.8z"/>
		</g>
		<g>
			<path class="st7" d="M77.4,59.8C77.4,59.8,77.4,59.8,77.4,59.8C77.4,59.8,77.4,59.8,77.4,59.8z"/>
		</g>
		<g>
			<path class="st7" d="M100.1,65.4c0-3-3.8-3.8-3.8-3.8C95,65.4,83.4,73.1,77.8,73.1c-6,0-17.2-7.8-18.4-11.5c0,0-3.8,0.9-3.8,3.8
				c0,3-5.1,3.4-3.4,7.7c1.6,4,23.9,9.1,26.3,9.2c2.4-0.1,23.5-5.2,25.1-9.2C105.3,68.8,100.1,68.4,100.1,65.4z"/>
		</g>
	</g>
	<g>
		<path class="st7" d="M101.7,146.1c-13.4-3.1-11.5-19.9-11.5-19.9H78.4h-0.2H66.4c0,0,1.9,16.8-11.5,19.9c0,0-1.4,6.2,3.8,9.4
			c2.5,1.5,10.6,2.1,19,2.1l0,0c0.2,0,0.4,0,0.6,0c0.2,0,0.4,0,0.6,0l0,0c8.4-0.1,16.5-0.7,19-2.1
			C103.2,152.3,101.7,146.1,101.7,146.1z"/>
	</g>
	<g>
		<path class="st2" d="M78.1,156.3l-0.4,0c-9.5-0.1-16.4-0.8-18.4-2c-3.2-1.9-3.5-5.2-3.4-6.9l0-0.3l0.3-0.1
			c11.4-3.5,11.6-16.6,11.5-19.1l0-0.4h21l0,0.4c-0.1,2.6,0.2,15.7,11.5,19.1l0.3,0.1l0,0.3c0.1,1.8-0.2,5-3.4,6.9
			c-2,1.2-8.8,1.9-18.4,2L78.1,156.3z M56.8,147.7c-0.1,1.6,0.3,4.3,3,5.9c1.4,0.8,6.9,1.8,17.9,1.8h1.1c11.1-0.1,16.6-1,17.9-1.8
			c2.7-1.6,3-4.2,3-5.9c-8.9-2.9-11.9-11.8-11.8-19.5H68.7C68.8,135.9,65.7,144.9,56.8,147.7z"/>
	</g>
	<g>
		<path class="st7" d="M51.7,111.7l-0.8-0.1c0-0.2,2.9-20.1-1.3-30.6l0.8-0.3C54.7,91.3,51.8,110.8,51.7,111.7z"/>
	</g>
	<g>
		<path class="st7" d="M103.6,111.7c-0.1-0.8-3-20.3,1.3-31l0.8,0.3c-4.2,10.5-1.3,30.4-1.3,30.6L103.6,111.7z"/>
	</g>
	<g>
		<path class="st8" d="M73.5,78c-0.8,0-1.5-0.7-1.5-1.5c0-0.8,0.7-1.5,1.5-1.5c0.8,0,1.5,0.7,1.5,1.5C75,77.4,74.3,78,73.5,78z
			 M73.5,75.5c-0.6,0-1.1,0.5-1.1,1.1c0,0.6,0.5,1.1,1.1,1.1c0.6,0,1.1-0.5,1.1-1.1C74.6,75.9,74.1,75.5,73.5,75.5z"/>
	</g>
	<g>
		<path class="st8" d="M82.1,78c-0.8,0-1.5-0.7-1.5-1.5c0-0.8,0.7-1.5,1.5-1.5c0.8,0,1.5,0.7,1.5,1.5C83.6,77.4,82.9,78,82.1,78z
			 M82.1,75.5c-0.6,0-1.1,0.5-1.1,1.1c0,0.6,0.5,1.1,1.1,1.1c0.6,0,1.1-0.5,1.1-1.1C83.1,75.9,82.7,75.5,82.1,75.5z"/>
	</g>
	<g>
		<path class="st6" d="M73.5,104.9c-0.3,0-0.5-0.2-0.5-0.5V76.5c0-0.3,0.2-0.5,0.5-0.5c0.3,0,0.5,0.2,0.5,0.5v27.8
			C74.1,104.6,73.8,104.9,73.5,104.9z"/>
	</g>
	<g>
		<path class="st6" d="M82.1,99.7c-0.3,0-0.5-0.2-0.5-0.5V76.5c0-0.3,0.2-0.5,0.5-0.5c0.3,0,0.5,0.2,0.5,0.5v22.7
			C82.6,99.5,82.3,99.7,82.1,99.7z"/>
	</g>
	<g>
		<path class="st8" d="M73.5,107.8c-0.2,0-0.4-0.2-0.4-0.4v-5.6c0-0.2,0.2-0.4,0.4-0.4c0.2,0,0.4,0.2,0.4,0.4v5.6
			C74,107.6,73.8,107.8,73.5,107.8z"/>
	</g>
	<g>
		<path class="st8" d="M82.1,101.8c-0.2,0-0.4-0.2-0.4-0.4v-5.6c0-0.2,0.2-0.4,0.4-0.4c0.2,0,0.4,0.2,0.4,0.4v5.6
			C82.5,101.6,82.3,101.8,82.1,101.8z"/>
	</g>
	<g>
		<path class="st2" d="M86.4,74.5c-0.2,0-0.3-0.1-0.4-0.3c-0.1-0.2,0-0.5,0.2-0.6c4-1.7,7.5-4.7,9.8-8.4c0.1-0.2,0.4-0.3,0.6-0.1
			c0.2,0.1,0.3,0.4,0.1,0.6c-2.4,3.8-6,6.9-10.1,8.7C86.5,74.5,86.4,74.5,86.4,74.5z"/>
	</g>
	<g>
		<path class="st2" d="M87.3,77C87.2,77,87.2,77,87.3,77c-0.3,0-0.5-0.2-0.5-0.4c0-0.2,0.2-0.4,0.4-0.4c0,0,0,0,0,0
			c3.8,0,7.6-1.6,10.3-4.3c0.2-0.2,0.4-0.2,0.6,0c0.2,0.2,0.2,0.4,0,0.6C95.3,75.3,91.3,77,87.3,77z"/>
	</g>
	<g>
		<path class="st2" d="M69.2,74.5c-0.1,0-0.1,0-0.2,0c-4.1-1.8-7.7-4.9-10.1-8.7c-0.1-0.2-0.1-0.5,0.1-0.6c0.2-0.1,0.5-0.1,0.6,0.1
			c2.3,3.7,5.8,6.7,9.8,8.4c0.2,0.1,0.3,0.3,0.2,0.6C69.5,74.4,69.3,74.5,69.2,74.5z"/>
	</g>
	<g>
		<path class="st2" d="M68.3,77c-4.1,0-8-1.6-10.9-4.5c-0.2-0.2-0.2-0.4,0-0.6c0.2-0.2,0.4-0.2,0.6,0c2.7,2.7,6.4,4.3,10.3,4.3
			c0,0,0,0,0,0c0.2,0,0.4,0.2,0.4,0.4C68.8,76.8,68.6,77,68.3,77C68.3,77,68.3,77,68.3,77z"/>
	</g>
</g>
<g>
	<path class="st9" d="M100.1,22.3c2.8,11.1,4,19.3,4,26.7c0,6.2-3.9,11.5-9.5,12.8c-5,1.2-11.7,2.5-18.7,2.9
		c-6.9,0.4-13.4-0.8-18.4-2.2c-5.5-1.5-9.2-7-9-13.1c0.2-6.7,1.2-16.4,4.2-27.1c0,0,4.5-19.8,24.4-19.8
		C95.7,2.5,100.1,22.3,100.1,22.3z"/>
	<g>
		<g>
			<g>
				<g>
					<path class="st10" d="M61,34.8c0,0-3.7-3.6-6.6-1.3c-3.5,2.8,0.2,12.8,6.3,11.8L61,34.8z"/>
				</g>
			</g>
		</g>
		<path class="st11" d="M59.1,44.9c0,1-0.8,1.8-1.8,1.8c-1,0-1.8-0.8-1.8-1.8c0-1,0.8-1.8,1.8-1.8C58.3,43.1,59.1,43.9,59.1,44.9z"
			/>
		<g>
			<path class="st12" d="M60,42c-0.5-1.5-1.9-4.6-5.4-6c0,0,3.7,3.5,4,6.3c0,0.4,0.3,0.6,0.7,0.6l0.1,0C59.9,42.9,60.2,42.4,60,42z"
				/>
		</g>
	</g>
	<g>
		<g>
			<g>
				<g>
					<path class="st10" d="M92.2,34.8c0,0,3.7-3.6,6.6-1.3c3.5,2.8-0.2,12.8-6.3,11.8L92.2,34.8z"/>
				</g>
			</g>
		</g>
		<path class="st11" d="M98.3,44.9c0,1-0.8,1.8-1.8,1.8c-1,0-1.8-0.8-1.8-1.8c0-1,0.8-1.8,1.8-1.8C97.5,43.1,98.3,43.9,98.3,44.9z"
			/>
		<g>
			<path class="st12" d="M93.2,42c0.5-1.5,1.9-4.6,5.4-6c0,0-3.7,3.5-4,6.3c0,0.4-0.3,0.6-0.7,0.6l-0.1,0
				C93.4,42.9,93.1,42.4,93.2,42z"/>
		</g>
	</g>
	<g>
		<g>
			<path class="st1" d="M84.7,56.3l-0.3,4.8l-0.3,6.1c0,0-1.2,2.3-6.6,2.3c-5.4,0-6.6-1.6-6.6-1.6l-0.2-2.7l-0.7-9H84.7z"/>
		</g>
		<g>
			<path class="st12" d="M84.7,56.3l-0.3,4.8c-2.3,1.7-7.6,5-13.8,4.1l-0.7-9H84.7z"/>
		</g>
	</g>
	<path class="st1" d="M96.5,31c0,0.6-0.1,1.2-0.2,1.8C95,45.3,91.2,61,77.4,61C64,61,58.7,46.2,57,34c-0.1-0.9-0.2-1.8-0.3-2.6
		C55.4,19.8,64.4,9.7,76,9.5h1c8.6,0.1,15.8,5.7,18.4,13.4c0.3,0.9,0.6,1.9,0.7,2.8C96.5,27.4,96.6,29.2,96.5,31z"/>
	<g>
		<g>
			<g>
				<path class="st9" d="M69,36.2c-1.2,0.2-2.4-0.7-2.5-1.9c-0.1-0.4,0-0.9,0.2-1.2c-1.8-0.2-1.8-1.3-1.8-1.3
					c0.3,0.5,2.4,0.2,3.3,0.1h0c0.1,0,0.2,0,0.3,0c0,0,0,0,0,0c0,0,0.1,0,0.1,0c1.2-0.1,2.2,0.8,2.4,1.9C71.1,34.9,70.2,36,69,36.2z
					"/>
			</g>
		</g>
	</g>
	<g>
		<path class="st12" d="M77.3,55.6c-1.7-0.2-2.9-0.9-3-0.9C74,54.5,74,54.2,74.1,54c0.1-0.2,0.5-0.3,0.7-0.2
			c0.1,0.1,3.5,1.9,6.6-0.1c0.2-0.2,0.6-0.1,0.7,0.2c0.2,0.2,0.1,0.6-0.2,0.7C80.3,55.6,78.7,55.8,77.3,55.6z"/>
	</g>
	<g>
		<path class="st12" d="M78.9,43.1h-2.7c-0.3,0-0.5-0.2-0.5-0.5c0-0.3,0.2-0.5,0.5-0.5h2.7c0.1,0,0.1,0,0.1,0c0,0,0-0.1,0-0.1
			l-2.2-7.6c-0.1-0.3,0.1-0.6,0.4-0.7c0.3-0.1,0.6,0.1,0.7,0.4l2.2,7.6c0.1,0.4,0,0.8-0.2,1.1C79.6,42.9,79.3,43.1,78.9,43.1z"/>
	</g>
	<path class="st9" d="M71.9,26.2L71.9,26.2c0.1,0.6-0.4,1.2-1,1.2c-2.1,0.1-6.4,0.4-8.4,2.7c0,0,0.7-3.8,8.3-4.7
		C71.3,25.2,71.8,25.6,71.9,26.2z"/>
	<path class="st9" d="M82.6,26L82.6,26c-0.1,0.6,0.4,1.1,1,1.1c2.1,0,6.4,0.3,8.5,2.4c0,0-0.8-3.8-8.4-4.5
		C83.2,25,82.6,25.4,82.6,26z"/>
	<g>
		<g>
			<g>
				<path class="st9" d="M85.1,35.9c1.2,0.2,2.4-0.7,2.5-1.9c0.1-0.4,0-0.9-0.2-1.2c1.8-0.2,1.8-1.3,1.8-1.3
					c-0.3,0.5-2.4,0.2-3.3,0.1h0c-0.1,0-0.2,0-0.3,0c0,0,0,0,0,0c0,0-0.1,0-0.1,0c-1.2-0.1-2.2,0.8-2.4,1.9
					C83,34.6,83.8,35.8,85.1,35.9z"/>
			</g>
		</g>
	</g>
	<g>
		<path class="st13" d="M85.1,45.8c0,0.4,0,0.9-0.1,1.3c-0.2,1.4-0.8,2.6-1.7,3.6c-1.3,1.4-3.2,2.4-5.2,2.4c-2.1,0-4-0.8-5.3-2.2
			c-0.9-1-1.6-2.2-1.8-3.6c-0.1-0.4-0.1-0.8-0.1-1.3c0,0,0,0,0-0.1L85.1,45.8C85.1,45.8,85.1,45.8,85.1,45.8z"/>
		<path class="st11" d="M85.1,45.8c0,0.4,0,0.9-0.1,1.3l-14.1,0.2c-0.1-0.4-0.1-0.8-0.1-1.3c0,0,0,0,0-0.1L85.1,45.8
			C85.1,45.8,85.1,45.8,85.1,45.8z"/>
		<path class="st14" d="M83.3,50.7c-1.3,1.4-3.2,2.4-5.2,2.4c-2.1,0-4-0.8-5.3-2.2c1.2-1.3,3.1-2.1,5.3-2.1
			C80.1,48.8,82,49.5,83.3,50.7z"/>
	</g>
	<path class="st9" d="M94.1,25.6c-5.1-0.4-18.4-4.5-30.5-8.9c0,0,1.1,12.4-6.1,18.6c0,0-0.1-0.6-0.5-1.3c-0.1-0.9-0.2-1.8-0.3-2.6
		C55.4,19.8,64.4,9.7,76,9.5h1c8.6,0.1,15.8,5.7,18.4,13.4c0.3,0.9,0.6,1.9,0.7,2.8C96.2,25.7,95.5,25.7,94.1,25.6z"/>
	<path class="st9" d="M96.5,31c0,0.6-0.1,1.2-0.2,1.8c-1.6-0.9-2.1-4.8-2.2-7.2c-0.1-1.2,0-2,0-2s0.1-0.4,1.4-0.6
		c0.3,0.9,0.6,1.9,0.7,2.8C96.5,27.4,96.6,29.2,96.5,31z"/>
</g>
</svg>
