<?xml version="1.0" encoding="utf-8"?>
<!-- Generator: Adobe Illustrator 25.2.0, SVG Export Plug-In . SVG Version: 6.00 Build 0)  -->
<svg version="1.1" id="Layer_1" xmlns="http://www.w3.org/2000/svg" xmlns:xlink="http://www.w3.org/1999/xlink" x="0px" y="0px"
	 viewBox="0 0 310.9 449.4" style="enable-background:new 0 0 310.9 449.4;" xml:space="preserve">
<style type="text/css">
	.st0{opacity:0.1;fill:#32324C;enable-background:new    ;}
	.st1{fill:#FFAF82;}
	.st2{fill:#F88968;}
	.st3{fill:#009762;}
	.st4{fill:#007054;}
	.st5{fill:#32324C;}
	.st6{fill:#FFFFFF;}
	.st7{fill:#920E08;}
	.st8{fill:#F85C66;}
</style>
<g>
	<path class="st0" d="M192.9,370.5c-43,102.6-190.1,99.8-227.3-5.1c-7.6-21.5,3-63.2,13.9-83.3c43.4-81.6,90.7-75.3,76.4-141.1
		C41.4,75,72.1-25.1,163.2,7c90.9,32-17.6,157.7,31.2,220C216.8,255.5,215.2,317.1,192.9,370.5z"/>
	<path class="st0" d="M210.4,206c-6.2,0.1-11.7-3.9-13.8-9.7c-3.5-9.3-8-27,0.6-43c12.3-22.8,36.3,7,29.3,35
		C223.1,202.3,216.3,206,210.4,206z"/>
	<path class="st0" d="M199.6,131.4c-2.5-2-3.5-5.3-2.6-8.4c1.5-4.9,5.3-13.7,13.9-17.5c12.3-5.4,12.7,14.4,0.9,23.9
		C205.9,133.9,201.9,133.3,199.6,131.4z"/>
	<path class="st0" d="M8.9,198c-2.9-1.4-4.5-4.7-4.1-7.8c0.7-5.1,2.8-14.5,10.6-19.8c11.2-7.6,15.2,11.8,5.2,23.3
		C15.6,199.4,11.7,199.3,8.9,198z"/>
</g>
<g>
	<g>
		<g>
			<path class="st1" d="M258.6,286.2c0,0,1.1-7.8,3.5-14.2c2.4-6.4,5.6-14.2,7.2-18.1c1.9-4.7,6.1-2.8,3.8,3.9
				c-2.3,6.7-2.6,10-2.6,10s16.8-25.3,21.1-27c7.8-3.2-2.1,9.3-7.8,20.4c0,0,18.3-19.6,22.8-18.8c5.9,1.1-16.4,24.8-16.4,24.8
				s19-15,20.5-12.5c1.7,2.8-15.9,20.6-15.9,20.6s14-9.2,14.3-7.2c0.8,4-26.6,32.9-42.8,34.7C266.4,302.8,258.9,290.1,258.6,286.2z"
				/>
		</g>
		<g>
			<path class="st2" d="M278.6,263.5c0,0,11,6.7,13.5,18.4C292.1,281.9,295,270.1,278.6,263.5z"/>
		</g>
		<g>
			<path class="st2" d="M279.5,276.5c0,0-4.8,14.2-17.2,9.7C262.3,286.2,274.7,295.8,279.5,276.5z"/>
		</g>
	</g>
	<g>
		<path class="st1" d="M259,284.2c0,0-18.2,11.5-38.6,21c-23.1,10.8-59.8,30-59.8,30c-13.3-12.8-27.1-69.6-32.9-84.2
			c-13.3,11.1-24.5,27.6-21.5,57.7c6.5,19.3,23.4,64.6,40.8,66.5c22.2,2.3,124.4-73.6,124.4-73.6C264.5,297.6,260.5,291.7,259,284.2
			z"/>
	</g>
</g>
<g>
	<path class="st3" d="M76.3,356.9l-15.1,97.2c0,0-35.6,5.5-70.5-5.9c-37.3-12.2-57.3-35.9-57.3-35.9l45.3-87.4l11.2-40.8
		c-9.2-13.1,3.1-36.4,3.1-36.4L0,209l42.4-3.7l12-1l30.8,9.7l10.4,8.3l32.8,28.7l-18.2,37.5c0,0-2,22.3-17.1,29.1L76.3,356.9z"/>
	<path class="st1" d="M95.5,222.3c-3.6,6.8-15.8,30.5-35.6,24c-20.4-6.7-18.4-33.9-17.6-41l12-1l30.8,9.7L95.5,222.3z"/>
	<path class="st4" d="M81.9,318.4c0,0-41.5,12.8-82.7-25.4C-0.8,292.9,40.5,320,81.9,318.4"/>
</g>
<g>
	<path class="st5" d="M108.7,222.6c18.2,3.8,35.9-7.9,39.9-26c8.9-39.9,24.5-69.5,27.7-94.7c2.4-18.5,4.3-48.5-21-70.3
		C118.8,0,75.1,9.7,47.5,41.9c-9.9,11.6-15.3,19.3-27.3,44.4c-8.7,18.1-11.2,34-15.7,46.5c-8.7,24.5,2.3,51.6,25.7,62.9
		C54.6,207.5,84.2,217.5,108.7,222.6z"/>
	<g>
		<g>
			<g>
				<g>
					<path class="st2" d="M144.9,125.3c0,0,17.1-10.2,23.2,5.5c5.4,13.8-9.6,40.7-31.1,32.8L144.9,125.3z"/>
				</g>
			</g>
			<path class="st6" d="M155.2,167.6c-1,3-4.3,4.7-7.3,3.7c-3-1-4.7-4.3-3.7-7.3c1-3,4.3-4.7,7.3-3.7
				C154.5,161.3,156.2,164.6,155.2,167.6z"/>
			<g>
				<g>
					<path class="st1" d="M91,228.9c-5.3,12.7-36.6,10.6-46.1-17.4l7.2-29.4l5.3-21.6l49.8,27.7l-13,32.5L91,228.9z"/>
				</g>
				<g>
					<path class="st2" d="M92.7,224.6c-18.1-5.9-34.6-24.5-42.2-36l6.9-28.1l49.8,27.7L92.7,224.6z"/>
				</g>
			</g>
			<g>
				<path class="st1" d="M76.7,194.4C28.6,165.5,41.5,94.3,41.5,94.3s1.3-4.6,4.4-11c1.7-3.5,3.8-7.5,6.6-11.6
					c8-11.9,20.9-24.2,40.1-25.1c0.6,0,1.2-0.1,1.8-0.1c31.6-0.8,71.5,17.5,71.8,59.1c0,2.5-0.1,5.1-0.5,7.9
					c-0.2,1.6-0.4,3.2-0.7,4.8C158,159,119.9,220.4,76.7,194.4z"/>
			</g>
			<g>
				<path class="st1" d="M50,98.7c0,0-15.3-16.3-26.8-1.3c-10.1,13.2-2.4,47,23.3,45.2L50,98.7z"/>
			</g>
			<path class="st6" d="M38.3,141.2c-1,3-4.3,4.7-7.3,3.7c-3-1-4.7-4.3-3.7-7.3c1-3,4.3-4.7,7.3-3.7
				C37.7,134.9,39.3,138.2,38.3,141.2z"/>
			<g>
				<g>
					<path class="st7" d="M117.4,175.7c-1.4,1.5-3,2.9-4.9,3.9c-3.9,2.1-9.1,2.9-15.8,0.7c-5.7-1.9-9.1-6.5-11.1-11.3
						c-1.4-3.3-2.2-6.7-2.6-9.4c-0.5-3.3-0.5-5.6-0.5-5.6s27.5,8,41.1,10.4c0,0,0,0,0,0c0,0.1-0.6,2.4-2,5.3
						C120.5,171.5,119.2,173.7,117.4,175.7z"/>
				</g>
				<g>
					<path class="st6" d="M121.5,169.6c-13.2-1.6-33.2-8.4-38.6-10c-0.5-3.3-0.5-5.6-0.5-5.6s27.5,8,41.1,10.4c0,0,0,0,0,0
						C123.5,164.5,122.9,166.8,121.5,169.6z"/>
				</g>
			</g>
			<g>
				<path class="st2" d="M41.9,127.4c0-5.4-1.3-17.1-11.2-25.3c0,0,8.4,15.5,6.4,24.7c-0.3,1.2,0.4,2.4,1.6,2.8l0.3,0.1
					C40.4,130,41.9,128.9,41.9,127.4z"/>
			</g>
			<g>
				<path class="st8" d="M112.5,179.6c-3.9,2.1-9.1,2.9-15.8,0.7c-5.7-1.9-9.1-6.5-11.1-11.3c2.1-0.4,7.9-0.9,14.2,3.8
					c0,0,3-0.7,7.3,1.3C109.5,175.2,111.6,176.8,112.5,179.6z"/>
			</g>
			<g>
				<path class="st2" d="M91.3,187.3c-4.7-2.6-7.4-6-7.6-6.3c-0.5-0.7-0.4-1.7,0.3-2.2c0.7-0.5,1.7-0.4,2.2,0.3
					c0.3,0.4,7.6,9.7,19.2,7.7c0.9-0.2,1.7,0.4,1.8,1.3c0.2,0.9-0.4,1.7-1.3,1.8C100.1,191,95,189.4,91.3,187.3z"/>
			</g>
			<g>
				<path class="st2" d="M110,153.1l-7.9-2.6c-0.9-0.3-1.4-1.3-1.1-2.2c0.3-0.9,1.3-1.4,2.2-1.1l7.9,2.6c0.2,0,0.3,0,0.3-0.1
					c0.1,0,0.2-0.1,0.2-0.3l0.8-24.6c0-0.9,0.8-1.7,1.8-1.6c0.9,0,1.7,0.8,1.6,1.8l-0.8,24.6c0,1.2-0.6,2.3-1.6,3
					C112.4,153.3,111.1,153.5,110,153.1z"/>
			</g>
			<path class="st5" d="M103.6,89.7L103.6,89.7c0.1,1.9-1.4,3.5-3.3,3.5c-6.4-0.1-19.8,0.5-26.6,7.1c0,0,2.7-11.7,26.4-13.6
				C101.9,86.6,103.5,87.9,103.6,89.7z"/>
			<path class="st5" d="M135,97.9L135,97.9c-1.1,1.6-0.6,3.8,1.1,4.7c5.6,3.1,16.9,10.3,19.6,19.4c0,0,3.5-11.5-16.1-24.9
				C138.1,96,136,96.4,135,97.9z"/>
			<path class="st5" d="M96.1,51.2c0,0-17.5,44.7-44.8,56.2c0,0,2.1-12.7-15-16.3c0,0-0.6-3.3,1.4-17.9C39.7,58.8,67,5,128.6,29.2
				c0,0,21.3,2.5,41.4,35.5c20.1,33-5,53.8-5,53.8S120.5,96.8,96.1,51.2z"/>
		</g>
	</g>
	<path class="st5" d="M78.7,118.6c0,0,2.8-11.5,13.8-10.9c11,0.5,9.9,15.6,9.9,15.6S95.3,100.9,78.7,118.6z"/>
	<path class="st5" d="M125.2,130.4c0,0,4-11.1,14.9-9.4c10.9,1.7,8.2,16.6,8.2,16.6S143.6,114.4,125.2,130.4z"/>
</g>
</svg>
