<?xml version="1.0" encoding="utf-8"?>
<!-- Generator: Adobe Illustrator 25.2.0, SVG Export Plug-In . SVG Version: 6.00 Build 0)  -->
<svg version="1.1" id="Layer_1" xmlns="http://www.w3.org/2000/svg" xmlns:xlink="http://www.w3.org/1999/xlink" x="0px" y="0px"
	 viewBox="0 0 162.8 370" style="enable-background:new 0 0 162.8 370;" xml:space="preserve">
<style type="text/css">
	.st0{opacity:0.1;fill:#32324C;}
	.st1{fill:#FFAF82;}
	.st2{fill:#32324C;}
	.st3{fill:#FFA378;}
	.st4{fill:#FFFFFF;}
	.st5{fill:#F88968;}
	.st6{fill:#920E08;}
	.st7{fill:#F85C66;}
	.st8{fill:#7BD7FF;}
	.st9{fill:#262262;}
	.st10{fill:#0097DD;}
</style>
<ellipse class="st0" cx="78.2" cy="360.7" rx="61" ry="9.2"/>
<g>
	<path class="st0" d="M162.4,252.4c-5.2,76-101,106.8-148.4,47.1c-9.7-12.2-12-41.6-9.5-57.1c10.1-62.5,42.1-68.9,18.2-108.4
		C-1.2,94.5-3.4,22.7,62.7,23.3c66,0.6,23.5,106.1,69,135.7C152.4,172.4,165.1,212.8,162.4,252.4z"/>
	<path class="st0" d="M137.4,141.8c-4,1.4-8.4,0.1-11.1-3.2c-4.3-5.2-11.2-15.7-9.1-28c2.9-17.5,25.1-3.5,26.8,16.1
		C144.8,136.6,141.2,140.5,137.4,141.8z"/>
	<path class="st0" d="M113.8,95.9c-2.1-0.7-3.5-2.7-3.6-4.9c-0.1-3.5,0.4-10,5.2-14.4c6.8-6.3,11.5,6.6,5.9,15.2
		C118.5,96.1,115.8,96.5,113.8,95.9z"/>
	<path class="st0" d="M5,181.3c-2.2-0.3-3.9-2-4.4-4.1c-0.7-3.4-1.4-10,2.5-15.1c5.5-7.4,12.5,4.4,8.6,13.9
		C9.7,180.7,7.1,181.6,5,181.3z"/>
</g>
<path class="st1" d="M54.2,184.5c0,0-1.6,67.5-0.7,82.4l-0.9,78.6c-0.5,1.3-1,2.4-1.2,3c-0.9,2-2.2,5-2,7.1c0,0.3,0.1,0.7,0.4,1
	c0.6,0.6,1.5,0.5,1.9,0.5c1.6-0.1,3.3,0.2,4.9,0.2c3.3,0.1,5.9,0.9,7.2,0c0.2-0.1,0.4-0.3,0.6-0.7c0.2-0.5,0-1,0-1.8
	c0-0.6,0.1-0.9,0.1-1.4c0.3-2.1-0.2-4.3-0.3-4.6c-0.3-1.3-0.6-1.6-0.7-2.7c0-0.7,0.1-1.3,0.2-1.8c1.4-13.3,1.6-27.4,3.3-42.1
	c1.5-12.8,2.6-24.5,0.8-35.3c4.9-21.3,6.9-50.4,7.2-75.6C74.9,191.4,65.3,184.5,54.2,184.5z"/>
<path class="st1" d="M98.9,122.1c-0.6,12.2-1.2,24.4-1.8,36.6c-1,1.3-7.4,9.4-18.7,10.3c-13.2,1-21.5-8.7-22.3-9.6
	c0.3-12.1,0.5-24.1,0.8-36.2L55.6,106c-5.3-3.8-3.8-14.4-3.8-14.4l-2.6-15.9L65,68.4l4.5-2l13.2-0.5l5.2,1.8l16.6,6.6l-1.9,16.9
	c0,0,2.3,8.8-2.6,13.5L98.9,122.1z"/>
<path class="st1" d="M89.1,67.9c-0.5,3.1-2.3,13.9-10.8,13.9c-8.8,0-11.5-10.8-12-13.7l4.5-1.9L84,66L89.1,67.9z"/>
<path class="st1" d="M96,107c0,0-14.5,10.2-35.4,0.6C60.6,107.6,80.1,112.9,96,107"/>
<g>
	<g>
		<g>
			<path class="st1" d="M29.3,186.2c0,0,1.1,3.8,2.4,6.6c1.3,2.8,0.4,4.9,1.2,7.4c0.8,2.5-2.2,2.3-2.8-0.3c-0.6-2.6-0.3-3.9-0.9-3.9
				c-0.5-0.1-2.1,6.3-2.3,8.1c-0.2,1.8,0.2,6.4-0.5,7.1c-0.7,0.7-2.3-1.9-1.8-6.6c0.5-4.8,0.1-4.7,0.1-4.7s-0.5,1.9-0.9,3.8
				c-0.5,2-0.5,4.4-0.4,5.8c0.1,1.4-1.3,2-1.7,1.3c-0.4-0.7-1.1-5.5-0.5-7.3c0.6-1.9,1.2-5,1.2-5s-1.8,4.3-2.1,5.4
				c-0.3,1.1,0.2,5.3-0.8,6.1c-0.4,0.3-1.7-0.1-1.5-6.1c0,0,0.4-2.9,1.1-4.7c0,0-1,1.4-1.5,3.2c-0.4,1.6-0.7,3.3-0.8,4.9
				c-0.1,1.6-1.5,1.4-1.5-1.5c0-2.9,0.5-6,1.3-7.5c0.8-1.5,2-10.4,4.4-13.7L29.3,186.2z"/>
		</g>
	</g>
	<g>
		<path class="st1" d="M53.5,96.1c0,0-5.4,21.4-10.1,38.3c0,0-2.9,14.4-13.9,52.3c0,0-5.7,2.3-9.1-2.1c0,0,7.2-40.9,10.4-54.3
			c0,0,9.2-47.8,19.4-55.5C50.2,74.9,58,84.4,53.5,96.1z"/>
	</g>
</g>
<g>
	<g>
		<g>
			<path class="st1" d="M125.3,185.5c0,0-1.1,3.8-2.4,6.6c-1.3,2.8-0.4,4.9-1.2,7.4c-0.8,2.5,2.2,2.3,2.8-0.3
				c0.6-2.6,0.3-3.9,0.9-3.9c0.5-0.1,2.1,6.3,2.3,8.1c0.2,1.8-0.2,6.4,0.5,7.1c0.7,0.7,2.3-1.9,1.8-6.6c-0.5-4.8-0.1-4.7-0.1-4.7
				s0.5,1.9,0.9,3.8c0.5,2,0.5,4.4,0.4,5.8c-0.1,1.4,1.3,2,1.7,1.3c0.4-0.7,1.1-5.5,0.5-7.3c-0.6-1.9-1.2-5-1.2-5s1.8,4.3,2.1,5.4
				c0.3,1.1-0.2,5.3,0.8,6.1c0.4,0.3,1.7-0.1,1.5-6.1c0,0-0.4-2.9-1.1-4.7c0,0,1,1.4,1.5,3.2c0.4,1.6,0.7,3.3,0.8,4.9
				c0.1,1.6,1.5,1.4,1.5-1.5c0-2.9-0.5-6-1.3-7.5c-0.8-1.5-2-10.4-4.4-13.7L125.3,185.5z"/>
		</g>
	</g>
	<g>
		<path class="st1" d="M101,95.4c0,0,5.4,21.4,10.1,38.3c0,0,2.9,14.4,13.9,52.3c0,0,5.7,2.3,9.1-2.1c0,0-7.2-40.9-10.4-54.3
			c0,0-9.2-47.8-19.4-55.5C104.3,74.2,96.5,83.7,101,95.4z"/>
	</g>
</g>
<path class="st1" d="M82.2,184.4c0,0,3.5,67.4,5.5,82.3l5,78.4c-0.4,1.4-0.8,2.4-1,3.1c-0.7,2.1-1.8,5.2-1.4,7.2
	c0.1,0.3,0.2,0.7,0.5,1c0.6,0.5,1.5,0.4,1.9,0.4c1.6-0.2,3.3-0.1,4.9-0.2c3.3-0.2,6,0.4,7.2-0.5c0.1-0.1,0.4-0.4,0.6-0.7
	c0.2-0.6-0.1-1-0.2-1.8c-0.1-0.6,0-0.9,0-1.4c0.1-2.1-0.6-4.3-0.6-4.6c-0.4-1.3-0.7-1.5-0.9-2.6c-0.1-0.7,0-1.3,0-1.8
	c0.4-13.3-0.5-27.4,0.1-42.2c0.5-12.9,0.7-24.6-1.9-35.3c3.3-21.6,3.1-50.8,1.5-76C103.3,189.7,93.3,183.4,82.2,184.4z"/>
<g>
	<path class="st2" d="M100.1,22.3c2.8,11.1,4,19.3,4,26.7c0,6.2-3.9,11.5-9.5,12.8c-5,1.2-11.7,2.5-18.7,2.9
		c-6.9,0.4-13.4-0.8-18.4-2.2c-5.5-1.5-9.2-7-9-13.1c0.2-6.7,1.2-16.4,4.2-27.1c0,0,4.5-19.8,24.4-19.8
		C95.7,2.5,100.1,22.3,100.1,22.3z"/>
	<g>
		<g>
			<g>
				<g>
					<path class="st3" d="M61,34.8c0,0-3.7-3.6-6.6-1.3c-3.5,2.8,0.2,12.8,6.3,11.8L61,34.8z"/>
				</g>
			</g>
		</g>
		<path class="st4" d="M59.1,44.9c0,1-0.8,1.8-1.8,1.8c-1,0-1.8-0.8-1.8-1.8c0-1,0.8-1.8,1.8-1.8C58.3,43.1,59.1,43.9,59.1,44.9z"/>
		<g>
			<path class="st5" d="M60,42c-0.5-1.5-1.9-4.6-5.4-6c0,0,3.7,3.5,4,6.3c0,0.4,0.3,0.6,0.7,0.6l0.1,0C59.9,42.9,60.2,42.4,60,42z"
				/>
		</g>
	</g>
	<g>
		<g>
			<g>
				<g>
					<path class="st3" d="M92.2,34.8c0,0,3.7-3.6,6.6-1.3c3.5,2.8-0.2,12.8-6.3,11.8L92.2,34.8z"/>
				</g>
			</g>
		</g>
		<path class="st4" d="M98.3,44.9c0,1-0.8,1.8-1.8,1.8c-1,0-1.8-0.8-1.8-1.8c0-1,0.8-1.8,1.8-1.8C97.5,43.1,98.3,43.9,98.3,44.9z"/>
		<g>
			<path class="st5" d="M93.2,42c0.5-1.5,1.9-4.6,5.4-6c0,0-3.7,3.5-4,6.3c0,0.4-0.3,0.6-0.7,0.6l-0.1,0
				C93.4,42.9,93.1,42.4,93.2,42z"/>
		</g>
	</g>
	<g>
		<g>
			<path class="st1" d="M84.7,56.3l-0.3,4.8l-0.3,6.1c0,0-1.2,2.3-6.6,2.3c-5.4,0-6.6-1.6-6.6-1.6l-0.2-2.7l-0.7-9H84.7z"/>
		</g>
		<g>
			<path class="st5" d="M84.7,56.3l-0.3,4.8c-2.3,1.7-7.6,5-13.8,4.1l-0.7-9H84.7z"/>
		</g>
	</g>
	<path class="st1" d="M96.5,31c0,0.6-0.1,1.2-0.2,1.8C95,45.3,91.2,61,77.4,61C64,61,58.7,46.2,57,34c-0.1-0.9-0.2-1.8-0.3-2.6
		C55.4,19.8,64.4,9.7,76,9.5h1c8.6,0.1,15.8,5.7,18.4,13.4c0.3,0.9,0.6,1.9,0.7,2.8C96.5,27.4,96.6,29.2,96.5,31z"/>
	<g>
		<g>
			<g>
				<path class="st2" d="M69,36.2c-1.2,0.2-2.4-0.7-2.5-1.9c-0.1-0.4,0-0.9,0.2-1.2c-1.8-0.2-1.8-1.3-1.8-1.3
					c0.3,0.5,2.4,0.2,3.3,0.1h0c0.1,0,0.2,0,0.3,0c0,0,0,0,0,0c0,0,0.1,0,0.1,0c1.2-0.1,2.2,0.8,2.4,1.9C71.1,34.9,70.2,36,69,36.2z
					"/>
			</g>
		</g>
	</g>
	<g>
		<path class="st5" d="M77.3,55.6c-1.7-0.2-2.9-0.9-3-0.9C74,54.5,74,54.2,74.1,54c0.1-0.2,0.5-0.3,0.7-0.2c0.1,0.1,3.5,1.9,6.6-0.1
			c0.2-0.2,0.6-0.1,0.7,0.2c0.2,0.2,0.1,0.6-0.2,0.7C80.3,55.6,78.7,55.8,77.3,55.6z"/>
	</g>
	<g>
		<path class="st5" d="M78.9,43.1h-2.7c-0.3,0-0.5-0.2-0.5-0.5c0-0.3,0.2-0.5,0.5-0.5h2.7c0.1,0,0.1,0,0.1,0c0,0,0-0.1,0-0.1
			l-2.2-7.6c-0.1-0.3,0.1-0.6,0.4-0.7c0.3-0.1,0.6,0.1,0.7,0.4l2.2,7.6c0.1,0.4,0,0.8-0.2,1.1C79.6,42.9,79.3,43.1,78.9,43.1z"/>
	</g>
	<path class="st2" d="M71.9,26.2L71.9,26.2c0.1,0.6-0.4,1.2-1,1.2c-2.1,0.1-6.4,0.4-8.4,2.7c0,0,0.7-3.8,8.3-4.7
		C71.3,25.2,71.8,25.6,71.9,26.2z"/>
	<path class="st2" d="M82.6,26L82.6,26c-0.1,0.6,0.4,1.1,1,1.1c2.1,0,6.4,0.3,8.5,2.4c0,0-0.8-3.8-8.4-4.5
		C83.2,25,82.6,25.4,82.6,26z"/>
	<g>
		<g>
			<g>
				<path class="st2" d="M85.1,35.9c1.2,0.2,2.4-0.7,2.5-1.9c0.1-0.4,0-0.9-0.2-1.2c1.8-0.2,1.8-1.3,1.8-1.3
					c-0.3,0.5-2.4,0.2-3.3,0.1h0c-0.1,0-0.2,0-0.3,0c0,0,0,0,0,0c0,0-0.1,0-0.1,0c-1.2-0.1-2.2,0.8-2.4,1.9
					C83,34.6,83.8,35.8,85.1,35.9z"/>
			</g>
		</g>
	</g>
	<g>
		<path class="st6" d="M85.1,45.8c0,0.4,0,0.9-0.1,1.3c-0.2,1.4-0.8,2.6-1.7,3.6c-1.3,1.4-3.2,2.4-5.2,2.4c-2.1,0-4-0.8-5.3-2.2
			c-0.9-1-1.6-2.2-1.8-3.6c-0.1-0.4-0.1-0.8-0.1-1.3c0,0,0,0,0-0.1L85.1,45.8C85.1,45.8,85.1,45.8,85.1,45.8z"/>
		<path class="st4" d="M85.1,45.8c0,0.4,0,0.9-0.1,1.3l-14.1,0.2c-0.1-0.4-0.1-0.8-0.1-1.3c0,0,0,0,0-0.1L85.1,45.8
			C85.1,45.8,85.1,45.8,85.1,45.8z"/>
		<path class="st7" d="M83.3,50.7c-1.3,1.4-3.2,2.4-5.2,2.4c-2.1,0-4-0.8-5.3-2.2c1.2-1.3,3.1-2.1,5.3-2.1
			C80.1,48.8,82,49.5,83.3,50.7z"/>
	</g>
	<path class="st2" d="M94.1,25.6c-5.1-0.4-18.4-4.5-30.5-8.9c0,0,1.1,12.4-6.1,18.6c0,0-0.1-0.6-0.5-1.3c-0.1-0.9-0.2-1.8-0.3-2.6
		C55.4,19.8,64.4,9.7,76,9.5h1c8.6,0.1,15.8,5.7,18.4,13.4c0.3,0.9,0.6,1.9,0.7,2.8C96.2,25.7,95.5,25.7,94.1,25.6z"/>
	<path class="st2" d="M96.5,31c0,0.6-0.1,1.2-0.2,1.8c-1.6-0.9-2.1-4.8-2.2-7.2c-0.1-1.2,0-2,0-2s0.1-0.4,1.4-0.6
		c0.3,0.9,0.6,1.9,0.7,2.8C96.5,27.4,96.6,29.2,96.5,31z"/>
</g>
<path class="st8" d="M91,340.3l13.7,0.3v5.9l4.4,11.5c0,0,2.3,3.8-1.3,5.1c-3.6,1.3-8.4,6.8-21-0.8c0,0-0.3-3.4,1.1-4.9l1.8-2.8
	l1.5-7.3L91,340.3z"/>
<rect x="93.1" y="344.9" class="st9" width="9.8" height="1.1"/>
<rect x="93.1" y="349.5" class="st9" width="9.8" height="1.1"/>
<rect x="93.1" y="347.2" class="st9" width="9.8" height="1.1"/>
<path class="st10" d="M87.9,357.3c1.4,1.1,3.7,2.7,6.8,3.5c7.2,1.8,13.2-1.7,14.5-2.5c0.4,0.8,0.7,2,0.4,3.2
	c-0.8,3.1-5.7,4.1-7.5,4.4c-6.5,1.2-12.3-1.7-15-3.4c-0.2-0.2-0.3-0.5-0.4-0.7C86,359.8,87.6,357.7,87.9,357.3z"/>
<path class="st8" d="M50.8,340.3l13.7,1.1l-0.4,5.9l3.6,11.8c0,0,2.1,3.9-1.6,5c-3.7,1-8.8,6.3-20.9-2.1c0,0-0.1-3.4,1.4-4.9l2-2.7
	l1.9-7.2L50.8,340.3z"/>
<rect x="52.6" y="345.4" transform="matrix(0.998 6.245757e-02 -6.245757e-02 0.998 21.7154 -2.9163)" class="st9" width="9.8" height="1.1"/>
<rect x="52.3" y="350" transform="matrix(0.998 6.245757e-02 -6.245757e-02 0.998 22.0036 -2.8892)" class="st9" width="9.8" height="1.1"/>
<rect x="52.5" y="347.7" transform="matrix(0.998 6.245757e-02 -6.245757e-02 0.998 21.8595 -2.9028)" class="st9" width="9.8" height="1.1"/>
<path class="st10" d="M46.7,357.1c1.3,1.2,3.5,2.9,6.6,3.9c7.1,2.3,13.3-0.9,14.7-1.6c0.3,0.8,0.6,2,0.2,3.2c-1,3.1-6,3.7-7.8,3.9
	c-6.6,0.8-12.1-2.5-14.7-4.3c-0.2-0.2-0.3-0.5-0.3-0.7C44.7,359.5,46.4,357.5,46.7,357.1z"/>
<g>
	<path class="st8" d="M98,154.1H56c-17.5,30.7-5.9,71.3-21,103.2c-2.6,5.4-5.3,13.1-0.3,16.3c5.3,3.5,12.3-3.3,18.5-1.9
		c6.2,1.3,9.3,10,15.6,9.9c6.1-0.1,8.9-8.4,14.8-10c7.1-2,14.2,6.7,21,4.1c4.2-1.6,7.1-7.1,11.5-6.3c2.1,0.4,3.8,2.3,6,2.2
		c2.4-0.2,3.8-2.9,4-5.3c0.7-7.4-4.8-13.6-8.2-20.2c-6.8-13.3-5-29.1-5.5-44.1C111.7,182.9,106.7,171.2,98,154.1z"/>
	<polygon class="st10" points="56,154.1 98,154.1 98,147.5 56.3,147.5 	"/>
	<g>
		<path class="st10" d="M62.4,154.1h-0.5c-5.5,10.1-9.5,19.2-11,29c-1.3,8.3-0.7,16.9-0.1,25.2c0.7,9.4,1.4,19.2-0.7,28.5
			c-1,4.6-2.8,9-4.4,13.4c-1.3,3.5-2.7,7.1-3.7,10.7c-0.9,3.3-1.9,8.3-1.5,13.6c0.1,0,0.3-0.1,0.4-0.1c-0.4-5.1,0.6-10.1,1.5-13.4
			c1-3.6,2.4-7.2,3.7-10.7c1.7-4.3,3.4-8.8,4.4-13.4c2.1-9.4,1.4-19.2,0.7-28.6c-0.6-8.3-1.2-16.9,0.1-25.1
			C52.9,173.3,56.9,164.3,62.4,154.1z"/>
		<path class="st10" d="M88.8,271.8c0.1,0,0.3,0.1,0.4,0.1c1.2-16.2-0.6-32.6-5.4-48.2c-1.1-3.6-2.4-7.2-3.6-10.7
			c-2.1-6-4.3-12.2-5.7-18.5c-2.6-11.9-2.5-25.2,0.3-40.5h-0.5c-2.8,15.4-2.9,28.7-0.3,40.6c1.4,6.3,3.6,12.5,5.7,18.5
			c1.2,3.5,2.5,7.1,3.6,10.7C88.2,239.4,90,255.7,88.8,271.8z"/>
		<path class="st10" d="M66.9,154.1c-9,16-7.2,36.1-4.5,52.1c0.4,2.6,0.9,5.2,1.4,7.8c2.8,15.9,5.8,32.3,1.9,47.9
			c-0.6,2.2-1.3,4.5-1.9,6.8c-0.9,2.9-1.8,5.9-2.4,8.9c0.1,0.1,0.3,0.3,0.4,0.4c0.6-3,1.5-6.1,2.5-9.1c0.7-2.2,1.4-4.5,2-6.8
			c3.9-15.7,1-32.2-1.9-48.1c-0.5-2.6-0.9-5.2-1.4-7.8c-2.7-16-4.5-36.1,4.6-52.1H66.9z"/>
		<path class="st10" d="M110.2,250.3c-1.2-2.6-2.4-5.3-3.5-7.9c-4.7-12.1-5.1-25.5-5.6-38.5c-0.1-2.2-0.1-4.3-0.2-6.5
			c-0.6-14.5-2.5-30.9-11.6-43.3H89l-0.1,0.1c9.2,12.3,11,28.8,11.6,43.3c0.1,2.2,0.2,4.3,0.2,6.5c0.4,13,0.9,26.4,5.6,38.6
			c1,2.6,2.3,5.3,3.5,7.9c2.9,6.2,5.8,12.6,6.1,19c0,0,0.1,0,0.1,0c0.1,0,0.2,0.1,0.3,0.1C116.1,263.1,113.1,256.6,110.2,250.3z"/>
		<path class="st10" d="M103.1,261.1c-1-4.4-2.3-8.9-3.6-13.1c-1.7-6-3.5-12.2-4.6-18.4c-1.2-6.9-1.4-13.9-1.7-20.8
			c-0.2-3.9-0.3-7.9-0.6-11.8c-1.2-14.7-4.6-29.1-10.1-42.8H82c5.6,13.7,9,28.1,10.2,42.8c0.3,3.9,0.5,7.9,0.6,11.8
			c0.3,6.9,0.5,14,1.7,20.8c1.1,6.3,2.9,12.5,4.6,18.4c1.2,4.3,2.5,8.7,3.5,13.1c1.2,5.3,1.9,10.1,2,14.6c0.2-0.1,0.3-0.1,0.4-0.2
			C104.9,271.1,104.3,266.3,103.1,261.1z"/>
	</g>
</g>
<g>
	
		<rect x="76.2" y="60.5" transform="matrix(0.5483 -0.8363 0.8363 0.5483 -35.2515 102.7136)" class="st10" width="2.5" height="47"/>
</g>
<g>
	
		<rect x="54.4" y="82.7" transform="matrix(0.8273 -0.5618 0.5618 0.8273 -33.8332 57.9435)" class="st10" width="45.9" height="2.5"/>
</g>
<g>
	<path class="st9" d="M97.8,88.9c-0.5-4.3,2.9-16,2.9-16L95.6,70c0,0-0.7,11.6-8.7,18.2c-6.2,5.1-8.9,11.5-9.8,14.1
		c-0.9-2.6-3.6-9-9.8-14.1c-8-6.5-8.7-18.2-8.7-18.2l-5.1,2.9c0,0,3.5,11.7,2.9,16c-0.7,5.8-4.4,10.9-4.4,10.9l2.9,30.6h21.8h0.7
		h21.8l2.9-30.6C102.1,99.9,98.5,94.8,97.8,88.9z"/>
</g>
<g>
	<rect x="76.5" y="101.2" class="st10" width="1" height="29.2"/>
</g>
<g>
	<polygon class="st10" points="77,129.1 74.4,135.4 79.7,135.4 	"/>
</g>
</svg>
