<?xml version="1.0" encoding="utf-8"?>
<!-- Generator: Adobe Illustrator 25.2.0, SVG Export Plug-In . SVG Version: 6.00 Build 0)  -->
<svg version="1.1" id="Layer_1" xmlns="http://www.w3.org/2000/svg" xmlns:xlink="http://www.w3.org/1999/xlink" x="0px" y="0px"
	 viewBox="0 0 162.8 370" style="enable-background:new 0 0 162.8 370;" xml:space="preserve">
<style type="text/css">
	.st0{opacity:0.1;fill:#32324C;}
	.st1{fill:#1D86A6;}
	.st2{fill:#E82E56;}
	.st3{fill:#A9233E;}
	.st4{fill:#FFAF82;}
	.st5{fill:#32324C;}
	.st6{fill:#FFA378;}
	.st7{fill:#FFFFFF;}
	.st8{fill:#F88968;}
	.st9{fill:#920E08;}
	.st10{fill:#F85C66;}
	.st11{fill:#FD7A8C;}
	.st12{fill:#F23051;}
	.st13{fill:#E7C123;}
</style>
<ellipse class="st0" cx="78.2" cy="360.7" rx="61" ry="9.2"/>
<g>
	<path class="st0" d="M162.4,252.4c-5.2,76-101,106.8-148.4,47.1c-9.7-12.2-12-41.6-9.5-57.1c10.1-62.5,42.1-68.9,18.2-108.4
		C-1.2,94.5-3.4,22.7,62.7,23.3c66,0.6,23.5,106.1,69,135.7C152.4,172.4,165.1,212.8,162.4,252.4z"/>
	<path class="st0" d="M137.4,141.8c-4,1.4-8.4,0.1-11.1-3.2c-4.3-5.2-11.2-15.7-9.1-28c2.9-17.5,25.1-3.5,26.8,16.1
		C144.8,136.6,141.2,140.5,137.4,141.8z"/>
	<path class="st0" d="M113.8,95.9c-2.1-0.7-3.5-2.7-3.6-4.9c-0.1-3.5,0.4-10,5.2-14.4c6.8-6.3,11.5,6.6,5.9,15.2
		C118.5,96.1,115.8,96.5,113.8,95.9z"/>
	<path class="st0" d="M5,181.3c-2.2-0.3-3.9-2-4.4-4.1c-0.7-3.4-1.4-10,2.5-15.1c5.5-7.4,12.5,4.4,8.6,13.9
		C9.7,180.7,7.1,181.6,5,181.3z"/>
</g>
<g>
	<path class="st1" d="M48.1,185.4c0-9.5,3-15.8,3-15.8c19.6-1,50.5,0,50.5,0c0,0.1,0.1,0.2,0.1,0.3c0,0,2.1,6.9,1.3,15.6
		C84,194.5,65.6,193.9,48.1,185.4z"/>
</g>
<g>
	<g>
		<path class="st2" d="M65.3,335.9c2.6-0.1,4.4,1.9,4.7,2.2c1.4,1.6,1.4,3.4,1.7,5.9c1,8.8,3.2,9.7,2.2,14.4
			c-0.3,1.2-0.8,3.4-2.6,5.4c-0.6,0.6-3.3,3.6-7,3.3c-4.1-0.3-6.6-4.4-7.5-7.2c-0.3-1-0.5-2,0.4-7.9c1.3-9.6,2.4-11.6,3.6-13.1
			C61.6,337.8,63.1,336.1,65.3,335.9z"/>
	</g>
	<path class="st3" d="M58,356.4c0.5,0.6,1.1,0.4,4.8,0.3c2.1-0.1,4.2-0.2,6.3-0.2c1.7,0,2.7,0.1,3.2-0.6c0.3-0.5,0.2-0.9,0-2.3
		c-0.5-3.8,0-3.9-0.6-6c-0.4-1.4-0.6-1.4-0.9-2.6c-0.3-1.5,0-1.9-0.3-3.1c-0.1-0.6-0.5-2.1-1.8-3.1c-1.6-1.2-3.9-1-5.4-0.3
		c-1.6,0.8-2.3,2.1-2.7,2.7c-1.1,1.9-0.4,2.7-1.3,6c-0.6,2.1-1,2.1-1.4,4.1C57.4,353.4,57,355.4,58,356.4z"/>
</g>
<path class="st4" d="M49.4,184.4c0,0,3.5,67.4,5.5,82.3l5,78.4c-0.4,1.4-0.8,2.4-1,3.1c-0.7,2.1-1.8,5.2-1.4,7.2
	c0.1,0.3,0.2,0.7,0.5,1c0.6,0.5,1.5,0.4,1.9,0.4c1.6-0.2,3.3-0.1,4.9-0.2c3.3-0.2,6,0.4,7.2-0.5c0.1-0.1,0.4-0.4,0.6-0.7
	c0.2-0.6-0.1-1-0.2-1.8c-0.1-0.6,0-0.9,0-1.4c0.1-2.1-0.6-4.3-0.6-4.6c-0.4-1.3-0.7-1.5-0.9-2.6c-0.1-0.7,0-1.3,0-1.8
	c0.4-13.3-0.5-27.4,0.1-42.2c0.5-12.9,0.7-24.6-1.9-35.3c3.3-21.6,3.1-50.8,1.5-76C70.5,189.7,60.5,183.4,49.4,184.4z"/>
<path class="st4" d="M98.7,122.7c-0.9,12.2-1.8,24.4-2.7,36.6c-1,1.3-7.6,9.2-18.9,9.8c-13.2,0.7-21.3-9.3-22-10.2
	c0.6-12.1,1.1-24.1,1.7-36.2l-0.9-17.3c-5.2-3.9-3.4-14.5-3.4-14.5l-2.2-16l16-6.8l4.5-1.9L84,66l5.1,1.9l16.4,7l-2.3,16.9
	c0,0,2.1,8.9-3,13.5L98.7,122.7z"/>
<path class="st4" d="M89.1,67.9c-0.5,3.1-2.3,13.9-10.8,13.9c-8.8,0-11.5-10.8-12-13.7l4.5-1.9L84,66L89.1,67.9z"/>
<path class="st4" d="M96,107c0,0-14.5,10.2-35.4,0.6C60.6,107.6,80.1,112.9,96,107"/>
<g>
	<g>
		<g>
			<path class="st4" d="M29.3,186.2c0,0,1.1,3.8,2.4,6.6c1.3,2.8,0.4,4.9,1.2,7.4c0.8,2.5-2.2,2.3-2.8-0.3c-0.6-2.6-0.3-3.9-0.9-3.9
				c-0.5-0.1-2.1,6.3-2.3,8.1c-0.2,1.8,0.2,6.4-0.5,7.1c-0.7,0.7-2.3-1.9-1.8-6.6c0.5-4.8,0.1-4.7,0.1-4.7s-0.5,1.9-0.9,3.8
				c-0.5,2-0.5,4.4-0.4,5.8c0.1,1.4-1.3,2-1.7,1.3c-0.4-0.7-1.1-5.5-0.5-7.3c0.6-1.9,1.2-5,1.2-5s-1.8,4.3-2.1,5.4
				c-0.3,1.1,0.2,5.3-0.8,6.1c-0.4,0.3-1.7-0.1-1.5-6.1c0,0,0.4-2.9,1.1-4.7c0,0-1,1.4-1.5,3.2c-0.4,1.6-0.7,3.3-0.8,4.9
				c-0.1,1.6-1.5,1.4-1.5-1.5c0-2.9,0.5-6,1.3-7.5c0.8-1.5,2-10.4,4.4-13.7L29.3,186.2z"/>
		</g>
	</g>
	<g>
		<path class="st4" d="M53.5,96.1c0,0-5.4,21.4-10.1,38.3c0,0-2.9,14.4-13.9,52.3c0,0-5.7,2.3-9.1-2.1c0,0,7.2-40.9,10.4-54.3
			c0,0,9.2-47.8,19.4-55.5C50.2,74.9,58,84.4,53.5,96.1z"/>
	</g>
</g>
<g>
	<g>
		<g>
			<path class="st4" d="M126.5,186.2c0,0-1.1,3.8-2.4,6.6c-1.3,2.8-0.4,4.9-1.2,7.4c-0.8,2.5,2.2,2.3,2.8-0.3
				c0.6-2.6,0.3-3.9,0.9-3.9c0.5-0.1,2.1,6.3,2.3,8.1c0.2,1.8-0.2,6.4,0.5,7.1c0.7,0.7,2.3-1.9,1.8-6.6c-0.5-4.8-0.1-4.7-0.1-4.7
				s0.5,1.9,0.9,3.8c0.5,2,0.5,4.4,0.4,5.8c-0.1,1.4,1.3,2,1.7,1.3c0.4-0.7,1.1-5.5,0.5-7.3c-0.6-1.9-1.2-5-1.2-5s1.8,4.3,2.1,5.4
				c0.3,1.1-0.2,5.3,0.8,6.1c0.4,0.3,1.7-0.1,1.5-6.1c0,0-0.4-2.9-1.1-4.7c0,0,1,1.4,1.5,3.2c0.4,1.6,0.7,3.3,0.8,4.9
				c0.1,1.6,1.5,1.4,1.5-1.5c0-2.9-0.5-6-1.3-7.5c-0.8-1.5-2-10.4-4.4-13.7L126.5,186.2z"/>
		</g>
	</g>
	<g>
		<path class="st4" d="M102.3,96.1c0,0,5.4,21.4,10.1,38.3c0,0,2.9,14.4,13.9,52.3c0,0,5.7,2.3,9.1-2.1c0,0-7.2-40.9-10.4-54.3
			c0,0-9.2-47.8-19.4-55.5C105.6,74.9,97.8,84.4,102.3,96.1z"/>
	</g>
</g>
<g>
	<path class="st5" d="M100.1,22.3c2.8,11.1,4,19.3,4,26.7c0,6.2-3.9,11.5-9.5,12.8c-5,1.2-11.7,2.5-18.7,2.9
		c-6.9,0.4-13.4-0.8-18.4-2.2c-5.5-1.5-9.2-7-9-13.1c0.2-6.7,1.2-16.4,4.2-27.1c0,0,4.5-19.8,24.4-19.8
		C95.7,2.5,100.1,22.3,100.1,22.3z"/>
	<g>
		<g>
			<g>
				<g>
					<path class="st6" d="M61,34.8c0,0-3.7-3.6-6.6-1.3c-3.5,2.8,0.2,12.8,6.3,11.8L61,34.8z"/>
				</g>
			</g>
		</g>
		<path class="st7" d="M59.1,44.9c0,1-0.8,1.8-1.8,1.8c-1,0-1.8-0.8-1.8-1.8c0-1,0.8-1.8,1.8-1.8C58.3,43.1,59.1,43.9,59.1,44.9z"/>
		<g>
			<path class="st8" d="M60,42c-0.5-1.5-1.9-4.6-5.4-6c0,0,3.7,3.5,4,6.3c0,0.4,0.3,0.6,0.7,0.6l0.1,0C59.9,42.9,60.2,42.4,60,42z"
				/>
		</g>
	</g>
	<g>
		<g>
			<g>
				<g>
					<path class="st6" d="M92.2,34.8c0,0,3.7-3.6,6.6-1.3c3.5,2.8-0.2,12.8-6.3,11.8L92.2,34.8z"/>
				</g>
			</g>
		</g>
		<path class="st7" d="M98.3,44.9c0,1-0.8,1.8-1.8,1.8c-1,0-1.8-0.8-1.8-1.8c0-1,0.8-1.8,1.8-1.8C97.5,43.1,98.3,43.9,98.3,44.9z"/>
		<g>
			<path class="st8" d="M93.2,42c0.5-1.5,1.9-4.6,5.4-6c0,0-3.7,3.5-4,6.3c0,0.4-0.3,0.6-0.7,0.6l-0.1,0
				C93.4,42.9,93.1,42.4,93.2,42z"/>
		</g>
	</g>
	<g>
		<g>
			<path class="st4" d="M84.7,56.3l-0.3,4.8l-0.3,6.1c0,0-1.2,2.3-6.6,2.3c-5.4,0-6.6-1.6-6.6-1.6l-0.2-2.7l-0.7-9H84.7z"/>
		</g>
		<g>
			<path class="st8" d="M84.7,56.3l-0.3,4.8c-2.3,1.7-7.6,5-13.8,4.1l-0.7-9H84.7z"/>
		</g>
	</g>
	<path class="st4" d="M96.5,31c0,0.6-0.1,1.2-0.2,1.8C95,45.3,91.2,61,77.4,61C64,61,58.7,46.2,57,34c-0.1-0.9-0.2-1.8-0.3-2.6
		C55.4,19.8,64.4,9.7,76,9.5h1c8.6,0.1,15.8,5.7,18.4,13.4c0.3,0.9,0.6,1.9,0.7,2.8C96.5,27.4,96.6,29.2,96.5,31z"/>
	<g>
		<g>
			<g>
				<path class="st5" d="M69,36.2c-1.2,0.2-2.4-0.7-2.5-1.9c-0.1-0.4,0-0.9,0.2-1.2c-1.8-0.2-1.8-1.3-1.8-1.3
					c0.3,0.5,2.4,0.2,3.3,0.1h0c0.1,0,0.2,0,0.3,0c0,0,0,0,0,0c0,0,0.1,0,0.1,0c1.2-0.1,2.2,0.8,2.4,1.9C71.1,34.9,70.2,36,69,36.2z
					"/>
			</g>
		</g>
	</g>
	<g>
		<path class="st8" d="M77.3,55.6c-1.7-0.2-2.9-0.9-3-0.9C74,54.5,74,54.2,74.1,54c0.1-0.2,0.5-0.3,0.7-0.2c0.1,0.1,3.5,1.9,6.6-0.1
			c0.2-0.2,0.6-0.1,0.7,0.2c0.2,0.2,0.1,0.6-0.2,0.7C80.3,55.6,78.7,55.8,77.3,55.6z"/>
	</g>
	<g>
		<path class="st8" d="M78.9,43.1h-2.7c-0.3,0-0.5-0.2-0.5-0.5c0-0.3,0.2-0.5,0.5-0.5h2.7c0.1,0,0.1,0,0.1,0c0,0,0-0.1,0-0.1
			l-2.2-7.6c-0.1-0.3,0.1-0.6,0.4-0.7c0.3-0.1,0.6,0.1,0.7,0.4l2.2,7.6c0.1,0.4,0,0.8-0.2,1.1C79.6,42.9,79.3,43.1,78.9,43.1z"/>
	</g>
	<path class="st5" d="M71.9,26.2L71.9,26.2c0.1,0.6-0.4,1.2-1,1.2c-2.1,0.1-6.4,0.4-8.4,2.7c0,0,0.7-3.8,8.3-4.7
		C71.3,25.2,71.8,25.6,71.9,26.2z"/>
	<path class="st5" d="M82.6,26L82.6,26c-0.1,0.6,0.4,1.1,1,1.1c2.1,0,6.4,0.3,8.5,2.4c0,0-0.8-3.8-8.4-4.5
		C83.2,25,82.6,25.4,82.6,26z"/>
	<g>
		<g>
			<g>
				<path class="st5" d="M85.1,35.9c1.2,0.2,2.4-0.7,2.5-1.9c0.1-0.4,0-0.9-0.2-1.2c1.8-0.2,1.8-1.3,1.8-1.3
					c-0.3,0.5-2.4,0.2-3.3,0.1h0c-0.1,0-0.2,0-0.3,0c0,0,0,0,0,0c0,0-0.1,0-0.1,0c-1.2-0.1-2.2,0.8-2.4,1.9
					C83,34.6,83.8,35.8,85.1,35.9z"/>
			</g>
		</g>
	</g>
	<g>
		<path class="st9" d="M85.1,45.8c0,0.4,0,0.9-0.1,1.3c-0.2,1.4-0.8,2.6-1.7,3.6c-1.3,1.4-3.2,2.4-5.2,2.4c-2.1,0-4-0.8-5.3-2.2
			c-0.9-1-1.6-2.2-1.8-3.6c-0.1-0.4-0.1-0.8-0.1-1.3c0,0,0,0,0-0.1L85.1,45.8C85.1,45.8,85.1,45.8,85.1,45.8z"/>
		<path class="st7" d="M85.1,45.8c0,0.4,0,0.9-0.1,1.3l-14.1,0.2c-0.1-0.4-0.1-0.8-0.1-1.3c0,0,0,0,0-0.1L85.1,45.8
			C85.1,45.8,85.1,45.8,85.1,45.8z"/>
		<path class="st10" d="M83.3,50.7c-1.3,1.4-3.2,2.4-5.2,2.4c-2.1,0-4-0.8-5.3-2.2c1.2-1.3,3.1-2.1,5.3-2.1
			C80.1,48.8,82,49.5,83.3,50.7z"/>
	</g>
	<path class="st5" d="M94.1,25.6c-5.1-0.4-18.4-4.5-30.5-8.9c0,0,1.1,12.4-6.1,18.6c0,0-0.1-0.6-0.5-1.3c-0.1-0.9-0.2-1.8-0.3-2.6
		C55.4,19.8,64.4,9.7,76,9.5h1c8.6,0.1,15.8,5.7,18.4,13.4c0.3,0.9,0.6,1.9,0.7,2.8C96.2,25.7,95.5,25.7,94.1,25.6z"/>
	<path class="st5" d="M96.5,31c0,0.6-0.1,1.2-0.2,1.8c-1.6-0.9-2.1-4.8-2.2-7.2c-0.1-1.2,0-2,0-2s0.1-0.4,1.4-0.6
		c0.3,0.9,0.6,1.9,0.7,2.8C96.5,27.4,96.6,29.2,96.5,31z"/>
</g>
<g>
	<g>
		<path class="st2" d="M94.1,335.9c2.6-0.1,4.4,1.9,4.7,2.2c1.4,1.6,1.4,3.4,1.7,5.9c1,8.8,3.2,9.7,2.2,14.4
			c-0.3,1.2-0.8,3.4-2.6,5.4c-0.6,0.6-3.3,3.6-7,3.3c-4.1-0.3-6.6-4.4-7.5-7.2c-0.3-1-0.5-2,0.4-7.9c1.3-9.6,2.4-11.6,3.6-13.1
			C90.4,337.8,91.8,336.1,94.1,335.9z"/>
	</g>
	<path class="st3" d="M86.7,356.4c0.5,0.6,1.1,0.4,4.8,0.3c2.1-0.1,4.2-0.2,6.3-0.2c1.7,0,2.7,0.1,3.2-0.6c0.3-0.5,0.2-0.9,0-2.3
		c-0.5-3.8,0-3.9-0.6-6c-0.4-1.4-0.6-1.4-0.9-2.6c-0.3-1.5,0-1.9-0.3-3.1c-0.1-0.6-0.5-2.1-1.8-3.1c-1.6-1.2-3.9-1-5.4-0.3
		c-1.6,0.8-2.3,2.1-2.7,2.7c-1.1,1.9-0.4,2.7-1.3,6c-0.6,2.1-1,2.1-1.4,4.1C86.2,353.4,85.7,355.4,86.7,356.4z"/>
</g>
<path class="st4" d="M78.2,184.4c0,0,3.5,67.4,5.5,82.3l5,78.4c-0.4,1.4-0.8,2.4-1,3.1c-0.7,2.1-1.8,5.2-1.4,7.2
	c0.1,0.3,0.2,0.7,0.5,1c0.6,0.5,1.5,0.4,1.9,0.4c1.6-0.2,3.3-0.1,4.9-0.2c3.3-0.2,6,0.4,7.2-0.5c0.1-0.1,0.4-0.4,0.6-0.7
	c0.2-0.6-0.1-1-0.2-1.8c-0.1-0.6,0-0.9,0-1.4c0.1-2.1-0.6-4.3-0.6-4.6c-0.4-1.3-0.7-1.5-0.9-2.6c-0.1-0.7,0-1.3,0-1.8
	c0.4-13.3-0.5-27.4,0.1-42.2c0.5-12.9,0.7-24.6-1.9-35.3c3.3-21.6,3.1-50.8,1.5-76C99.3,189.7,89.3,183.4,78.2,184.4z"/>
<g>
	<g>
		<path class="st11" d="M99.8,92.2c-0.6-4.9,3.2-18,3.2-18L97.4,71c0,0-0.8,13.1-9.6,20.4c-6.8,5.7-9.8,12.9-10.7,15.8
			c-1-2.9-3.9-10.1-10.7-15.8C57.6,84,56.8,71,56.8,71l-5.6,3.3c0,0,3.8,13.1,3.2,18c-0.8,6.5-4.8,12.3-4.8,12.3l7,49.3h20.1h0.8
			h20.1l7-49.3C104.6,104.4,100.6,98.7,99.8,92.2z"/>
	</g>
	<g>
		<path class="st11" d="M104.9,272c0,0,8-48,5.7-73.7c-2.3-25.7-13.1-44.5-13.1-44.5h-41c0,0-13.3,22.2-11,59.7
			c2.3,37.4,9.1,59.7,9.1,59.7L104.9,272z"/>
	</g>
	<g>
		<path class="st12" d="M77.6,160.2c-12.6,0-20.9-5.7-21.3-6c-0.3-0.2-0.3-0.5-0.2-0.8c0.2-0.3,0.5-0.3,0.8-0.2
			c0.1,0.1,8.4,5.7,20.6,5.7c12.2,0,19.6-5.7,19.7-5.7c0.3-0.2,0.6-0.1,0.8,0.1c0.2,0.3,0.1,0.6-0.1,0.8
			C97.6,154.5,90.1,160.2,77.6,160.2z"/>
	</g>
	<g>
		<ellipse class="st13" cx="76.5" cy="113.7" rx="1.8" ry="1.9"/>
	</g>
	<g>
		<ellipse class="st13" cx="76.5" cy="124.2" rx="1.8" ry="1.9"/>
	</g>
	<g>
		<ellipse class="st13" cx="76.5" cy="134.7" rx="1.8" ry="1.9"/>
	</g>
	<g>
		<path class="st13" d="M53.1,82.4c-0.1,0-0.2,0-0.2-0.1c-0.1-0.1-0.2-0.2-0.2-0.3l-0.8-4.3c0-0.2,0.1-0.5,0.3-0.5l4.9-2
			c0.1,0,0.3,0,0.4,0c0.1,0.1,0.2,0.2,0.2,0.3l1.1,3.9c0.1,0.2,0,0.5-0.3,0.6l-5.3,2.3C53.2,82.4,53.1,82.4,53.1,82.4z M52.9,77.9
			l0.6,3.3l4.4-1.9l-0.9-3L52.9,77.9z"/>
	</g>
	<g>
		<path class="st13" d="M101.2,82.2c-0.1,0-0.1,0-0.2,0l-5.3-2.3c-0.2-0.1-0.3-0.4-0.3-0.6l1.1-3.9c0-0.1,0.1-0.2,0.2-0.3
			c0.1-0.1,0.3-0.1,0.4,0l4.9,2c0.2,0.1,0.3,0.3,0.3,0.5l-0.8,4.3c0,0.1-0.1,0.3-0.2,0.3C101.3,82.2,101.3,82.2,101.2,82.2z
			 M96.4,79.1l4.4,1.9l0.6-3.3l-4.1-1.6L96.4,79.1z"/>
	</g>
</g>
</svg>
