<?xml version="1.0" encoding="utf-8"?>
<!-- Generator: Adobe Illustrator 25.2.0, SVG Export Plug-In . SVG Version: 6.00 Build 0)  -->
<svg version="1.1" id="Layer_1" xmlns="http://www.w3.org/2000/svg" xmlns:xlink="http://www.w3.org/1999/xlink" x="0px" y="0px"
	 viewBox="0 0 79.5 179.4" style="enable-background:new 0 0 79.5 179.4;" xml:space="preserve">
<style type="text/css">
	.st0{opacity:0.1;fill:#32324C;enable-background:new    ;}
	.st1{fill:#FFAF82;}
	.st2{fill:#144290;}
	.st3{fill:#3669B2;}
	.st4{fill:#D76150;}
	.st5{fill:#E57E53;}
	.st6{fill:#F7A05B;}
	.st7{fill:#32324C;}
	.st8{fill:#FFA378;}
	.st9{fill:#FFFFFF;}
	.st10{fill:#F88968;}
	.st11{fill:#920E08;}
	.st12{fill:#F85C66;}
	.st13{fill:#F7941D;}
</style>
<ellipse class="st0" cx="38.2" cy="174.9" rx="29.8" ry="4.5"/>
<g>
	<path class="st0" d="M79.3,122c-2.5,37.1-49.3,52.1-72.5,23c-4.7-6-5.9-20.3-4.6-27.9c4.9-30.5,20.6-33.6,8.9-52.9
		S-1.6,9.9,30.6,10.2C62.9,10.4,42.1,62,64.3,76.4C74.4,83,80.6,102.7,79.3,122z"/>
	<path class="st0" d="M67.1,68c-2,0.7-4.1,0-5.4-1.6c-2.1-2.5-5.5-7.7-4.4-13.7c1.4-8.5,12.3-1.7,13.1,7.9
		C70.7,65.5,69,67.4,67.1,68z"/>
	<path class="st0" d="M55.6,45.6c-1-0.3-1.7-1.3-1.8-2.4c0-1.7,0.2-4.9,2.5-7c3.3-3.1,5.6,3.2,2.9,7.4
		C57.9,45.7,56.6,45.9,55.6,45.6z"/>
	<path class="st0" d="M2.5,87.3c-1.1-0.1-1.9-1-2.1-2c-0.3-1.7-0.7-4.9,1.2-7.4c2.7-3.6,6.1,2.1,4.2,6.8C4.8,87,3.5,87.5,2.5,87.3z"
		/>
</g>
<path class="st1" d="M26.5,88.9c0,0-0.8,33-0.3,40.2l-0.4,38.4c-0.2,0.6-0.5,1.2-0.6,1.5c-0.4,1-1.1,2.4-1,3.5c0,0.1,0,0.3,0.2,0.5
	c0.3,0.3,0.7,0.2,0.9,0.2c0.8,0,1.6,0.1,2.4,0.1c1.6,0,2.9,0.4,3.5,0c0.1,0,0.2-0.1,0.3-0.3c0.1-0.2,0-0.5,0-0.9c0-0.3,0-0.4,0-0.7
	c0.1-1-0.1-2.1-0.1-2.2c-0.1-0.6-0.3-0.8-0.3-1.3c0-0.3,0-0.6,0.1-0.9c0.7-6.5,0.8-13.4,1.6-20.6c0.7-6.2,1.3-12,0.4-17.2
	c2.4-10.4,3.4-24.6,3.5-36.9C36.6,92.2,31.9,88.9,26.5,88.9z"/>
<path class="st1" d="M48.3,58.4c-0.3,6-0.6,11.9-0.9,17.9c-0.5,0.6-3.6,4.6-9.1,5c-6.4,0.5-10.5-4.2-10.9-4.7
	c0.1-5.9,0.2-11.8,0.4-17.7l-0.6-8.4c-2.6-1.9-1.9-7-1.9-7l-1.3-7.8l7.7-3.6l2.2-1l6.4-0.2l2.5,0.9l8.1,3.2l-0.9,8.3
	c0,0,1.1,4.3-1.3,6.6L48.3,58.4z"/>
<path class="st1" d="M43.5,31.9c-0.2,1.5-1.1,6.8-5.3,6.8c-4.3,0-5.6-5.3-5.9-6.7l2.2-0.9L41,31L43.5,31.9z"/>
<path class="st1" d="M46.9,51c0,0-7.1,5-17.3,0.3C29.6,51.3,39.1,53.9,46.9,51"/>
<g>
	<g>
		<g>
			<path class="st1" d="M14.3,89.7c0,0,0.5,1.9,1.2,3.2c0.6,1.4,0.2,2.4,0.6,3.6c0.4,1.2-1.1,1.1-1.4-0.1c-0.3-1.3-0.1-1.9-0.4-1.9
				c-0.2,0-1,3.1-1.1,4c-0.1,0.9,0.1,3.1-0.2,3.5s-1.1-0.9-0.9-3.2c0.2-2.3,0-2.3,0-2.3s-0.2,0.9-0.4,1.9c-0.2,1-0.2,2.1-0.2,2.8
				c0,0.7-0.6,1-0.8,0.6c-0.2-0.3-0.5-2.7-0.2-3.6c0.3-0.9,0.6-2.4,0.6-2.4s-0.9,2.1-1,2.6c-0.1,0.5,0.1,2.6-0.4,3
				c-0.2,0.1-0.8,0-0.7-3c0,0,0.2-1.4,0.5-2.3c0,0-0.5,0.7-0.7,1.6c-0.2,0.8-0.3,1.6-0.4,2.4c0,0.8-0.7,0.7-0.7-0.7s0.2-2.9,0.6-3.7
				s1-5.1,2.1-6.7L14.3,89.7z"/>
		</g>
	</g>
	<g>
		<path class="st1" d="M26.2,45.7c0,0-2.6,10.4-4.9,18.7c0,0-1.4,7-6.8,25.5c0,0-2.8,1.1-4.4-1c0,0,3.5-20,5.1-26.5
			c0,0,4.5-23.3,9.5-27.1C24.5,35.4,28.3,40,26.2,45.7z"/>
	</g>
</g>
<g>
	<g>
		<g>
			<path class="st1" d="M61.2,89.4c0,0-0.5,1.9-1.2,3.2c-0.6,1.4-0.2,2.4-0.6,3.6c-0.4,1.2,1.1,1.1,1.4-0.1c0.3-1.3,0.1-1.9,0.4-1.9
				c0.2,0,1,3.1,1.1,4s-0.1,3.1,0.2,3.5c0.3,0.3,1.1-0.9,0.9-3.2c-0.2-2.3,0-2.3,0-2.3s0.2,0.9,0.4,1.9c0.2,1,0.2,2.1,0.2,2.8
				c0,0.7,0.6,1,0.8,0.6c0.2-0.3,0.5-2.7,0.2-3.6c-0.3-0.9-0.6-2.4-0.6-2.4s0.9,2.1,1,2.6c0.1,0.5-0.1,2.6,0.4,3
				c0.2,0.1,0.8,0,0.7-3c0,0-0.2-1.4-0.5-2.3c0,0,0.5,0.7,0.7,1.6c0.2,0.8,0.3,1.6,0.4,2.4c0,0.8,0.7,0.7,0.7-0.7
				c0-1.4-0.2-2.9-0.6-3.7c-0.4-0.7-1-5.1-2.1-6.7L61.2,89.4z"/>
		</g>
	</g>
	<g>
		<path class="st1" d="M49.3,45.4c0,0,2.6,10.4,4.9,18.7c0,0,1.4,7,6.8,25.5c0,0,2.8,1.1,4.4-1c0,0-3.5-20-5.1-26.5
			c0,0-4.5-23.3-9.5-27.1C51,35,47.1,39.6,49.3,45.4z"/>
	</g>
</g>
<path class="st1" d="M40.2,88.8c0,0,1.7,32.9,2.7,40.2l2.4,38.3c-0.2,0.7-0.4,1.2-0.5,1.5c-0.3,1-0.9,2.5-0.7,3.5
	c0,0.1,0.1,0.3,0.2,0.5c0.3,0.2,0.7,0.2,0.9,0.2c0.8-0.1,1.6,0,2.4-0.1c1.6-0.1,2.9,0.2,3.5-0.2c0,0,0.2-0.2,0.3-0.3
	c0.1-0.3,0-0.5-0.1-0.9c0-0.3,0-0.4,0-0.7c0-1-0.3-2.1-0.3-2.2c-0.2-0.6-0.3-0.7-0.4-1.3c0-0.3,0-0.6,0-0.9c0.2-6.5-0.2-13.4,0-20.6
	c0.2-6.3,0.3-12-0.9-17.2c1.6-10.5,1.5-24.8,0.7-37.1C50.5,91.4,45.6,88.3,40.2,88.8z"/>
<g>
	<g>
		<path class="st2" d="M48.6,75.8c0,0-7.7,0.5-11.3,0.5c-3.7,0-11-0.5-11-0.5s-2.7,12-2.6,25.4c0.1,13.1,0,55.9,0,55.9l9.9-0.3
			L38,96.4l4.3,60.4l9.9,0.3c0,0-0.2-42.7,0-55.9C52.4,87.9,48.6,75.8,48.6,75.8z"/>
	</g>
	<g>
		<path class="st3" d="M37.5,78.9C31.4,78.9,26,78,26,78c0,0-0.1-0.1-0.1-0.1c0,0,0.1-0.1,0.1-0.1c0,0,5.5,0.9,11.5,0.9
			S49,77.8,49,77.8c0,0,0.1,0,0.1,0.1c0,0,0,0.1-0.1,0.1C49,78.1,43.5,78.9,37.5,78.9z"/>
	</g>
	<g>
		<g>
			<g>
				<path class="st3" d="M36.2,77c-0.1,0-0.1,0-0.1-0.1v-0.4c0-0.1,0-0.1,0.1-0.1s0.1,0,0.1,0.1v0.4C36.3,77,36.3,77,36.2,77z"/>
			</g>
			<g>
				<path class="st3" d="M36.8,89.1L36.8,89.1c-0.3-0.1-0.5-0.3-0.6-0.6c0,0,0-0.1,0-0.2c0,0,0.1,0,0.2,0c0.1,0.2,0.3,0.4,0.5,0.5
					c0,0,0.1,0.1,0,0.2C36.9,89.1,36.9,89.1,36.8,89.1z M36.2,87.8c-0.1,0-0.1,0-0.1-0.1v-0.8c0-0.1,0-0.1,0.1-0.1s0.1,0,0.1,0.1
					v0.8C36.3,87.7,36.3,87.8,36.2,87.8z M36.2,86.3c-0.1,0-0.1,0-0.1-0.1v-0.8c0-0.1,0-0.1,0.1-0.1s0.1,0,0.1,0.1v0.8
					C36.3,86.2,36.3,86.3,36.2,86.3z M36.2,84.7c-0.1,0-0.1,0-0.1-0.1v-0.8c0-0.1,0-0.1,0.1-0.1s0.1,0,0.1,0.1v0.8
					C36.3,84.7,36.3,84.7,36.2,84.7z M36.2,83.2c-0.1,0-0.1,0-0.1-0.1v-0.8c0-0.1,0-0.1,0.1-0.1s0.1,0,0.1,0.1v0.8
					C36.3,83.1,36.3,83.2,36.2,83.2z M36.2,81.6c-0.1,0-0.1,0-0.1-0.1v-0.8c0-0.1,0-0.1,0.1-0.1s0.1,0,0.1,0.1v0.8
					C36.3,81.6,36.3,81.6,36.2,81.6z M36.2,80.1c-0.1,0-0.1,0-0.1-0.1v-0.8c0-0.1,0-0.1,0.1-0.1s0.1,0,0.1,0.1V80
					C36.3,80,36.3,80.1,36.2,80.1z M36.2,78.6c-0.1,0-0.1,0-0.1-0.1v-0.8c0-0.1,0-0.1,0.1-0.1s0.1,0,0.1,0.1v0.8
					C36.3,78.5,36.3,78.6,36.2,78.6z"/>
			</g>
			<g>
				<path class="st3" d="M38,89.2h-0.4c-0.1,0-0.1,0-0.1-0.1c0-0.1,0-0.1,0.1-0.1H38c0.1,0,0.1,0,0.1,0.1
					C38.1,89.1,38.1,89.2,38,89.2z"/>
			</g>
		</g>
	</g>
	<g>
		<path class="st3" d="M24.6,87c0,0-0.1,0-0.1-0.1c0,0,0-0.1,0.1-0.1c0,0,0.2,0,0.5-0.2c0,0,0.1,0,0.2,0c0,0,0,0.1,0,0.2
			C24.9,86.9,24.6,87,24.6,87C24.6,87,24.6,87,24.6,87z M25.8,86.3C25.7,86.3,25.7,86.3,25.8,86.3c-0.1-0.1-0.1-0.2-0.1-0.2
			c0.2-0.1,0.4-0.3,0.6-0.5c0,0,0.1,0,0.2,0c0,0,0,0.1,0,0.2C26.2,85.9,26.1,86.1,25.8,86.3C25.8,86.3,25.8,86.3,25.8,86.3z
			 M26.9,85.2C26.9,85.2,26.9,85.2,26.9,85.2c-0.1-0.1-0.1-0.2-0.1-0.2c0.1-0.2,0.3-0.4,0.5-0.6c0,0,0.1-0.1,0.2,0
			c0,0,0.1,0.1,0,0.2c-0.1,0.2-0.3,0.4-0.5,0.6C27,85.2,26.9,85.2,26.9,85.2z M27.8,83.9L27.8,83.9c-0.1,0-0.1-0.1-0.1-0.2
			c0.1-0.2,0.2-0.4,0.3-0.7c0,0,0.1-0.1,0.2,0c0,0,0.1,0.1,0,0.2c-0.1,0.2-0.2,0.5-0.3,0.7C27.9,83.8,27.9,83.9,27.8,83.9z
			 M28.5,82.4C28.4,82.4,28.4,82.4,28.5,82.4c-0.1,0-0.1-0.1-0.1-0.2c0.1-0.2,0.1-0.5,0.2-0.7c0,0,0.1-0.1,0.1-0.1
			c0,0,0.1,0.1,0.1,0.1C28.7,81.8,28.7,82.1,28.5,82.4C28.6,82.4,28.5,82.4,28.5,82.4z M28.9,80.9L28.9,80.9c-0.1,0-0.1-0.1-0.1-0.1
			c0-0.2,0.1-0.5,0.1-0.8c0,0,0.1-0.1,0.1-0.1c0,0,0.1,0.1,0.1,0.1C29.1,80.2,29.1,80.5,28.9,80.9C29,80.9,29,80.9,28.9,80.9z
			 M29.2,79.3L29.2,79.3c-0.1,0-0.1-0.1-0.1-0.1c0-0.5,0-0.8,0-0.8c0-0.1,0-0.1,0.1-0.1s0.1,0,0.1,0.1
			C29.4,78.4,29.4,78.7,29.2,79.3C29.3,79.2,29.3,79.3,29.2,79.3z"/>
	</g>
	<g>
		<path class="st3" d="M24.7,85.5C24.7,85.5,24.6,85.4,24.7,85.5c-0.1-0.1-0.1-0.2,0-0.3c0,0,1.6-0.8,2.5-2.8
			c0.8-1.6,0.8-4.2,0.8-4.2c0-0.1,0-0.1,0.1-0.1s0.1,0,0.1,0.1s0,2.6-0.8,4.3C26.5,84.6,24.9,85.4,24.7,85.5
			C24.8,85.5,24.7,85.5,24.7,85.5z"/>
	</g>
	<g>
		<path class="st3" d="M38,97.5c-0.1,0-0.1,0-0.1-0.1V76.5c0-0.1,0-0.1,0.1-0.1c0.1,0,0.1,0,0.1,0.1v20.9
			C38.1,97.5,38.1,97.5,38,97.5z"/>
	</g>
	<g>
		<path class="st4" d="M36.6,77.5c0-0.3,0.2-0.5,0.5-0.5c0.3,0,0.5,0.2,0.5,0.5s-0.2,0.5-0.5,0.5C36.8,78.1,36.6,77.8,36.6,77.5z"/>
	</g>
	<g>
		<polygon class="st3" points="32.5,76.2 32.3,78.6 33.1,78.6 33.3,76.3 		"/>
	</g>
	<g>
		<polygon class="st3" points="41,76.3 41.1,78.7 42,78.6 41.9,76.2 		"/>
	</g>
	<g>
		<path class="st3" d="M24.7,156.6c-0.1,0-0.1,0-0.1-0.1v-0.8c0-0.1,0-0.1,0.1-0.1s0.1,0,0.1,0.1v0.8
			C24.9,156.6,24.8,156.6,24.7,156.6z M24.7,155c-0.1,0-0.1,0-0.1-0.1v-0.8c0-0.1,0-0.1,0.1-0.1s0.1,0,0.1,0.1v0.8
			C24.9,155,24.8,155,24.7,155z M24.7,153.4c-0.1,0-0.1,0-0.1-0.1v-0.8c0-0.1,0-0.1,0.1-0.1s0.1,0,0.1,0.1v0.8
			C24.9,153.4,24.8,153.4,24.7,153.4z M24.7,151.8c-0.1,0-0.1,0-0.1-0.1v-0.8c0-0.1,0-0.1,0.1-0.1s0.1,0,0.1,0.1v0.8
			C24.9,151.8,24.8,151.8,24.7,151.8z M24.7,150.2c-0.1,0-0.1,0-0.1-0.1v-0.8c0-0.1,0-0.1,0.1-0.1s0.1,0,0.1,0.1v0.8
			C24.9,150.1,24.8,150.2,24.7,150.2z M24.7,148.6c-0.1,0-0.1,0-0.1-0.1v-0.8c0-0.1,0-0.1,0.1-0.1s0.1,0,0.1,0.1v0.8
			C24.9,148.5,24.8,148.6,24.7,148.6z M24.7,147c-0.1,0-0.1,0-0.1-0.1v-0.8c0-0.1,0-0.1,0.1-0.1s0.1,0,0.1,0.1v0.8
			C24.9,147,24.8,147,24.7,147z M24.7,145.4c-0.1,0-0.1,0-0.1-0.1v-0.8c0-0.1,0-0.1,0.1-0.1s0.1,0,0.1,0.1v0.8
			C24.9,145.4,24.8,145.4,24.7,145.4z M24.7,143.8c-0.1,0-0.1,0-0.1-0.1v-0.8c0-0.1,0-0.1,0.1-0.1s0.1,0,0.1,0.1v0.8
			C24.9,143.7,24.8,143.8,24.7,143.8z M24.7,142.2c-0.1,0-0.1,0-0.1-0.1v-0.8c0-0.1,0-0.1,0.1-0.1l0,0c0.1,0,0.1,0,0.1,0.1v0.8
			C24.9,142.1,24.8,142.2,24.7,142.2z M24.7,140.6L24.7,140.6c-0.1,0-0.1,0-0.1-0.1v-0.8c0-0.1,0-0.1,0.1-0.1l0,0
			c0.1,0,0.1,0,0.1,0.1v0.8C24.9,140.5,24.8,140.6,24.7,140.6z M24.7,139L24.7,139c-0.1,0-0.1,0-0.1-0.1v-0.8c0-0.1,0-0.1,0.1-0.1
			l0,0c0.1,0,0.1,0,0.1,0.1v0.8C24.9,139,24.8,139,24.7,139z M24.7,137.4L24.7,137.4c-0.1,0-0.1,0-0.1-0.1v-0.8c0-0.1,0-0.1,0.1-0.1
			s0.1,0,0.1,0.1v0.8C24.9,137.4,24.8,137.4,24.7,137.4z M24.7,135.8L24.7,135.8c-0.1,0-0.1,0-0.1-0.1v-0.8c0-0.1,0-0.1,0.1-0.1l0,0
			c0.1,0,0.1,0,0.1,0.1v0.8C24.9,135.7,24.8,135.8,24.7,135.8z M24.8,134.2L24.8,134.2c-0.1,0-0.1,0-0.1-0.1v-0.8
			c0-0.1,0-0.1,0.1-0.1l0,0c0.1,0,0.1,0,0.1,0.1v0.8C24.9,134.1,24.8,134.2,24.8,134.2z M24.8,132.6L24.8,132.6
			c-0.1,0-0.1,0-0.1-0.1v-0.8c0-0.1,0-0.1,0.1-0.1l0,0c0.1,0,0.1,0,0.1,0.1v0.8C24.9,132.5,24.8,132.6,24.8,132.6z M24.8,131
			L24.8,131c-0.1,0-0.1,0-0.1-0.1v-0.8c0-0.1,0-0.1,0.1-0.1l0,0c0.1,0,0.1,0,0.1,0.1v0.8C24.9,131,24.8,131,24.8,131z M24.8,129.4
			L24.8,129.4c-0.1,0-0.1,0-0.1-0.1v-0.8c0-0.1,0-0.1,0.1-0.1l0,0c0.1,0,0.1,0,0.1,0.1v0.8C24.9,129.3,24.8,129.4,24.8,129.4z
			 M24.8,127.8L24.8,127.8c-0.1,0-0.1,0-0.1-0.1v-0.8c0-0.1,0-0.1,0.1-0.1l0,0c0.1,0,0.1,0,0.1,0.1v0.8
			C24.9,127.7,24.8,127.8,24.8,127.8z M24.8,126.2L24.8,126.2c-0.1,0-0.1,0-0.1-0.1v-0.8c0-0.1,0-0.1,0.1-0.1l0,0
			c0.1,0,0.1,0,0.1,0.1v0.8C24.9,126.1,24.9,126.2,24.8,126.2z M24.8,124.6L24.8,124.6c-0.1,0-0.1,0-0.1-0.1v-0.8h0.1h0.1v0.8
			C24.9,124.5,24.9,124.6,24.8,124.6z M24.8,123L24.8,123c-0.1,0-0.1,0-0.1-0.1v-0.8c0-0.1,0-0.1,0.1-0.1l0,0c0.1,0,0.1,0,0.1,0.1
			v0.8C24.9,122.9,24.9,123,24.8,123z M24.8,121.4L24.8,121.4c-0.1,0-0.1,0-0.1-0.1v-0.8c0-0.1,0-0.1,0.1-0.1l0,0
			c0.1,0,0.1,0,0.1,0.1v0.8C24.9,121.3,24.9,121.4,24.8,121.4z M24.8,119.8L24.8,119.8c-0.1,0-0.1,0-0.1-0.1v-0.8
			c0-0.1,0-0.1,0.1-0.1l0,0c0.1,0,0.1,0,0.1,0.1v0.8C24.9,119.7,24.9,119.8,24.8,119.8z M24.8,118.2c-0.1,0-0.1,0-0.1-0.1v-0.8
			c0-0.1,0-0.1,0.1-0.1s0.1,0,0.1,0.1v0.8C24.9,118.1,24.9,118.2,24.8,118.2z M24.8,116.6c-0.1,0-0.1,0-0.1-0.1v-0.8
			c0-0.1,0-0.1,0.1-0.1l0,0c0.1,0,0.1,0,0.1,0.1v0.8C24.9,116.5,24.9,116.6,24.8,116.6L24.8,116.6z M24.8,115c-0.1,0-0.1,0-0.1-0.1
			v-0.8c0-0.1,0-0.1,0.1-0.1l0,0c0.1,0,0.1,0,0.1,0.1v0.8C24.9,114.9,24.9,115,24.8,115L24.8,115z M24.8,113.4c-0.1,0-0.1,0-0.1-0.1
			v-0.8c0-0.1,0-0.1,0.1-0.1l0,0c0.1,0,0.1,0,0.1,0.1v0.8C24.9,113.3,24.9,113.4,24.8,113.4L24.8,113.4z M24.8,111.8
			c-0.1,0-0.1,0-0.1-0.1v-0.8c0-0.1,0-0.1,0.1-0.1l0,0c0.1,0,0.1,0,0.1,0.1v0.8C24.9,111.7,24.9,111.8,24.8,111.8L24.8,111.8z
			 M24.8,110.2c-0.1,0-0.1,0-0.1-0.1v-0.8c0-0.1,0-0.1,0.1-0.1l0,0c0,0,0.1,0,0.1,0.1v0.8C24.9,110.1,24.8,110.2,24.8,110.2
			L24.8,110.2z M24.8,108.6c0,0-0.1,0-0.1-0.1c0-0.3,0-0.5,0-0.8c0-0.1,0-0.1,0.1-0.1l0,0c0,0,0.1,0,0.1,0.1c0,0.2,0,0.5,0,0.8
			C24.9,108.5,24.8,108.6,24.8,108.6L24.8,108.6z M24.7,107c0,0-0.1,0-0.1-0.1c0-0.2,0-0.5,0-0.8c0-0.1,0-0.1,0.1-0.1l0,0
			c0.1,0,0.1,0,0.1,0.1c0,0.3,0,0.5,0,0.8C24.9,106.9,24.8,107,24.7,107L24.7,107z M24.7,105.4c-0.1,0-0.1,0-0.1-0.1
			c0-0.2,0-0.5,0-0.8c0-0.1,0-0.1,0.1-0.1l0,0c0.1,0,0.1,0,0.1,0.1c0,0.3,0,0.5,0,0.8C24.9,105.3,24.8,105.4,24.7,105.4z
			 M24.7,103.8L24.7,103.8c-0.1,0-0.1,0-0.1-0.1c0-0.2,0-0.5,0-0.8c0,0,0-0.1,0.1-0.1l0,0c0.1,0,0.1,0,0.1,0.1c0,0.3,0,0.5,0,0.8
			C24.9,103.7,24.8,103.8,24.7,103.8z M24.7,102.2L24.7,102.2c-0.1,0-0.1,0-0.1-0.1c0-0.2,0-0.5,0-0.8c0,0,0-0.1,0.1-0.1l0,0
			c0.1,0,0.1,0,0.1,0.1c0,0.3,0,0.5,0,0.8C24.9,102.1,24.8,102.2,24.7,102.2z M24.8,100.6L24.8,100.6c-0.1,0-0.1,0-0.1-0.1
			c0-0.2,0-0.5,0-0.8c0,0,0-0.1,0.1-0.1l0,0c0.1,0,0.1,0,0.1,0.1c0,0.2,0,0.5,0,0.8C24.9,100.5,24.9,100.6,24.8,100.6z M24.8,99
			L24.8,99c-0.1,0-0.1,0-0.1-0.1V98c0-0.1,0-0.1,0.1-0.1s0.1,0,0.1,0.1v0.8C25,98.9,24.9,99,24.8,99z M24.9,97.4L24.9,97.4
			c-0.1,0-0.1,0-0.1-0.1l0-0.8c0-0.1,0-0.1,0.1-0.1s0.1,0,0.1,0.1l0,0.8C25,97.3,24.9,97.4,24.9,97.4z M24.9,95.8L24.9,95.8
			c-0.1,0-0.1,0-0.1-0.1l0-0.8c0-0.1,0-0.1,0.1-0.1s0.1,0,0.1,0.1l0,0.8C25.1,95.7,25,95.8,24.9,95.8z M25,94.1L25,94.1
			c-0.1,0-0.1,0-0.1-0.1l0-0.8c0-0.1,0-0.1,0.1-0.1s0.1,0,0.1,0.1l0,0.8C25.1,94.1,25.1,94.1,25,94.1z M25.1,92.6L25.1,92.6
			c-0.1,0-0.1,0-0.1-0.1l0-0.8c0-0.1,0-0.1,0.1-0.1s0.1,0,0.1,0.1l0,0.8C25.2,92.5,25.1,92.6,25.1,92.6z M25.1,91L25.1,91
			c-0.1,0-0.1,0-0.1-0.1l0-0.8c0-0.1,0-0.1,0.1-0.1s0.1,0,0.1,0.1l0,0.8C25.3,90.9,25.2,91,25.1,91z M25.2,89.4L25.2,89.4
			c-0.1,0-0.1,0-0.1-0.1l0-0.8c0-0.1,0-0.1,0.1-0.1s0.1,0,0.1,0.1l0,0.8C25.3,89.3,25.3,89.4,25.2,89.4z M25.3,87.7L25.3,87.7
			c-0.1,0-0.1,0-0.1-0.1l0-0.8c0-0.1,0-0.1,0.1-0.1s0.1,0,0.1,0.1l0,0.8C25.4,87.7,25.3,87.7,25.3,87.7z M25.4,86.1
			C25.3,86.1,25.3,86.1,25.4,86.1c-0.1,0-0.1,0-0.1-0.1c0-0.5,0-0.8,0-0.8c0-0.1,0-0.1,0.1-0.1s0.1,0,0.1,0.1c0,0,0,0.3,0,0.8
			C25.5,86.1,25.4,86.1,25.4,86.1z"/>
	</g>
	<g>
		<path class="st3" d="M50.9,87C50.9,87,50.8,87,50.9,87c0,0-0.2-0.1-0.6-0.2c0,0-0.1-0.1,0-0.2c0,0,0.1-0.1,0.2,0
			c0.3,0.1,0.5,0.2,0.5,0.2c0,0,0.1,0.1,0.1,0.1C51,87,50.9,87,50.9,87z M49.7,86.3C49.6,86.3,49.6,86.3,49.7,86.3
			c-0.3-0.2-0.5-0.4-0.7-0.6c0,0,0-0.1,0-0.2c0,0,0.1,0,0.2,0c0.2,0.2,0.4,0.3,0.6,0.5C49.8,86.1,49.8,86.2,49.7,86.3
			C49.8,86.3,49.7,86.3,49.7,86.3z M48.6,85.2C48.5,85.2,48.5,85.2,48.6,85.2c-0.2-0.2-0.4-0.5-0.6-0.7c0,0,0-0.1,0-0.2
			c0,0,0.1,0,0.2,0c0.1,0.2,0.3,0.4,0.5,0.6c0,0,0,0.1,0,0.2C48.6,85.2,48.6,85.2,48.6,85.2z M47.6,83.9
			C47.6,83.9,47.5,83.8,47.6,83.9c-0.2-0.3-0.3-0.5-0.4-0.8c0,0,0-0.1,0-0.2c0,0,0.1,0,0.2,0c0.1,0.2,0.2,0.5,0.3,0.7
			C47.8,83.7,47.8,83.8,47.6,83.9C47.7,83.9,47.7,83.9,47.6,83.9z M47,82.4c0,0-0.1,0-0.1-0.1c-0.1-0.2-0.2-0.5-0.2-0.8
			c0,0,0-0.1,0.1-0.1c0,0,0.1,0,0.1,0.1c0.1,0.2,0.1,0.5,0.2,0.7C47.1,82.3,47.1,82.4,47,82.4L47,82.4z M46.5,80.9
			c0,0-0.1,0-0.1-0.1c0-0.2-0.1-0.5-0.1-0.8c0,0,0-0.1,0.1-0.1c0,0,0.1,0,0.1,0.1c0,0.2,0.1,0.5,0.1,0.8
			C46.7,80.8,46.7,80.9,46.5,80.9C46.6,80.9,46.6,80.9,46.5,80.9z M46.3,79.3c0,0-0.1,0-0.1-0.1c0-0.5-0.1-0.8-0.1-0.8
			c0-0.1,0-0.1,0.1-0.1s0.1,0,0.1,0.1c0,0,0,0.3,0,0.8C46.4,79.2,46.4,79.3,46.3,79.3L46.3,79.3z"/>
	</g>
	<g>
		<path class="st3" d="M50.7,85.5L50.7,85.5c-0.1,0-1.7-0.8-2.7-3c-0.8-1.7-0.8-4.2-0.8-4.3c0-0.1,0-0.1,0.1-0.1s0.1,0,0.1,0.1
			c0,0,0,2.6,0.8,4.2c1,2.1,2.5,2.8,2.5,2.8c0,0,0.1,0.1,0,0.2C50.8,85.5,50.8,85.5,50.7,85.5z"/>
	</g>
	<g>
		<path class="st3" d="M50.7,156.6c-0.1,0-0.1,0-0.1-0.1v-0.8c0-0.1,0-0.1,0.1-0.1c0.1,0,0.1,0,0.1,0.1v0.8
			C50.9,156.6,50.8,156.6,50.7,156.6z M50.7,155c-0.1,0-0.1,0-0.1-0.1v-0.8c0-0.1,0-0.1,0.1-0.1c0.1,0,0.1,0,0.1,0.1v0.8
			C50.9,155,50.8,155,50.7,155z M50.7,153.4c-0.1,0-0.1,0-0.1-0.1v-0.8c0-0.1,0-0.1,0.1-0.1c0.1,0,0.1,0,0.1,0.1v0.8
			C50.9,153.4,50.8,153.4,50.7,153.4z M50.7,151.8c-0.1,0-0.1,0-0.1-0.1v-0.8c0-0.1,0-0.1,0.1-0.1c0.1,0,0.1,0,0.1,0.1v0.8
			C50.9,151.8,50.8,151.8,50.7,151.8z M50.7,150.2c-0.1,0-0.1,0-0.1-0.1v-0.8c0-0.1,0-0.1,0.1-0.1c0.1,0,0.1,0,0.1,0.1v0.8
			C50.9,150.1,50.8,150.2,50.7,150.2z M50.7,148.6c-0.1,0-0.1,0-0.1-0.1v-0.8c0-0.1,0-0.1,0.1-0.1c0.1,0,0.1,0,0.1,0.1v0.8
			C50.9,148.5,50.8,148.6,50.7,148.6z M50.7,147c-0.1,0-0.1,0-0.1-0.1v-0.8c0-0.1,0-0.1,0.1-0.1c0.1,0,0.1,0,0.1,0.1v0.8
			C50.9,147,50.8,147,50.7,147z M50.7,145.4c-0.1,0-0.1,0-0.1-0.1v-0.8c0-0.1,0-0.1,0.1-0.1c0.1,0,0.1,0,0.1,0.1v0.8
			C50.9,145.4,50.8,145.4,50.7,145.4z M50.7,143.8c-0.1,0-0.1,0-0.1-0.1v-0.8c0-0.1,0-0.1,0.1-0.1c0.1,0,0.1,0,0.1,0.1v0.8
			C50.9,143.7,50.8,143.8,50.7,143.8z M50.7,142.2c-0.1,0-0.1,0-0.1-0.1v-0.8c0-0.1,0-0.1,0.1-0.1l0,0c0.1,0,0.1,0,0.1,0.1v0.8
			C50.9,142.1,50.8,142.2,50.7,142.2z M50.7,140.6c-0.1,0-0.1,0-0.1-0.1v-0.8c0-0.1,0-0.1,0.1-0.1l0,0c0.1,0,0.1,0,0.1,0.1v0.8
			C50.9,140.5,50.8,140.6,50.7,140.6L50.7,140.6z M50.7,139c-0.1,0-0.1,0-0.1-0.1v-0.8c0-0.1,0-0.1,0.1-0.1l0,0c0.1,0,0.1,0,0.1,0.1
			v0.8C50.9,139,50.8,139,50.7,139L50.7,139z M50.7,137.4c-0.1,0-0.1,0-0.1-0.1v-0.8c0-0.1,0-0.1,0.1-0.1l0,0c0.1,0,0.1,0,0.1,0.1
			v0.8C50.9,137.4,50.8,137.4,50.7,137.4L50.7,137.4z M50.7,135.8c-0.1,0-0.1,0-0.1-0.1v-0.8c0-0.1,0-0.1,0.1-0.1l0,0
			c0.1,0,0.1,0,0.1,0.1v0.8C50.9,135.7,50.8,135.8,50.7,135.8L50.7,135.8z M50.7,134.2c-0.1,0-0.1,0-0.1-0.1v-0.8
			c0-0.1,0-0.1,0.1-0.1l0,0c0.1,0,0.1,0,0.1,0.1v0.8C50.9,134.1,50.8,134.2,50.7,134.2L50.7,134.2z M50.7,132.6
			c-0.1,0-0.1,0-0.1-0.1v-0.8c0-0.1,0-0.1,0.1-0.1l0,0c0.1,0,0.1,0,0.1,0.1v0.8C50.9,132.5,50.8,132.6,50.7,132.6L50.7,132.6z
			 M50.7,131c-0.1,0-0.1,0-0.1-0.1v-0.8c0-0.1,0-0.1,0.1-0.1c0.1,0,0.1,0,0.1,0.1v0.8C50.8,131,50.8,131,50.7,131L50.7,131z
			 M50.7,129.4c-0.1,0-0.1,0-0.1-0.1v-0.8c0-0.1,0-0.1,0.1-0.1l0,0c0.1,0,0.1,0,0.1,0.1v0.8C50.8,129.3,50.8,129.4,50.7,129.4
			L50.7,129.4z M50.7,127.8c-0.1,0-0.1,0-0.1-0.1v-0.8c0-0.1,0-0.1,0.1-0.1l0,0c0.1,0,0.1,0,0.1,0.1v0.8
			C50.8,127.7,50.8,127.8,50.7,127.8L50.7,127.8z M50.7,126.2c-0.1,0-0.1,0-0.1-0.1v-0.8c0-0.1,0-0.1,0.1-0.1l0,0
			c0.1,0,0.1,0,0.1,0.1v0.8C50.8,126.1,50.8,126.2,50.7,126.2L50.7,126.2z M50.7,124.6c-0.1,0-0.1,0-0.1-0.1v-0.8
			c0-0.1,0-0.1,0.1-0.1l0,0c0.1,0,0.1,0,0.1,0.1v0.8C50.8,124.5,50.8,124.6,50.7,124.6L50.7,124.6z M50.7,123c-0.1,0-0.1,0-0.1-0.1
			v-0.8c0-0.1,0-0.1,0.1-0.1l0,0c0.1,0,0.1,0,0.1,0.1v0.8C50.8,122.9,50.8,123,50.7,123L50.7,123z M50.6,121.2v-0.8
			c0-0.1,0-0.1,0.1-0.1l0,0c0.1,0,0.1,0,0.1,0.1v0.8H50.6z M50.7,119.8c-0.1,0-0.1,0-0.1-0.1v-0.8c0-0.1,0-0.1,0.1-0.1
			s0.1,0,0.1,0.1v0.8C50.8,119.7,50.8,119.8,50.7,119.8L50.7,119.8z M50.7,118.2c-0.1,0-0.1,0-0.1-0.1v-0.8c0-0.1,0-0.1,0.1-0.1l0,0
			c0.1,0,0.1,0,0.1,0.1v0.8C50.8,118.1,50.8,118.2,50.7,118.2z M50.7,116.6L50.7,116.6c-0.1,0-0.1,0-0.1-0.1v-0.8
			c0-0.1,0-0.1,0.1-0.1l0,0c0.1,0,0.1,0,0.1,0.1v0.8C50.8,116.5,50.8,116.6,50.7,116.6z M50.7,115L50.7,115c-0.1,0-0.1,0-0.1-0.1
			v-0.8c0-0.1,0-0.1,0.1-0.1l0,0c0.1,0,0.1,0,0.1,0.1v0.8C50.8,114.9,50.8,115,50.7,115z M50.7,113.4L50.7,113.4
			c-0.1,0-0.1,0-0.1-0.1v-0.8c0-0.1,0-0.1,0.1-0.1l0,0c0.1,0,0.1,0,0.1,0.1v0.8C50.8,113.3,50.8,113.4,50.7,113.4z M50.7,111.8
			L50.7,111.8c-0.1,0-0.1,0-0.1-0.1v-0.8c0-0.1,0-0.1,0.1-0.1l0,0c0.1,0,0.1,0,0.1,0.1v0.8C50.8,111.7,50.8,111.8,50.7,111.8z
			 M50.7,110.2L50.7,110.2c-0.1,0-0.1,0-0.1-0.1v-0.8c0-0.1,0-0.1,0.1-0.1l0,0c0.1,0,0.1,0,0.1,0.1v0.8
			C50.8,110.1,50.8,110.2,50.7,110.2z M50.7,108.6L50.7,108.6c-0.1,0-0.1,0-0.1-0.1c0-0.3,0-0.5,0-0.8c0,0,0-0.1,0.1-0.1l0,0
			c0.1,0,0.1,0,0.1,0.1c0,0.2,0,0.5,0,0.8C50.9,108.5,50.8,108.6,50.7,108.6z M50.7,107L50.7,107c-0.1,0-0.1,0-0.1-0.1
			c0-0.2,0-0.5,0-0.8c0-0.1,0-0.1,0.1-0.1l0,0c0.1,0,0.1,0,0.1,0.1c0,0.3,0,0.5,0,0.8C50.9,106.9,50.8,107,50.7,107z M50.8,105.4
			c-0.1,0-0.1,0-0.1-0.1c0-0.2,0-0.5,0-0.8c0-0.1,0-0.1,0.1-0.1l0,0c0.1,0,0.1,0,0.1,0.1c0,0.3,0,0.5,0,0.8
			C50.9,105.3,50.8,105.4,50.8,105.4z M50.8,103.8c0,0-0.1,0-0.1-0.1c0-0.2,0-0.5,0-0.8c0-0.1,0-0.1,0.1-0.1l0,0c0,0,0.1,0,0.1,0.1
			c0,0.3,0,0.5,0,0.8C50.9,103.7,50.8,103.8,50.8,103.8L50.8,103.8z M50.7,102.2c0,0-0.1,0-0.1-0.1c0-0.2,0-0.5,0-0.8
			c0-0.1,0-0.1,0.1-0.1l0,0c0,0,0.1,0,0.1,0.1c0,0.3,0,0.5,0,0.8C50.9,102.1,50.8,102.1,50.7,102.2L50.7,102.2z M50.7,100.6
			c0,0-0.1,0-0.1-0.1c0-0.2,0-0.5,0-0.8c0-0.1,0-0.1,0.1-0.1l0,0c0,0,0.1,0,0.1,0.1c0,0.2,0,0.5,0,0.8
			C50.8,100.5,50.8,100.6,50.7,100.6L50.7,100.6z M50.6,99c0,0-0.1,0-0.1-0.1V98c0-0.1,0-0.1,0.1-0.1c0,0,0.1,0,0.1,0.1v0.8
			C50.8,98.9,50.7,99,50.6,99C50.7,99,50.7,99,50.6,99z M50.6,97.4c0,0-0.1,0-0.1-0.1l0-0.8c0-0.1,0-0.1,0.1-0.1
			c0.1,0,0.1,0,0.1,0.1l0,0.8C50.7,97.3,50.7,97.4,50.6,97.4C50.6,97.4,50.6,97.4,50.6,97.4z M50.5,95.8c0,0-0.1,0-0.1-0.1l0-0.8
			c0-0.1,0-0.1,0.1-0.1c0,0,0.1,0,0.1,0.1l0,0.8C50.7,95.7,50.6,95.8,50.5,95.8L50.5,95.8z M50.5,94.1c0,0-0.1,0-0.1-0.1l0-0.8
			c0-0.1,0-0.1,0.1-0.1s0.1,0,0.1,0.1l0,0.8C50.6,94.1,50.6,94.1,50.5,94.1L50.5,94.1z M50.4,92.6c0,0-0.1,0-0.1-0.1l0-0.8
			c0-0.1,0-0.1,0.1-0.1c0,0,0.1,0,0.1,0.1l0,0.8C50.6,92.5,50.5,92.6,50.4,92.6L50.4,92.6z M50.3,91c0,0-0.1,0-0.1-0.1l0-0.8
			c0-0.1,0-0.1,0.1-0.1c0,0,0.1,0,0.1,0.1l0,0.8C50.5,90.9,50.4,91,50.3,91C50.4,91,50.4,91,50.3,91z M50.3,89.4c0,0-0.1,0-0.1-0.1
			l0-0.8c0-0.1,0-0.1,0.1-0.1s0.1,0,0.1,0.1l0,0.8C50.4,89.3,50.4,89.4,50.3,89.4L50.3,89.4z M50.2,87.7c0,0-0.1,0-0.1-0.1l0-0.8
			c0-0.1,0-0.1,0.1-0.1c0.1,0,0.1,0,0.1,0.1l0,0.8C50.3,87.7,50.3,87.7,50.2,87.7L50.2,87.7z M50.1,86.1c0,0-0.1,0-0.1-0.1
			c0-0.5,0-0.8,0-0.8c0-0.1,0-0.1,0.1-0.1s0.1,0,0.1,0.1c0,0,0,0.3,0,0.8C50.3,86.1,50.2,86.1,50.1,86.1L50.1,86.1z"/>
	</g>
	<g>
		<polygon class="st3" points="33.5,156.9 23.7,157.1 23.7,155.6 33.7,155.4 		"/>
	</g>
	<g>
		<polygon class="st3" points="42.4,156.9 52.2,157.1 52.3,155.6 42.2,155.3 		"/>
	</g>
</g>
<g>
	<g>
		<path class="st5" d="M25,72.8c0,0-1.1,6.2,13.5,6.2s12.6-6.4,12.6-6.4L25,72.8z"/>
	</g>
	<g>
		<path class="st4" d="M33.2,30.2c0,0,4.3-1.6,9.7,0c0,0-1.9,6.2-5,6.2C34.7,36.4,33.2,30.2,33.2,30.2z"/>
	</g>
	<g>
		<path class="st6" d="M33.4,30.2c0,0-1.1,0-0.9,2.9c0,0-6.2,0.9-10.2,3.6L24.8,50c0,0,0.9,10.6,0.4,16s-2.4,6,0.7,8.4
			c3.1,2.4,12.2,2,12.2,2V37.9v-3.1C38.1,34.8,33.6,32.6,33.4,30.2z"/>
	</g>
	<g>
		<path class="st5" d="M22.7,36.4c0,0-2.8,1.1-2.8,2.2c0,1.1,4.9,11.3,4.9,11.3L22.7,36.4z"/>
	</g>
	<g>
		<path class="st6" d="M42.7,30.2c0,0,1.1,0,0.9,2.9c0,0,6.2,0.9,10.2,3.6L51.3,50c0,0-0.9,10.6-0.4,16s2.4,6-0.7,8.4
			c-3.1,2.4-12.2,2-12.2,2V37.9v-3.1C38.1,34.8,42.5,32.6,42.7,30.2z"/>
	</g>
	<g>
		<path class="st5" d="M53.3,36.3c0,0,3,1.2,3,2.3S51.4,50,51.4,50L53.3,36.3z"/>
	</g>
	<g>
		<path class="st5" d="M42.7,30.2c-0.2,2.4-4.6,4.5-4.6,4.5s-4.4-2.1-4.6-4.5c0,0-1.1,0-0.9,2.9c0,0,2,4.2,5.6,4.2s5.6-4.2,5.6-4.2
			C43.8,30.2,42.7,30.2,42.7,30.2z"/>
	</g>
	<g>
		<rect x="23.1" y="38.9" class="st5" width="29.8" height="0.7"/>
	</g>
	<g>
		<rect x="23.1" y="45.6" class="st5" width="29.8" height="0.7"/>
	</g>
	<g>
		<rect x="25" y="52" class="st5" width="26.1" height="0.7"/>
	</g>
	<g>
		<rect x="25.3" y="58.4" class="st5" width="25.4" height="0.7"/>
	</g>
	<g>
		<rect x="25.3" y="64.9" class="st5" width="25.5" height="0.7"/>
	</g>
	<g>
		<rect x="24.2" y="71.3" class="st5" width="27.7" height="0.7"/>
	</g>
	<g>
		<path class="st6" d="M39.2,35.4c0-0.2,0.1-0.3,0.3-0.3c0.2,0,0.3,0.1,0.3,0.3s-0.1,0.3-0.3,0.3C39.4,35.6,39.2,35.5,39.2,35.4z"/>
	</g>
	<g>
		<path class="st4" d="M38.8,74.4c0-0.4,0.3-0.7,0.7-0.7s0.7,0.3,0.7,0.7c0,0.4-0.3,0.7-0.7,0.7S38.8,74.8,38.8,74.4z"/>
	</g>
	<g>
		<path class="st4" d="M45.4,60.3c0,0,2.2,3.8,5.6,4.6l0.1,2.1c0,0-4.3-0.5-7-5.6L45.4,60.3z"/>
	</g>
	<g>
		<path class="st4" d="M30.7,60.3c0,0-2.1,3.7-5.5,4.6l-0.1,2.2c0,0,4.3-0.6,7-5.7L30.7,60.3z"/>
	</g>
	<g>
		<rect x="37.8" y="34.5" class="st4" width="0.4" height="41.8"/>
	</g>
</g>
<g>
	<path class="st7" d="M48.9,9.7c1.4,5.4,2,9.4,2,13c0,3-1.9,5.6-4.6,6.2c-2.4,0.6-5.7,1.2-9.1,1.4c-3.4,0.2-6.5-0.4-9-1.1
		c-2.7-0.7-4.5-3.4-4.4-6.4c0.1-3.3,0.6-8,2.1-13.2c0,0,2.2-9.7,11.9-9.7C46.8,0,48.9,9.7,48.9,9.7z"/>
	<g>
		<g>
			<g>
				<g>
					<path class="st8" d="M29.8,15.8c0,0-1.8-1.8-3.2-0.6c-1.7,1.4,0.1,6.2,3.1,5.8L29.8,15.8z"/>
				</g>
			</g>
		</g>
		<path class="st9" d="M28.9,20.7c0,0.5-0.4,0.9-0.9,0.9s-0.9-0.4-0.9-0.9s0.4-0.9,0.9-0.9C28.5,19.8,28.9,20.2,28.9,20.7z"/>
		<g>
			<path class="st10" d="M29.3,19.3c-0.2-0.7-0.9-2.2-2.6-2.9c0,0,1.8,1.7,2,3.1c0,0.2,0.1,0.3,0.3,0.3h0
				C29.3,19.7,29.4,19.5,29.3,19.3z"/>
		</g>
	</g>
	<g>
		<g>
			<g>
				<g>
					<path class="st8" d="M45,15.8c0,0,1.8-1.8,3.2-0.6c1.7,1.4-0.1,6.2-3.1,5.8L45,15.8z"/>
				</g>
			</g>
		</g>
		<path class="st9" d="M48,20.7c0,0.5-0.4,0.9-0.9,0.9c-0.5,0-0.9-0.4-0.9-0.9s0.4-0.9,0.9-0.9C47.6,19.8,48,20.2,48,20.7z"/>
		<g>
			<path class="st10" d="M45.5,19.3c0.2-0.7,0.9-2.2,2.6-2.9c0,0-1.8,1.7-2,3.1c0,0.2-0.1,0.3-0.3,0.3h0
				C45.6,19.7,45.5,19.5,45.5,19.3z"/>
		</g>
	</g>
	<g>
		<g>
			<path class="st1" d="M41.4,26.3l-0.1,2.3l-0.1,3c0,0-0.6,1.1-3.2,1.1c-2.6,0-3.2-0.8-3.2-0.8l-0.1-1.3l-0.3-4.4L41.4,26.3
				L41.4,26.3z"/>
		</g>
		<g>
			<path class="st10" d="M41.4,26.3l-0.1,2.3c-1.1,0.8-3.7,2.4-6.7,2l-0.3-4.4L41.4,26.3L41.4,26.3z"/>
		</g>
	</g>
	<path class="st1" d="M47.1,13.9c0,0.3,0,0.6-0.1,0.9c-0.6,6.1-2.5,13.8-9.2,13.8c-6.5,0-9.1-7.2-10-13.2c0-0.4-0.1-0.9-0.1-1.3
		c-0.6-5.7,3.8-10.6,9.4-10.7h0.5c4.2,0,7.7,2.8,9,6.5c0.1,0.4,0.3,0.9,0.3,1.4C47.1,12.2,47.2,13,47.1,13.9z"/>
	<g>
		<g>
			<g>
				<path class="st7" d="M33.7,16.5c-0.6,0.1-1.2-0.3-1.2-0.9c0-0.2,0-0.4,0.1-0.6c-0.9-0.1-0.9-0.6-0.9-0.6c0.1,0.2,1.2,0.1,1.6,0
					l0,0c0,0,0.1,0,0.1,0l0,0h0c0.6,0,1.1,0.4,1.2,0.9C34.7,15.8,34.3,16.4,33.7,16.5z"/>
			</g>
		</g>
	</g>
	<g>
		<path class="st10" d="M37.8,25.9c-0.8-0.1-1.4-0.4-1.5-0.4c-0.1-0.1-0.1-0.2-0.1-0.3s0.2-0.1,0.3-0.1c0,0,1.7,0.9,3.2,0
			c0.1-0.1,0.3,0,0.3,0.1c0.1,0.1,0,0.3-0.1,0.3C39.2,25.9,38.5,26,37.8,25.9z"/>
	</g>
	<g>
		<path class="st10" d="M38.6,19.8h-1.3c-0.1,0-0.2-0.1-0.2-0.2c0-0.1,0.1-0.2,0.2-0.2h1.3c0,0,0,0,0,0v0l-1.1-3.7
			c0-0.1,0-0.3,0.2-0.3c0.1,0,0.3,0,0.3,0.2l1.1,3.7c0,0.2,0,0.4-0.1,0.5C38.9,19.7,38.7,19.8,38.6,19.8z"/>
	</g>
	<path class="st7" d="M35.1,11.6L35.1,11.6c0,0.3-0.2,0.6-0.5,0.6c-1,0-3.1,0.2-4.1,1.3c0,0,0.3-1.9,4.1-2.3
		C34.8,11.1,35.1,11.3,35.1,11.6z"/>
	<path class="st7" d="M40.4,11.5L40.4,11.5c0,0.3,0.2,0.5,0.5,0.5c1,0,3.1,0.1,4.2,1.2c0,0-0.4-1.9-4.1-2.2
		C40.7,11,40.4,11.2,40.4,11.5z"/>
	<g>
		<g>
			<g>
				<path class="st7" d="M41.6,16.3c0.6,0.1,1.2-0.3,1.2-0.9c0-0.2,0-0.4-0.1-0.6c0.9-0.1,0.9-0.6,0.9-0.6c-0.1,0.2-1.2,0.1-1.6,0
					l0,0c0,0-0.1,0-0.1,0l0,0h0c-0.6,0-1.1,0.4-1.2,0.9C40.6,15.7,40.9,16.3,41.6,16.3z"/>
			</g>
		</g>
	</g>
	<g>
		<path class="st11" d="M41.6,21.1c0,0.2,0,0.4,0,0.6c-0.1,0.7-0.4,1.3-0.8,1.8c-0.6,0.7-1.6,1.2-2.5,1.2c-1,0-2-0.4-2.6-1.1
			c-0.4-0.5-0.8-1.1-0.9-1.8c0-0.2,0-0.4,0-0.6c0,0,0,0,0,0L41.6,21.1L41.6,21.1z"/>
		<path class="st9" d="M41.6,21.1c0,0.2,0,0.4,0,0.6l-6.9,0.1c0-0.2,0-0.4,0-0.6c0,0,0,0,0,0L41.6,21.1L41.6,21.1z"/>
		<path class="st12" d="M40.7,23.5c-0.6,0.7-1.6,1.2-2.5,1.2c-1,0-2-0.4-2.6-1.1c0.6-0.6,1.5-1,2.6-1C39.1,22.6,40.1,22.9,40.7,23.5
			z"/>
	</g>
	<path class="st7" d="M46,11.3c-2.5-0.2-9-2.2-14.9-4.3c0,0,0.5,6.1-3,9.1c0,0,0-0.3-0.2-0.6c0-0.4-0.1-0.9-0.1-1.3
		c-0.6-5.7,3.8-10.6,9.4-10.7h0.5c4.2,0,7.7,2.8,9,6.5c0.1,0.4,0.3,0.9,0.3,1.4C47,11.3,46.7,11.3,46,11.3z"/>
	<path class="st7" d="M47.1,13.9c0,0.3,0,0.6-0.1,0.9c-0.8-0.4-1-2.3-1.1-3.5c0-0.6,0-1,0-1s0-0.2,0.7-0.3c0.1,0.4,0.3,0.9,0.3,1.4
		C47.1,12.2,47.2,13,47.1,13.9z"/>
</g>
<g>
	<path class="st6" d="M44.5,164.9l6.7,0.1v2.9l2.1,5.6c0,0,1.1,1.9-0.6,2.5c-1.8,0.6-4.1,3.3-10.3-0.4c0,0-0.1-1.7,0.5-2.4l0.9-1.4
		l0.7-3.6L44.5,164.9z"/>
	<rect x="45.5" y="167.2" class="st4" width="4.8" height="0.5"/>
	<rect x="45.5" y="169.4" class="st4" width="4.8" height="0.5"/>
	<rect x="45.5" y="168.3" class="st4" width="4.8" height="0.5"/>
	<path class="st13" d="M42.9,173.2c0.7,0.5,1.8,1.3,3.3,1.7c3.5,0.9,6.4-0.8,7.1-1.2c0.2,0.4,0.3,1,0.2,1.6c-0.4,1.5-2.8,2-3.7,2.1
		c-3.2,0.6-6-0.8-7.3-1.7c-0.1-0.1-0.1-0.2-0.2-0.3C42,174.5,42.8,173.4,42.9,173.2z"/>
</g>
<g>
	<path class="st6" d="M24.8,164.9l6.7,0.5l-0.2,2.9l1.8,5.8c0,0,1,1.9-0.8,2.4c-1.8,0.5-4.3,3.1-10.2-1c0,0,0-1.7,0.7-2.4l1-1.3
		l0.9-3.5L24.8,164.9z"/>
	
		<rect x="27.8" y="165.3" transform="matrix(6.246053e-02 -0.998 0.998 6.246053e-02 -141.0187 185.2626)" class="st4" width="0.5" height="4.8"/>
	
		<rect x="27.7" y="167.5" transform="matrix(6.246053e-02 -0.998 0.998 6.246053e-02 -143.3967 187.2226)" class="st4" width="0.5" height="4.8"/>
	
		<rect x="27.8" y="166.4" transform="matrix(6.246053e-02 -0.998 0.998 6.246053e-02 -142.1864 186.2684)" class="st4" width="0.5" height="4.8"/>
	<path class="st13" d="M22.8,173.1c0.6,0.6,1.7,1.4,3.2,1.9c3.5,1.1,6.5-0.4,7.2-0.8c0.1,0.4,0.3,1,0.1,1.6
		c-0.5,1.5-2.9,1.8-3.8,1.9c-3.2,0.4-5.9-1.2-7.2-2.1c-0.1-0.1-0.1-0.2-0.1-0.3C21.9,174.3,22.7,173.3,22.8,173.1z"/>
</g>
</svg>
